<svg width="112" height="68" viewBox="0 0 112 68" fill="none" xmlns="http://www.w3.org/2000/svg">
<path d="M15.3505 0C4.9889 0 0 6.57143 0 16.7619V26.9524C0 36.5714 3.83762 42.6667 12.4723 42.6667C17.8449 42.6667 21.4907 40.1905 23.3135 35.619V50.5714C23.3135 57.619 20.8191 61.2381 15.0627 61.2381C9.68998 61.2381 7.0996 57.7143 7.0996 51.7143V50H0.0959411V51.2381C0.0959411 61.4286 4.9889 68 15.2545 68C25.9999 68 30.7969 61.3333 30.7969 50.7619V16.7619C30.7969 6.57143 25.712 0 15.3505 0ZM15.3505 6.7619C20.8191 6.7619 23.3135 10.2857 23.3135 16.381V26.381C23.3135 32.381 20.8191 36 15.3505 36C9.97781 36 7.38741 32.381 7.38741 26.381V16.381C7.38741 10.2857 9.97781 6.7619 15.3505 6.7619Z" fill="#E7742E"/>
<path d="M46.4996 7.33333H66.2634V0.666664H39.7838L37.9609 37.7143H44.9646V36.1905C45.6362 31.3333 48.4185 29.0476 52.5439 29.0476C57.9166 29.0476 60.411 32.6667 60.411 38.6667V51.619C60.411 57.619 57.9166 61.2381 52.5439 61.2381C47.1712 61.2381 44.6768 57.619 44.6768 51.619V46.6667H37.6731V51.1429C37.6731 61.3333 42.4701 68 52.7358 68C63.0014 68 67.8944 61.3333 67.8944 51.1429V38.0952C67.8944 28.5714 64.0567 22.2857 55.4221 22.2857C50.9129 22.2857 47.555 24.1905 45.4443 27.8095L46.4996 7.33333Z" fill="#E7742E"/>
<path d="M80.8673 52C85.7603 52 89.1662 48.4762 89.1662 42.8095C89.1662 37.1429 85.7603 33.619 80.8673 33.619C75.9743 33.619 72.5205 37.1905 72.5205 42.8095C72.5205 48.4286 75.9743 52 80.8673 52ZM77.9411 67.3333H83.6496L106.579 34H100.871L77.9411 67.3333ZM80.8673 48.0952C78.8046 48.0952 77.3655 46.3333 77.3655 42.8095C77.3655 39.2857 78.8046 37.5238 80.8673 37.5238C82.978 37.5238 84.3692 39.2381 84.3692 42.8095C84.3692 46.381 82.978 48.0952 80.8673 48.0952ZM103.653 67.7143C108.546 67.7143 112 64.1429 112 58.5238C112 52.9048 108.546 49.3333 103.653 49.3333C98.8082 49.3333 95.3543 52.9048 95.3543 58.5238C95.3543 64.1429 98.8082 67.7143 103.653 67.7143ZM103.653 63.8095C101.59 63.8095 100.151 62.0952 100.151 58.5238C100.151 54.9524 101.59 53.2381 103.653 53.2381C105.764 53.2381 107.155 55 107.155 58.5238C107.155 62.0476 105.764 63.8095 103.653 63.8095Z" fill="#E7742E"/>
</svg>
