<svg width="92" height="80" viewBox="0 0 92 80" fill="none" xmlns="http://www.w3.org/2000/svg">
<path d="M87.7944 34.3802H77.6221V27.1253C77.6221 23.2298 74.441 20.0491 70.5051 20.0491H12.8681C12.1313 20.0491 11.5202 20.6567 11.5202 21.3893C11.5202 22.122 12.1313 22.7295 12.8681 22.7295H70.4871C72.9134 22.7295 74.9083 24.6951 74.9083 27.1253V34.3802H69.0493C62.7411 34.3802 57.619 39.4729 57.619 45.7449C57.619 52.017 62.7411 57.1097 69.0493 57.1097H83.5529V64.3645C83.5529 71.53 77.694 77.3554 70.4871 77.3554H5.66125C4.02578 77.3554 2.69584 76.0331 2.69584 74.407V71.4586H70.5051C74.423 71.4586 77.6221 68.2957 77.6221 64.3824V61.5233C77.6221 60.7907 77.011 60.1832 76.2742 60.1832C75.5373 60.1832 74.9262 60.7907 74.9262 61.5233V64.3824C74.9262 66.7947 72.9493 68.7782 70.5051 68.7782H2.69584V22.7295H7.117C7.85387 22.7295 8.46492 22.122 8.46492 21.3893C8.46492 20.6567 7.85387 20.0491 7.117 20.0491H2.69584V17.1007C2.69584 15.4746 4.02578 14.1523 5.66125 14.1523H70.4871C77.694 14.1523 83.5529 19.9777 83.5529 27.1432V30.0022C83.5529 30.7349 84.164 31.3424 84.9008 31.3424C85.6377 31.3424 86.2488 30.7349 86.2488 30.0022V27.1432C86.2488 22.2828 84.0022 17.9227 80.4797 15.0458V1.34018C80.4797 0.60755 79.8686 0 79.1318 0H7.117C6.38014 0 5.76909 0.60755 5.76909 1.34018V11.4541H5.67923C2.55206 11.4541 0 13.9736 0 17.0829V74.3712C0 77.4805 2.55206 80 5.66125 80H70.4871C79.1677 80 86.2488 72.9774 86.2488 64.3288V57.0739H87.7764C90.1128 57.0739 91.9999 55.1798 91.9999 52.8747V38.5794C92.0178 36.2564 90.1128 34.3802 87.7944 34.3802ZM77.8018 2.68037V13.241C76.8313 12.7407 75.8069 12.3297 74.7286 12.0259V7.0583C74.7286 6.32566 74.1175 5.71811 73.3806 5.71811H8.46492V2.68037H77.8018ZM8.46492 8.39848H72.0327V11.5256C71.5295 11.472 71.0083 11.4541 70.5051 11.4541H8.46492V8.39848ZM89.322 52.8926C89.322 53.7324 88.6391 54.4114 87.7944 54.4114H69.0673C64.2507 54.4114 60.3328 50.516 60.3328 45.727C60.3328 40.9381 64.2507 37.0427 69.0673 37.0427H87.7944C88.6391 37.0427 89.322 37.7217 89.322 38.5615V52.8926Z" fill="#E7742E"/>
<path d="M69.0673 40.0984C65.9402 40.0984 63.4061 42.6358 63.4061 45.7272C63.4061 48.8185 65.9581 51.3559 69.0673 51.3559C72.1765 51.3559 74.7286 48.8185 74.7286 45.7272C74.7286 42.6358 72.1945 40.0984 69.0673 40.0984ZM69.0673 48.6934C67.4318 48.6934 66.1019 47.3711 66.1019 45.745C66.1019 44.1189 67.4318 42.7966 69.0673 42.7966C70.7028 42.7966 72.0327 44.1189 72.0327 45.745C72.0327 47.3711 70.7028 48.6934 69.0673 48.6934Z" fill="#E7742E"/>
</svg>
