<svg width="68" height="86" viewBox="0 0 68 86" fill="none" xmlns="http://www.w3.org/2000/svg">
<path d="M25.5966 19H42.4244C43.2857 19 44 18.32 44 17.5C44 16.68 43.2857 16 42.4244 16H25.5756C24.7143 16 24 16.68 24 17.5C24 18.32 24.7143 19 25.5966 19Z" fill="#E7742E"/>
<path d="M53.813 72.9391H56.5462C57.3409 72.9391 58 72.2487 58 71.4162C58 70.5838 57.3022 69.9137 56.5074 69.9137H53.7742C52.1459 69.9137 50.6146 70.5838 49.4515 71.7817L47.8426 73.467L41.8723 68.5939C41.5428 68.3299 41.1163 68.2284 40.7092 68.2893C40.3022 68.3706 39.9532 68.6345 39.7206 69L38.6933 70.8071L36.0376 65.7919C35.7856 65.3249 35.301 65.0203 34.797 65C34.2737 65 33.7891 65.264 33.5177 65.731L30.2223 71.4975C29.6408 72.5127 28.5941 73.1218 27.4698 73.1218H25.4538C24.6591 73.1218 24 73.8122 24 74.6447C24 75.4772 24.6591 76.1675 25.4538 76.1675H27.4698C29.6021 76.1675 31.618 74.9695 32.7229 73.0609L34.7389 69.5482L37.3945 74.5635C37.6465 75.0305 38.1311 75.335 38.6351 75.3553C39.1585 75.3553 39.6431 75.0914 39.9145 74.6244L41.4071 72.0254L47.106 76.6751C47.3774 76.8985 47.6876 77 47.9977 77C48.366 77 48.7537 76.8579 49.0251 76.5533" fill="#E7742E"/>
<path d="M68 17.188C68 15.9333 67.5139 14.7582 66.6023 13.8819L53.8814 1.37425C52.9902 0.497916 51.7748 0 50.5189 0H3.15996C1.41793 0 0.0202559 1.39416 0.0202559 3.08708L0 82.9129C0 84.6257 1.41793 86 3.13971 86H15.3137H45.3536H64.8198C66.5416 86 67.9595 84.6257 67.9595 82.9129V27.5646H68V17.188ZM51.7545 3.50533L64.4349 15.9532H51.8558C51.7951 15.9532 51.7545 15.9134 51.7545 15.8536V3.50533ZM64.8198 83.0324H45.5967C45.5156 83.0125 45.4346 83.0125 45.3536 83.0125H3.15996C3.0992 83.0125 3.05868 82.9727 3.05868 82.9129V3.08708C3.05868 3.02733 3.0992 2.98749 3.15996 2.98749H48.7161V15.8536C48.7161 17.5665 50.134 18.9407 51.8558 18.9407H64.9211V82.9328C64.9211 82.9926 64.8805 83.0324 64.8198 83.0324Z" fill="#E7742E"/>
<path d="M14.4648 27.7224C13.6641 27.7224 13 28.4024 13 29.2224C13 30.0424 13.6445 30.7224 14.4648 30.7224H23V27.7224H14.4648Z" fill="#E7742E"/>
<path d="M14.4648 35.7224C13.6641 35.7224 13 36.4024 13 37.2224C13 38.0424 13.6445 38.7224 14.4648 38.7224H23V35.7224H14.4648Z" fill="#E7742E"/>
<path d="M14.4648 43.7224C13.6641 43.7224 13 44.4024 13 45.2224C13 46.0424 13.6445 46.7224 14.4648 46.7224H23V43.7224H14.4648Z" fill="#E7742E"/>
<path d="M14.4648 51.7224C13.6641 51.7224 13 52.4024 13 53.2224C13 54.0424 13.6445 54.7224 14.4648 54.7224H23V51.7224H14.4648Z" fill="#E7742E"/>
<path d="M53.5294 30.7222C54.3333 30.7222 55 30.0422 55 29.2222C55 28.4022 54.3333 27.7222 53.5294 27.7222H45V30.7222H53.5294Z" fill="#E7742E"/>
<path d="M53.5294 38.7222C54.3333 38.7222 55 38.0422 55 37.2222C55 36.4022 54.3333 35.7222 53.5294 35.7222H45V38.7222H53.5294Z" fill="#E7742E"/>
<path d="M53.5294 46.7222C54.3333 46.7222 55 46.0422 55 45.2222C55 44.4022 54.3333 43.7222 53.5294 43.7222H45V46.7222H53.5294Z" fill="#E7742E"/>
<path d="M53.5294 54.7222C54.3333 54.7222 55 54.0422 55 53.2222C55 52.4022 54.3333 51.7222 53.5294 51.7222H45V54.7222H53.5294Z" fill="#E7742E"/>
<path d="M37.89 27.0234C37.7043 27.0234 37.5187 27.0632 37.3517 27.1428C37.0918 27.2025 36.832 27.3418 36.6278 27.5608L27.7925 36.9737C27.2357 37.5707 27.2357 38.5657 27.7925 39.1627C28.3494 39.7598 29.2589 39.7797 29.8343 39.1627L36.4793 32.0981V53.4712C36.4793 54.307 37.1289 55.0234 37.9271 55.0234C38.7067 55.0234 39.3749 54.3468 39.3749 53.4712V28.5558C39.3192 27.72 38.6695 27.0234 37.89 27.0234Z" fill="#E7742E"/>
</svg>
