<svg width="88" height="79" viewBox="0 0 88 79" fill="none" xmlns="http://www.w3.org/2000/svg">
<path d="M10.4581 16C14.8837 16 18.4581 12.4255 18.4581 8C18.4581 3.57447 14.8837 0 10.4581 0C6.0326 0 2.45813 3.57447 2.45813 8C2.54324 12.4255 6.1177 16 10.4581 16Z" fill="#E7742E"/>
<path d="M10.4581 60C14.8837 60 18.4581 56.4255 18.4581 52C18.4581 47.5745 14.8837 44 10.4581 44C6.0326 44 2.45813 47.5745 2.45813 52C2.54324 56.4255 6.1177 60 10.4581 60Z" fill="#E7742E"/>
<path d="M76.9131 16C81.3386 16 84.9131 12.4255 84.9131 8C84.9131 3.57447 81.3386 0 76.9131 0C72.4875 0 68.9131 3.57447 68.9131 8C68.9982 12.4255 72.5727 16 76.9131 16Z" fill="#E7742E"/>
<path d="M88 34.5199V21.6776C88 19.1262 86.1222 17 83.8176 17H71.0145C68.71 17 66.8322 19.1262 66.8322 21.6776V24.9095L60.0039 31.7133C59.5771 31.5432 59.1503 31.4582 58.6382 31.4582H30.13C29.5325 31.4582 29.0204 31.6283 28.5936 31.7984L21.1678 25.0796V21.6776C21.1678 19.1262 19.29 17 16.9855 17H4.18235C1.87779 17 0 19.1262 0 21.6776V34.5199C0 34.69 0.0853544 34.775 0.0853544 34.9451H21.0824C21.0824 34.775 21.1678 34.69 21.1678 34.5199V28.5665L26.8012 33.6694C26.5451 34.1797 26.4597 34.69 26.4597 35.2003V52.0398C26.4597 52.6351 26.6305 53.2305 26.8865 53.7407L20.3143 62.8409C19.5461 61.7353 18.3511 61.0549 17.0708 61.0549H4.2677C1.96314 61.0549 0.0853544 63.1811 0.0853544 65.7325V78.5748C0.0853544 78.7449 0.170709 78.8299 0.170709 79H21.1678C21.1678 78.8299 21.2532 78.7449 21.2532 78.5748V65.9877L28.8497 55.4417C29.2764 55.6118 29.7886 55.6969 30.3007 55.6969H58.8089C59.321 55.6969 59.7478 55.6118 60.1746 55.4417L67.0883 64.7119C67.0029 65.0521 67.0029 65.3073 67.0029 65.6475V78.4897C67.0029 78.6598 67.0883 78.7449 67.0883 78.915H87.9146C87.9146 78.7449 88 78.6598 88 78.4897V65.6475C88 63.096 86.1222 60.9698 83.8176 60.9698H71.0145C69.9049 60.9698 68.9661 61.3951 68.1979 62.1605L61.8817 53.7407C62.1377 53.2305 62.3938 52.6351 62.3938 51.9547V35.2003C62.3938 34.5199 62.2231 34.0096 61.967 33.4143L66.8322 28.5665V34.5199C66.8322 34.69 66.9176 34.775 66.9176 34.9451H87.9146C88 34.775 88 34.69 88 34.5199Z" fill="#E7742E"/>
<path d="M68.9978 52C68.9978 56.4255 72.5723 60 76.9978 60C81.4233 60 84.9978 56.4255 84.9978 52C84.9978 47.5745 81.4233 44 76.9978 44C72.5723 44 68.9978 47.5745 68.9978 52Z" fill="#E7742E"/>
<path d="M34.744 39.125H31V47.875H32.69V45.35H34.744C37.136 45.35 38.618 44.1625 38.618 42.2375C38.618 40.3 37.136 39.125 34.744 39.125ZM34.666 43.975H32.69V40.5H34.666C36.148 40.5 36.915 41.1375 36.915 42.2375C36.915 43.3375 36.148 43.975 34.666 43.975Z" fill="white"/>
<path d="M48.0797 47.875L45.9867 45C47.2217 44.5375 47.9237 43.5625 47.9237 42.2375C47.9237 40.3 46.4417 39.125 44.0497 39.125H40.3057V47.875H41.9957V45.325H44.0497C44.1667 45.325 44.2837 45.325 44.4007 45.3125L46.2597 47.875H48.0797ZM46.2207 42.2375C46.2207 43.3375 45.4537 43.9875 43.9717 43.9875H41.9957V40.5H43.9717C45.4537 40.5 46.2207 41.1375 46.2207 42.2375Z" fill="white"/>
<path d="M54.0655 48C56.8865 48 58.9665 46.1 58.9665 43.5C58.9665 40.9 56.8865 39 54.0655 39C51.2445 39 49.1645 40.9125 49.1645 43.5C49.1645 46.0875 51.2445 48 54.0655 48ZM54.0655 46.575C52.2325 46.575 50.8675 45.2875 50.8675 43.5C50.8675 41.7125 52.2325 40.425 54.0655 40.425C55.8985 40.425 57.2635 41.7125 57.2635 43.5C57.2635 45.2875 55.8985 46.575 54.0655 46.575Z" fill="white"/>
</svg>
