<svg width="120" height="75" viewBox="0 0 120 75" fill="none" xmlns="http://www.w3.org/2000/svg">
<path d="M58.6069 27.1166L56.9657 30.8146L62.8923 34.9929L62.1128 38.6955L55 40.1583L55.0124 44.2007L62.1346 45.6203L62.9373 49.3183L57.0371 53.5321L58.7016 57.2208L65.788 55.6344L68.0332 58.6883L64.3658 64.9257L67.3935 67.6211L73.2192 63.3053L76.5186 65.1867L75.719 72.3695L79.5867 73.6068L83.1439 67.306L86.9263 67.6891L89.1326 74.5737L93.1727 74.1381L93.8466 66.943L97.4597 65.7629L102.29 71.16L105.802 69.1272L103.476 62.2812L106.294 59.7417L112.914 62.7183L115.292 59.4405L110.369 54.1284L111.904 50.6683L119.168 50.7085L120 46.7526L113.33 43.8918L113.317 40.1089L119.969 37.2065L119.112 33.2552L111.848 33.3401L110.291 29.8893L115.182 24.5463L112.783 21.2839L106.183 24.3007L103.349 21.7782L105.633 14.9183L102.108 12.9071L97.3122 18.3336L93.6913 17.1751L92.9724 9.98461L88.9292 9.57373L86.7663 16.4723L82.9856 16.88L79.3895 10.6009L75.528 11.8614L76.3727 19.0395L73.0857 20.941L67.2336 16.6607L64.2229 19.3747L67.9292 25.5905L65.7026 28.6582L58.6069 27.1166ZM92.6805 28.7509C100.101 31.573 103.818 39.8448 100.981 47.2268C98.1444 54.6088 89.8298 58.3067 82.4095 55.4846C74.9892 52.6625 71.2721 44.3907 74.1089 37.0087C76.9456 29.6267 85.2602 25.9288 92.6805 28.7509Z" fill="#E7742E"/>
<path d="M24.3746 5.29984L21.3774 6.14606L21.8143 11.6891L19.2376 13.0456L14.875 9.56883L12.4866 11.5581L15.1463 16.4531L13.3505 18.7401L7.95303 17.3279L6.58592 20.1185L11.0091 23.5195L10.3027 26.3409L4.80403 27.238L4.69555 30.3447L10.1155 31.6621L10.6225 34.5295L5.9739 37.5801L7.1427 40.4684L12.6234 39.4754L14.2553 41.8937L11.26 46.5719L13.5035 48.7405L18.0971 45.6086L20.5728 47.1595L19.749 52.6538L22.6798 53.7285L25.5928 48.999L28.4827 49.4154L29.9732 54.7772L33.0847 54.5717L33.8119 49.0629L36.6166 48.2712L40.1633 52.5739L42.916 51.1248L41.3328 45.7879L43.5687 43.9249L48.5574 46.4238L50.4764 43.9799L46.855 39.7399L48.1346 37.1289L53.7046 37.3914L54.4584 34.3766L49.426 31.9642L49.527 29.0569L54.7134 27.0393L54.1725 23.975L48.5999 23.8095L47.5061 21.1076L51.4127 17.1566L49.6683 14.5714L44.5179 16.6792L42.418 14.6499L44.3701 9.44998L41.7258 7.79246L37.8888 11.8104L35.1455 10.8045L34.8054 5.25492L31.7176 4.81061L29.8567 10.0439L26.9453 10.2366L24.3746 5.29984ZM40.155 26.1913C42.1313 31.9511 39.0566 38.1993 33.2877 40.1468C27.5192 42.0958 21.2417 39.006 19.2668 33.2459C17.2905 27.4862 20.3652 21.238 26.1341 19.2905C31.9015 17.3433 38.1786 20.4316 40.155 26.1913Z" fill="#E7742E"/>
</svg>
