<svg width="126" height="76" viewBox="0 0 126 76" fill="none" xmlns="http://www.w3.org/2000/svg">
<path d="M104.143 0H21.8571C18.0857 0 15 3.06 15 6.8V61.2C15 64.94 18.0857 68 21.8571 68H104.143C107.914 68 111 64.94 111 61.2V6.8C111 3.06 107.914 0 104.143 0ZM107.571 61.2H18.4286V3.4H107.571V61.2Z" fill="#E7742E"/>
<path d="M125.189 74C123.289 75.08 118.625 76 114.824 76H11.1758C7.37539 76 2.71122 75.08 0.811001 74C-1.08922 72.92 0.465507 72 4.26595 72H121.734C125.534 72 127.089 72.92 125.189 74Z" fill="#E7742E"/>
<path d="M87.9264 30.1198C87.7607 27.9104 85.8645 26.1798 83.6001 26.1798H82.7165C82.3115 24.7805 81.7408 23.4365 81.0412 22.1662L81.6672 21.5402C83.2504 19.9568 83.3792 17.3793 81.9433 15.7039C81.5383 15.2252 81.1149 14.7649 80.673 14.323C80.2312 13.8812 79.771 13.4577 79.2923 13.0527C77.6171 11.6166 75.0398 11.7455 73.4566 13.3288L72.8306 13.9548C71.542 13.2552 70.1981 12.7028 68.8174 12.2794V11.3957C68.8174 9.1495 67.0869 7.25315 64.8778 7.06904C63.6259 6.97699 62.3741 6.97699 61.1222 7.06904C58.9131 7.23474 57.1826 9.13109 57.1826 11.3957V12.2794C55.7835 12.6844 54.4396 13.2552 53.1694 13.9548L52.5434 13.3288C50.9602 11.7455 48.3829 11.6166 46.7077 13.0527C46.229 13.4577 45.7688 13.8812 45.327 14.323C44.8851 14.7649 44.4617 15.2252 44.0567 15.7039C42.6208 17.3793 42.7496 19.9568 44.3328 21.5402L44.9588 22.1662C44.2592 23.4549 43.7069 24.799 43.2835 26.1798H42.3999C40.1539 26.1798 38.2577 27.9104 38.0736 30.1198C38.0184 30.7457 38 31.3717 38 31.9977C38 32.6237 38.0184 33.2497 38.0736 33.8756C38.2393 36.085 40.1355 37.8156 42.3999 37.8156H43.2835C43.6885 39.2149 44.2592 40.5589 44.9588 41.8292L44.3328 42.4552C42.7496 44.0386 42.6208 46.6161 44.0567 48.2915C44.4617 48.7702 44.8851 49.2305 45.327 49.6724C45.7688 50.1142 46.229 50.5377 46.7077 50.9427C48.3829 52.3788 50.9602 52.2499 52.5434 50.6666L53.1694 50.0406C54.458 50.7402 55.8019 51.2926 57.1826 51.716V52.5997C57.1826 54.8459 58.9131 56.7422 61.1222 56.9263C61.7482 56.9816 62.3741 57 63 57C63.6259 57 64.2518 56.9816 64.8778 56.9263C67.0869 56.7607 68.8174 54.8643 68.8174 52.5997V51.716C70.2165 51.311 71.5604 50.7402 72.8306 50.0406L73.4566 50.6666C75.0398 52.2499 77.6171 52.3788 79.2923 50.9427C79.771 50.5377 80.2312 50.1142 80.673 49.6724C81.1149 49.2305 81.5383 48.7702 81.9433 48.2915C83.3792 46.6161 83.2504 44.0386 81.6672 42.4552L81.0412 41.8292C81.7408 40.5405 82.2931 39.1964 82.7165 37.8156H83.6001C85.8461 37.8156 87.7423 36.085 87.9264 33.8756C87.9816 33.2497 88 32.6237 88 31.9977C88 31.3717 87.9816 30.7457 87.9264 30.1198ZM85.1649 33.6547C85.1097 34.428 84.4102 35.0355 83.6001 35.0355H81.6487C81.0044 35.0355 80.4521 35.4774 80.3049 36.1034C79.863 37.9445 79.1451 39.712 78.1325 41.3321C77.8012 41.8845 77.8748 42.5841 78.3351 43.026L79.7158 44.4068C80.2864 44.9775 80.3417 45.8981 79.8446 46.4872C79.4764 46.9107 79.1082 47.3157 78.7216 47.7024C78.3351 48.089 77.93 48.4757 77.5066 48.8255C76.9175 49.341 75.9971 49.2673 75.4264 48.6966L74.0457 47.3157C73.5854 46.8555 72.8859 46.7818 72.352 47.1132C70.732 48.1074 68.9831 48.8439 67.1237 49.2857C66.4978 49.433 66.056 49.9854 66.056 50.6297V52.5997C66.056 53.4098 65.4485 54.1094 64.6753 54.1647C63.5707 54.2567 62.4661 54.2567 61.3616 54.1647C60.5884 54.1094 59.9809 53.4098 59.9809 52.5997V50.6482C59.9809 50.0038 59.539 49.4514 58.9131 49.3041C57.0722 48.8623 55.3049 48.1442 53.6848 47.1316C53.4639 46.9843 53.2062 46.9291 52.9669 46.9291C52.6171 46.9291 52.2489 47.0764 51.9912 47.3342L50.6105 48.715C50.0398 49.2857 49.1193 49.341 48.5302 48.8439C48.1068 48.4757 47.7018 48.1074 47.3152 47.7208C46.9286 47.3342 46.542 46.9291 46.1922 46.5057C45.6767 45.9165 45.7504 44.9959 46.3211 44.4252L47.7018 43.0444C48.162 42.5841 48.2356 41.8845 47.9043 41.3505C46.9102 39.7304 46.1738 37.9813 45.732 36.1218C45.5847 35.4958 45.0324 35.0539 44.3881 35.0539H42.4367C41.6267 35.0539 40.9271 34.4464 40.8719 33.6731C40.8351 33.1208 40.7982 32.5684 40.7982 32.0161C40.7982 31.4638 40.8166 30.9114 40.8719 30.3591C40.9271 29.5858 41.6267 28.9783 42.4367 28.9783H44.3881C45.0324 28.9783 45.5847 28.5364 45.732 27.9104C46.1738 26.0693 46.8918 24.3018 47.9043 22.6817C48.2356 22.1293 48.162 21.4297 47.7018 20.9878L46.3211 19.607C45.7504 19.0363 45.6951 18.1157 46.1922 17.5266C46.5604 17.1031 46.9286 16.6981 47.3152 16.3114C47.7018 15.9248 48.1068 15.5382 48.5302 15.1883C49.1193 14.6728 50.0398 14.7465 50.6105 15.3172L51.9912 16.6981C52.4514 17.1583 53.151 17.232 53.6848 16.9006C55.3049 15.9064 57.0538 15.1699 58.9131 14.7281C59.539 14.5808 59.9809 14.0284 59.9809 13.3841V11.4325C59.9809 10.6224 60.5884 9.92276 61.3616 9.86753C62.4661 9.77548 63.5707 9.77548 64.6753 9.86753C65.4485 9.92276 66.056 10.6224 66.056 11.4325V13.3841C66.056 14.0284 66.4978 14.5808 67.1237 14.7281C68.9647 15.1699 70.732 15.888 72.352 16.9006C72.9043 17.232 73.6038 17.1583 74.0457 16.6981L75.4264 15.3172C75.9971 14.7465 76.9175 14.6912 77.5066 15.1883C77.93 15.5566 78.3351 15.9248 78.7216 16.3114C79.1082 16.6981 79.4948 17.1031 79.8446 17.5266C80.3601 18.1157 80.2864 19.0363 79.7158 19.607L78.3351 20.9878C77.8748 21.4481 77.8012 22.1477 78.1325 22.6817C79.1267 24.3018 79.863 26.0509 80.3049 27.9104C80.4521 28.5364 81.0044 28.9783 81.6487 28.9783H83.6001C84.4102 28.9783 85.1097 29.5858 85.1649 30.3591C85.2018 30.9114 85.2386 31.4638 85.2386 32.0161C85.2386 32.5684 85.2202 33.1024 85.1649 33.6547Z" fill="#E7742E"/>
<path d="M50.6105 27.6896L58.7475 31.7584C58.7291 31.961 58.7107 32.1635 58.7107 32.366C58.7107 34.741 60.6437 36.6926 63.0369 36.6926C65.4117 36.6926 67.3631 34.7594 67.3631 32.366C67.3631 31.6664 67.1974 31.022 66.9029 30.4328L74.3219 23.0132C74.8558 22.4792 74.8558 21.5955 74.3219 21.0616C73.788 20.5277 72.9044 20.5277 72.3705 21.0616L64.9515 28.4813C64.3624 28.1867 63.718 28.021 63.0185 28.021C61.8219 28.021 60.7541 28.5181 59.9625 29.2913L51.8256 25.2225C51.1444 24.8911 50.316 25.1673 49.9662 25.8485C49.6348 26.5297 49.911 27.3582 50.6105 27.6896ZM61.4537 32.3844C61.4537 31.5191 62.1532 30.8195 63.0185 30.8195C63.8837 30.8195 64.5833 31.5191 64.5833 32.3844C64.5833 33.2497 63.8837 33.9494 63.0185 33.9494C62.1532 33.9494 61.4537 33.2497 61.4537 32.3844Z" fill="#E7742E"/>
<path d="M63 20.1042C63.7548 20.1042 64.3807 19.4782 64.3807 18.7234V17.2505C64.3807 16.4956 63.7548 15.8696 63 15.8696C62.2452 15.8696 61.6193 16.4956 61.6193 17.2505V18.7234C61.6193 19.4782 62.2452 20.1042 63 20.1042Z" fill="#E7742E"/>
<path d="M63 43.9097C62.2452 43.9097 61.6193 44.5356 61.6193 45.2905V46.7634C61.6193 47.5182 62.2452 48.1442 63 48.1442C63.7548 48.1442 64.3807 47.5182 64.3807 46.7634V45.2905C64.3807 44.5172 63.7732 43.9097 63 43.9097Z" fill="#E7742E"/>
<path d="M77.7643 30.6172H76.2916C75.5368 30.6172 74.9109 31.2432 74.9109 31.998C74.9109 32.7529 75.5368 33.3789 76.2916 33.3789H77.7643C78.5191 33.3789 79.1451 32.7529 79.1451 31.998C79.1451 31.2432 78.5191 30.6172 77.7643 30.6172Z" fill="#E7742E"/>
<path d="M49.7268 30.6172H48.254C47.4992 30.6172 46.8733 31.2432 46.8733 31.998C46.8733 32.7529 47.4992 33.3789 48.254 33.3789H49.7268C50.4815 33.3789 51.1075 32.7529 51.1075 31.998C51.1075 31.2432 50.4815 30.6172 49.7268 30.6172Z" fill="#E7742E"/>
</svg>
