<svg width="92" height="92" viewBox="0 0 92 92" fill="none" xmlns="http://www.w3.org/2000/svg">
<g clip-path="url(#clip0_3909_12626)">
<path d="M47.0695 6.42812C46.383 6.15169 45.617 6.15169 44.9305 6.42812L10.6145 20.2196L24.4375 25.7721L59.823 11.553L47.0695 6.42812ZM67.5625 14.6672L32.177 28.8863L46 34.4387L81.3855 20.2196L67.5625 14.6672ZM86.25 24.4894L48.875 39.5116V85.283L86.25 70.2608V24.4952V24.4894ZM43.125 85.2887V39.5058L5.75 24.4894V70.2666L43.125 85.2887ZM42.7972 1.06059C44.8533 0.234362 47.1467 0.234362 49.2028 1.06059L90.1945 17.5387C90.7275 17.7534 91.1842 18.1234 91.506 18.6012C91.8278 19.079 91.9999 19.6427 92 20.2196V70.2666C91.9993 71.4211 91.6543 72.5489 91.0097 73.5046C90.365 74.4603 89.4502 75.2 88.3833 75.6283L47.0695 92.2336C46.383 92.51 45.617 92.51 44.9305 92.2336L3.6225 75.6283C2.55444 75.2009 1.63842 74.4616 0.992692 73.5058C0.346965 72.5501 0.00118639 71.4218 0 70.2666L0 20.2196C0.00013363 19.6427 0.172177 19.079 0.493965 18.6012C0.815754 18.1234 1.27255 17.7534 1.8055 17.5387L42.7972 1.06059Z" fill="#E7742E"/>
<path d="M77.7999 42.9076C77.3945 42.6816 76.9486 42.5379 76.4877 42.4847C76.0268 42.4315 75.5599 42.4698 75.1138 42.5974C74.6677 42.7251 74.2511 42.9396 73.8879 43.2287C73.5246 43.5178 73.2217 43.8758 72.9967 44.2822L66.44 56.1031L62.6875 52.3438C62.3617 52.0059 61.972 51.7363 61.5411 51.5509C61.1102 51.3655 60.6467 51.2679 60.1778 51.2638C59.7089 51.2597 59.2438 51.3492 58.8098 51.5271C58.3757 51.705 57.9814 51.9678 57.6498 52.3C57.3182 52.6322 57.0559 53.0272 56.8784 53.462C56.7008 53.8968 56.6114 54.3627 56.6155 54.8325C56.6196 55.3023 56.717 55.7666 56.9021 56.1983C57.0872 56.6299 57.3562 57.0203 57.6936 57.3467L64.7571 64.423C65.4246 65.0935 66.3252 65.4614 67.254 65.4614L67.7432 65.426C68.2845 65.3502 68.8009 65.1495 69.2516 64.8397C69.7024 64.53 70.0752 64.1197 70.3408 63.6411L79.1702 47.7195C79.3956 47.3134 79.539 46.8668 79.5921 46.4052C79.6452 45.9436 79.6071 45.476 79.4798 45.0292C79.3526 44.5824 79.1387 44.1651 78.8505 43.801C78.5622 43.437 78.2052 43.1334 77.7999 42.9076Z" fill="#E7742E"/>
</g>
<defs>
<clipPath id="clip0_3909_12626">
<rect width="92" height="92" fill="white"/>
</clipPath>
</defs>
</svg>
