<svg width="92" height="94" viewBox="0 0 92 94" fill="none" xmlns="http://www.w3.org/2000/svg">
<path d="M38.8571 83.5432V52.5456L3.92857 52.6172V79.1764L38.8571 83.5432ZM42.6429 50.6843V85.6193C42.6429 85.6909 42.6429 85.7625 42.6429 85.834C42.5 86.8363 41.5714 87.5522 40.5714 87.4806L1.85714 82.6842C0.92857 82.6126 0.142855 81.8251 0.142855 80.8229V50.7559C0.142855 49.7537 0.999997 48.8946 2 48.8946L40.5 48.823C40.5714 48.823 40.6429 48.823 40.6429 48.823C41.7857 48.7514 42.6429 49.6105 42.6429 50.6843ZM38.8571 40.662V10.3803L3.71428 14.8187V40.662H38.8571ZM42.6429 8.23262V42.5233C42.6429 43.5255 41.7857 44.3846 40.7857 44.3846H1.85714C0.785713 44.3846 0 43.5255 0 42.5233V13.1722C0 12.2416 0.714283 11.4541 1.64285 11.3109L40.3571 6.44292C40.5 6.44292 40.6429 6.37134 40.7857 6.37134C41.7857 6.37134 42.6429 7.23039 42.6429 8.23262ZM50.7857 40.662H88.1429V4.00893L50.7857 8.9485V40.662ZM90.0714 44.3846H48.9286C47.8571 44.3846 47.0714 43.5255 47.0714 42.5233V7.30198C47.0714 6.37134 47.7857 5.58386 48.7143 5.44069L89.7143 0.0715869C89.8572 0.0715869 90 0 90.1429 0C91.2143 0 92 0.859055 92 1.86129V42.5233C91.9286 43.5971 91.0714 44.3846 90.0714 44.3846ZM88.1429 89.9146V52.6172L50.7857 52.5456V84.975L88.1429 89.9146ZM91.9286 50.7559V92.1338C91.9286 92.2054 91.9286 92.277 91.9286 92.3485C91.7857 93.3508 90.8571 94.0667 89.8571 93.9951L48.8572 88.5544C47.8571 88.4828 47.0714 87.6953 47.0714 86.6931V50.7559C47.0714 49.6821 47.9286 48.8946 48.9286 48.8946L89.9286 48.9662C90 48.9662 90.0714 48.9662 90.0714 48.9662C91.0714 48.8946 91.9286 49.6821 91.9286 50.7559Z" fill="#E7742E"/>
</svg>
