<svg width="96" height="95" viewBox="0 0 96 95" fill="none" xmlns="http://www.w3.org/2000/svg">
<path d="M34.3 31.661C33.9911 31.3378 33.9176 30.8529 34.0941 30.4416L36.6831 24.5354C35.0208 21.9643 34.1382 18.9966 34.1382 15.9113C34.1382 7.14025 41.2873 0 50.0691 0C58.851 0 66 7.14025 66 15.9113C66 24.6823 58.851 31.8226 50.0691 31.8226C47.2154 31.8226 44.4352 31.0586 41.9934 29.6188L35.5063 31.9401C35.3886 31.9842 35.2562 31.9989 35.1238 31.9989C34.8149 32.0136 34.5207 31.8814 34.3 31.661ZM36.3889 15.926C36.3889 18.7615 37.2567 21.4795 38.8896 23.7861C39.1396 24.1387 39.1543 24.5942 38.9631 24.9615L37.1979 28.9577L41.655 27.3563C41.9934 27.2093 42.3905 27.224 42.7141 27.4297C44.9059 28.8255 47.4507 29.5747 50.0691 29.5747C57.6153 29.5747 63.7494 23.4482 63.7494 15.9113C63.7494 8.37436 57.6153 2.24786 50.0691 2.24786C42.5229 2.26255 36.3889 8.38906 36.3889 15.926Z" fill="#E7742E"/>
<path d="M16.7273 37C21.1456 37 24.7273 33.4183 24.7273 29C24.7273 24.5817 21.1456 21 16.7273 21C12.309 21 8.72729 24.5817 8.72729 29C8.72729 33.4183 12.309 37 16.7273 37Z" fill="#E7742E"/>
<path d="M28.2857 39H4.71429C3.46398 39 2.26488 39.4917 1.38078 40.3668C0.496683 41.242 0 42.429 0 43.6667V67H7.07143V48.3333H8.25V95H15.9107V68.1667H17.0893V95H24.75V48.3333H25.9286V67H33V43.6667C33 42.429 32.5033 41.242 31.6192 40.3668C30.7351 39.4917 29.536 39 28.2857 39Z" fill="#E7742E"/>
<path d="M79.7273 37C84.1456 37 87.7273 33.4183 87.7273 29C87.7273 24.5817 84.1456 21 79.7273 21C75.309 21 71.7273 24.5817 71.7273 29C71.7273 33.4183 75.309 37 79.7273 37Z" fill="#E7742E"/>
<path d="M91.2857 39H67.7143C66.464 39 65.2649 39.4917 64.3808 40.3668C63.4967 41.242 63 42.429 63 43.6667V67H70.0714V48.3333H71.25V95H78.9107V68.1667H80.0893V95H87.75V48.3333H88.9286V67H96V43.6667C96 42.429 95.5033 41.242 94.6192 40.3668C93.7351 39.4917 92.536 39 91.2857 39Z" fill="#E7742E"/>
</svg>
