<svg width="16" height="10" viewBox="0 0 16 10" fill="none" xmlns="http://www.w3.org/2000/svg">
<path d="M2.45194 0.89915L8.00746 6.20254L13.563 0.89915C13.6955 0.772604 13.8529 0.672223 14.0261 0.603736C14.1993 0.53525 14.385 0.5 14.5724 0.5C14.7599 0.5 14.9455 0.53525 15.1187 0.603736C15.2919 0.672223 15.4493 0.772604 15.5819 0.89915C15.7144 1.0257 15.8196 1.17593 15.8913 1.34127C15.9631 1.50661 16 1.68382 16 1.86278C16 2.04174 15.9631 2.21895 15.8913 2.38429C15.8196 2.54964 15.7144 2.69987 15.5819 2.82641L9.00975 9.10027C8.87728 9.22698 8.71994 9.32751 8.54673 9.3961C8.37351 9.46469 8.18783 9.5 8.0003 9.5C7.81278 9.5 7.62709 9.46469 7.45388 9.3961C7.28067 9.32751 7.12332 9.22698 6.99086 9.10027L0.418732 2.82641C0.285996 2.69996 0.180688 2.54976 0.108836 2.38441C0.0369846 2.21905 0 2.0418 0 1.86278C0 1.68377 0.0369846 1.50651 0.108836 1.34116C0.180688 1.1758 0.285996 1.0256 0.418732 0.89915C0.977148 0.379745 1.89352 0.366077 2.45194 0.89915Z" fill="#E7742E"/>
</svg>
