<svg width="48" height="48" viewBox="0 0 48 48" fill="none" xmlns="http://www.w3.org/2000/svg">
<path fill-rule="evenodd" clip-rule="evenodd" d="M24 45C29.5695 45 34.911 42.7875 38.8492 38.8492C42.7875 34.911 45 29.5695 45 24C45 18.4305 42.7875 13.089 38.8492 9.15076C34.911 5.21249 29.5695 3 24 3C18.4305 3 13.089 5.21249 9.15076 9.15076C5.21249 13.089 3 18.4305 3 24C3 29.5695 5.21249 34.911 9.15076 38.8492C13.089 42.7875 18.4305 45 24 45ZM24 48C30.3652 48 36.4697 45.4714 40.9706 40.9706C45.4714 36.4697 48 30.3652 48 24C48 17.6348 45.4714 11.5303 40.9706 7.02944C36.4697 2.52856 30.3652 0 24 0C17.6348 0 11.5303 2.52856 7.02944 7.02944C2.52856 11.5303 0 17.6348 0 24C0 30.3652 2.52856 36.4697 7.02944 40.9706C11.5303 45.4714 17.6348 48 24 48Z" fill="#E7742E"/>
<path fill-rule="evenodd" clip-rule="evenodd" d="M22.9379 34.0624C22.7982 33.9231 22.6875 33.7576 22.6119 33.5753C22.5363 33.3931 22.4974 33.1977 22.4974 33.0004C22.4974 32.8031 22.5363 32.6078 22.6119 32.4255C22.6875 32.2433 22.7982 32.0778 22.9379 31.9384L30.8753 24.0004L22.9379 16.0624C22.7985 15.923 22.6879 15.7574 22.6124 15.5752C22.537 15.393 22.4982 15.1977 22.4982 15.0004C22.4982 14.8032 22.537 14.6079 22.6124 14.4257C22.6879 14.2435 22.7985 14.0779 22.9379 13.9384C23.0773 13.799 23.2428 13.6883 23.4249 13.6129C23.607 13.5374 23.8023 13.4985 23.9994 13.4985C24.1965 13.4985 24.3918 13.5374 24.5739 13.6129C24.756 13.6883 24.9215 13.799 25.0609 13.9384L34.0569 22.9384C34.1965 23.0778 34.3073 23.2433 34.3829 23.4255C34.4585 23.6078 34.4974 23.8031 34.4974 24.0004C34.4974 24.1977 34.4585 24.3931 34.3829 24.5753C34.3073 24.7576 34.1965 24.9231 34.0569 25.0624L25.0609 34.0624C24.9217 34.2021 24.7562 34.3129 24.574 34.3886C24.3919 34.4642 24.1966 34.5031 23.9994 34.5031C23.8022 34.5031 23.6069 34.4642 23.4248 34.3886C23.2426 34.3129 23.0771 34.2021 22.9379 34.0624Z" fill="#E7742E"/>
<path fill-rule="evenodd" clip-rule="evenodd" d="M13.5 24C13.5 23.6022 13.658 23.2206 13.9393 22.9393C14.2206 22.658 14.6022 22.5 15 22.5H30C30.3978 22.5 30.7794 22.658 31.0607 22.9393C31.342 23.2206 31.5 23.6022 31.5 24C31.5 24.3978 31.342 24.7794 31.0607 25.0607C30.7794 25.342 30.3978 25.5 30 25.5H15C14.6022 25.5 14.2206 25.342 13.9393 25.0607C13.658 24.7794 13.5 24.3978 13.5 24Z" fill="#E7742E"/>
</svg>
