<svg width="24" height="24" viewBox="0 0 24 24" fill="none" xmlns="http://www.w3.org/2000/svg">
<path fill-rule="evenodd" clip-rule="evenodd" d="M21.2181 23.5227C21.8545 24.1591 22.8863 24.1591 23.5227 23.5227C24.1591 22.8863 24.1591 21.8546 23.5227 21.2182L14.3046 12.0001L23.5228 2.78199C24.1591 2.14561 24.1591 1.11383 23.5228 0.477447C22.8864 -0.158935 21.8546 -0.158935 21.2182 0.477447L12.0001 9.69559L2.78182 0.477286C2.14544 -0.159095 1.11367 -0.159096 0.477285 0.477286C-0.159095 1.11367 -0.159095 2.14545 0.477285 2.78183L9.69557 12.0001L0.477383 21.2183C-0.158997 21.8547 -0.158997 22.8865 0.477383 23.5229C1.11376 24.1593 2.14554 24.1593 2.78192 23.5229L12.0001 14.3047L21.2181 23.5227Z" fill="#E7742E"/>
</svg>
