<svg width="10" height="17" viewBox="0 0 10 17" fill="none" xmlns="http://www.w3.org/2000/svg">
<path d="M4.95 0C2.21562 0 0 2.25827 0 5.05553C0 9.89223 4.95 16.2 4.95 16.2C4.95 16.2 9.9 9.89122 9.9 5.05553C9.9 2.25929 7.68438 0 4.95 0ZM4.95 7.85279C4.24108 7.85279 3.56119 7.5646 3.0599 7.0516C2.55862 6.5386 2.277 5.84282 2.277 5.11733C2.277 4.39185 2.55862 3.69607 3.0599 3.18307C3.56119 2.67008 4.24108 2.38188 4.95 2.38188C5.65892 2.38188 6.33881 2.67008 6.8401 3.18307C7.34138 3.69607 7.623 4.39185 7.623 5.11733C7.623 5.84282 7.34138 6.5386 6.8401 7.0516C6.33881 7.5646 5.65892 7.85279 4.95 7.85279Z" fill="#E7742E"/>
</svg>
