<svg width="116" height="28" viewBox="0 0 116 28" fill="none" xmlns="http://www.w3.org/2000/svg">
<path d="M115.725 1.23611C115.314 0.687058 114.903 0.275305 112.849 0.138055C112.301 0.138055 110.657 0.000502213 107.78 0.000502213C100.246 0.000502213 95.041 2.33386 92.4383 6.86335C93.1233 2.33386 88.7399 0.000502213 79.151 0.000502213C67.9185 0.000502213 60.7954 4.53 57.9188 13.7262C56.8229 17.1575 56.8229 19.9027 57.6448 22.0988H54.9051C52.8504 22.2363 50.1108 22.3734 48.33 22.3734C44.2205 22.3734 41.6179 21.687 40.659 20.3145C39.8371 19.0792 39.8371 16.7458 40.933 13.3144C42.7138 7.68691 46.9602 5.21628 53.8093 5.21628C57.3709 5.21628 60.7954 5.62817 60.7954 5.62817C61.2065 5.62817 61.4803 5.07915 61.4803 4.66741L61.343 4.25552L61.0693 2.33391C60.9321 1.09864 59.9735 0.412395 58.3297 0.13784C56.8229 0.000280411 55.5901 0.000244141 53.9463 0.000244141C53.9463 0.000244141 53.9463 0.000244141 53.809 0.000244141C44.9051 0.000244141 38.6039 3.01991 35.1794 8.7847C36.4122 2.88266 32.3027 0.000244141 22.8509 0.000244141C17.5086 0.000244141 13.6732 0.137842 11.4814 0.412171C9.70068 0.686445 8.60478 1.37297 8.19379 2.60824L7.37193 5.07886C7.23464 5.49075 7.5092 5.76512 8.05688 5.76512C8.46795 5.76512 10.1116 5.4906 12.8512 5.35323C16.5498 5.07868 19.1524 4.94131 20.9332 4.94131C26.1385 4.94131 28.4673 6.31395 27.6454 8.92178C27.5081 9.47083 27.0974 9.88254 26.4125 10.0198C21.4811 10.8433 17.5086 11.3923 14.632 11.8042C6.4131 12.9022 1.61869 15.3729 0.385831 19.4906C-1.39493 25.1181 2.98852 27.8632 13.5362 27.8632C18.7415 27.8632 23.2619 27.5886 26.8235 26.9024C28.8782 26.4905 29.9741 26.0789 30.385 24.7063L32.3027 18.3925C32.1655 24.7063 36.4122 27.8632 45.453 27.8632C49.2886 27.8632 52.9871 27.7256 54.7679 27.4513C56.5486 27.1767 57.5075 26.765 57.9184 25.3924L58.3295 23.4708C60.2473 26.4904 64.4938 28.0002 70.9319 28.0002C77.781 28.0002 81.7535 27.8627 82.8493 27.4513C83.8082 27.1767 84.3562 26.6277 84.6301 25.9414C84.6301 25.8039 84.6301 25.6669 84.7674 25.5295L85.5893 22.9217C85.7266 22.5098 85.452 22.2354 84.9044 22.2354L80.5209 22.51C77.6443 22.6475 75.3157 22.7845 73.6719 22.7845C70.5213 22.7845 68.4665 22.5099 67.2337 22.0982C65.4529 21.4119 64.631 20.1766 64.768 18.1177L78.6032 16.3334C84.7674 15.5099 89.0138 13.5883 91.0686 10.5686L86.2742 26.6276C86.1369 26.9022 86.2742 27.1767 86.4115 27.3139C86.5488 27.4515 86.8226 27.5885 87.3703 27.5885H93.1236C94.0825 27.5885 94.4935 27.0394 94.6305 26.6277L99.6988 8.92161C100.384 6.58825 102.438 5.49023 106.274 5.49023C109.698 5.49023 112.164 5.49022 113.808 5.62778H113.945C114.219 5.62778 114.767 5.49022 115.178 4.80423L116 2.33361C116 1.92172 116 1.51007 115.726 1.2356L115.725 1.23611ZM23.3992 22.3736C21.6184 22.6482 19.0158 22.7855 15.7282 22.7855C9.83799 22.7855 7.37232 21.5502 8.05722 19.2168C8.60513 17.5697 10.1119 16.4717 12.5776 16.1972L25.8649 14.4129L23.3992 22.3736ZM84.6304 8.09891C84.0824 9.88327 81.4797 11.1186 76.8223 11.8049L65.7268 13.3147L66.0008 12.3539C66.9597 9.33429 68.1926 7.41264 69.8363 6.31464C71.4801 5.21656 74.2197 4.66758 78.0553 4.66758C83.1236 4.80514 85.3154 5.90284 84.6304 8.09891H84.6304Z" fill="white"/>
</svg>
