<svg width="54" height="68" viewBox="0 0 54 68" fill="none" xmlns="http://www.w3.org/2000/svg">
<path fill-rule="evenodd" clip-rule="evenodd" d="M40.9256 0.000244141C41.3742 4.06214 39.7457 8.13735 37.3335 11.0681C34.921 13.9946 30.9632 16.2748 27.0878 15.9735C26.5568 11.9943 28.5162 7.84498 30.7498 5.25476C33.2449 2.32396 37.4507 0.140165 40.9256 0.000244141ZM52.2323 23.4451C51.6284 23.8214 45.024 27.9367 45.0975 36.2948C45.1882 46.3953 53.6708 49.8456 53.9915 49.9761C53.9958 49.9778 53.9987 49.979 54 49.9796C53.9974 49.988 53.9932 50.0018 53.9876 50.0207C53.8304 50.5444 52.4927 55.0015 49.4108 59.6015C46.6439 63.7197 43.7767 67.8251 39.2586 67.9147C37.0884 67.9542 35.6372 67.3133 34.1291 66.6473C32.5497 65.9497 30.9078 65.2246 28.3122 65.2246C25.5941 65.2246 23.8763 65.9708 22.2208 66.69C20.7858 67.3134 19.3976 67.9165 17.4453 67.9957C13.0818 68.1662 9.76317 63.5407 6.97538 59.4353C1.28277 51.0368 -3.07237 35.7022 2.77488 25.3555C5.67552 20.2142 10.8624 16.9614 16.4965 16.8761C18.9237 16.8278 21.2756 17.7789 23.3343 18.6115C24.9056 19.247 26.3061 19.8134 27.4387 19.8134C28.4549 19.8134 29.8179 19.2655 31.4075 18.6264C33.9105 17.6202 36.9752 16.3882 40.1321 16.7141C42.2971 16.8079 48.3659 17.6051 52.2655 23.4243C52.2581 23.429 52.247 23.436 52.2323 23.4451Z" fill="white"/>
</svg>
