<svg width="68" height="68" viewBox="0 0 68 68" fill="none" xmlns="http://www.w3.org/2000/svg">
<path d="M31.6191 25.5559L23.1738 32.0527C22.3078 28.8038 19.4914 26.421 16.0263 26.421H9.96304V41.364H16.0263C19.4913 41.364 22.5226 38.9808 23.1723 35.7324L31.6189 42.2291L40.0654 35.7324V41.364H49.593V38.3315H43.3139V26.4211H39.8479V32.0508L31.8349 38.5494L30.1018 37.0327L34.0014 34.0001L38.1149 30.7516L35.7335 28.8037L27.7205 35.0828L25.9884 33.5665L34.0014 27.5032L31.6182 25.5553L31.6191 25.5559ZM13.2118 29.4517H15.8109C16.3523 29.4517 16.8805 29.5752 17.3678 29.7985C17.855 30.0218 18.3003 30.3461 18.6793 30.7522C19.0583 31.1582 19.3703 31.6447 19.5869 32.1929C19.8034 32.741 19.9244 33.3509 19.9244 34.0006C19.9244 34.5962 19.816 35.1781 19.6164 35.7161C19.4167 36.2541 19.1259 36.7482 18.7605 37.1678C18.395 37.5874 17.9556 37.9329 17.4582 38.1732C16.9608 38.4134 16.4065 38.5476 15.811 38.5476H13.2119V29.4518L13.2118 29.4517ZM60.4218 38.3324V41.3643H50.8933V26.4213H54.3583V38.3317H60.422L60.4218 38.3324ZM34 0.000244141C15.3756 0.000244141 0 15.3758 0 34.0002C0 52.6247 15.1593 68.0002 34 68.0002C52.8407 68.0002 68 52.841 68 34.0002C68 15.1595 52.6244 0.000244141 34 0.000244141ZM34 3.46626C36.1114 3.46624 38.1714 3.67817 40.161 4.08421C42.1507 4.49026 44.0705 5.0891 45.8977 5.86062C47.7249 6.63211 49.4607 7.57733 51.0848 8.67364C52.709 9.76995 54.2217 11.0174 55.6023 12.398C56.9829 13.7786 58.2302 15.2913 59.3266 16.9154C60.4229 18.5396 61.3681 20.2753 62.1396 22.1025C62.9111 23.9297 63.5099 25.8497 63.916 27.8393C64.3221 29.8289 64.534 31.8888 64.534 34.0002C64.534 36.1116 64.3221 38.1717 63.916 40.1612C63.51 42.1509 62.9111 44.0708 62.1396 45.898C61.3681 47.7252 60.4229 49.4609 59.3266 51.0851C58.2303 52.7092 56.9829 54.2219 55.6023 55.6025C54.2217 56.9831 52.709 58.2304 51.0848 59.3268C49.4607 60.4232 47.7249 61.3684 45.8977 62.1399C44.0705 62.9114 42.1506 63.5102 40.161 63.9163C38.1713 64.3223 36.1114 64.5342 34 64.5342C31.8886 64.5342 29.8286 64.3223 27.839 63.9163C25.8491 63.513 23.929 62.9142 22.1015 62.1426C20.275 61.371 18.5391 60.4256 16.9146 59.3291C15.2902 58.2336 13.7781 56.9859 12.3973 55.6052C11.0166 54.2244 9.76896 52.7123 8.67302 51.0879C7.57671 49.4634 6.63151 47.7276 5.85999 45.901C5.08848 44.0735 4.4897 42.1535 4.08359 40.1635C3.67757 38.1745 3.46564 36.1147 3.46564 34.0029C3.46564 31.8911 3.67757 29.8313 4.08359 27.8423C4.48961 25.8523 5.08848 23.9323 5.85999 22.1048C6.63151 20.2782 7.57671 18.5423 8.67302 16.9179C9.76896 15.2934 11.0166 13.7814 12.3973 12.4006C13.7781 11.0198 15.2902 9.77222 16.9146 8.67629C18.5391 7.57998 20.275 6.63478 22.1015 5.86326C23.929 5.09174 25.8491 4.49297 27.839 4.08685C29.828 3.68084 31.8878 3.46891 33.9996 3.46891L34 3.46626Z" fill="white"/>
</svg>
