<svg width="68" height="68" viewBox="0 0 68 68" fill="none" xmlns="http://www.w3.org/2000/svg">
<path fill-rule="evenodd" clip-rule="evenodd" d="M34 0.000244141C52.7784 0.000244141 68 15.2218 68 34.0002C68 52.7774 52.7784 68.0002 34 68.0002C33.6625 68.0002 33.3251 67.9938 32.9902 67.9847L39.9384 48.8883H49.5009C51.1791 48.8883 53.0215 47.5979 53.5955 46.0206L61.1333 25.3144C62.3667 21.9256 60.4261 19.151 56.8188 19.151H43.5521L32.4213 49.7377H32.4162L26.1067 67.0771C11.1359 63.5177 0 50.0596 0 34.0002C0 18.4037 10.5024 5.26115 24.8202 1.25567L18.3091 19.151H18.3078L7.48344 48.8883H14.6889L23.8945 23.6194H29.3106L20.105 48.8883L27.3078 48.8896L35.8864 25.3144C37.1198 21.9256 35.1779 19.151 31.5745 19.151H25.5171L32.4718 0.0364458C32.9786 0.0131732 33.488 0.000244141 34 0.000244141ZM49.1595 23.6014H54.573L46.9913 44.4032H41.5778L49.1595 23.6014Z" fill="white"/>
</svg>
