<svg width="134" height="32" viewBox="0 0 134 32" fill="none" xmlns="http://www.w3.org/2000/svg">
<path fill-rule="evenodd" clip-rule="evenodd" d="M18.3916 24.8055C18.4159 24.8602 18.4018 24.9237 18.3559 24.9618L18.3572 24.9631C18.3112 25.0088 18.2385 25.0203 18.1811 24.9885C16.3497 24.0877 8.47824 20.106 5.22779 16.9513C3.97102 15.8746 3.1941 14.346 3.06721 12.7002C2.80304 9.16819 6.5295 5.6489 6.5295 5.6489C11.2174 11.5542 15.1982 17.9831 18.3916 24.8055ZM17.0746 27.5752C17.1048 27.5966 17.1275 27.6268 17.1397 27.6616L17.1282 27.6629C17.1282 27.6629 17.1627 27.7341 17.0644 27.823V27.8268C15.7933 28.7403 11.8933 31.4477 10.173 31.8759C7.69338 32.4768 5.28522 30.5177 3.86483 27.9945L16.9712 27.5397V27.5422C17.0083 27.5423 17.0444 27.5538 17.0746 27.5752ZM17.2865 26.2984C17.2865 26.2984 17.4013 26.3873 17.3375 26.489L17.335 26.4877C17.3082 26.5385 17.2571 26.5728 17.1997 26.5792L17.0384 26.5799C14.7934 26.5897 7.56217 26.6214 7.37051 26.5842C6.51084 26.5365 5.66452 26.3512 4.86408 26.0354C3.04186 25.3058 1.56535 23.9154 0.732377 22.1447C-0.100595 20.3739 -0.228043 18.3545 0.37574 16.4939C0.37574 16.4939 11.5449 22.431 17.2877 26.2933L17.2865 26.2984ZM16.0971 0.414428C16.0971 0.414428 17.6361 0.0663116 18.2079 0.0154915L18.2091 0.000244141C18.2091 0.000244141 22.0709 4.98951 20.1872 23.7586H20.1847C20.1885 23.8349 20.1375 23.9035 20.0634 23.9213C20.0634 23.9213 19.992 23.953 19.9052 23.8666C18.6826 22.1032 12.9819 13.695 11.8244 8.57995C11.453 7.22617 11.4468 5.79883 11.8065 4.44192C12.4433 2.45359 14.0641 0.930252 16.0971 0.414428ZM22.7332 23.8463C22.6975 23.9149 22.6158 23.9454 22.5443 23.9162V23.9149C22.4831 23.8933 22.4435 23.8361 22.4422 23.7726H22.4397C20.5509 4.99205 24.4356 0.0142217 24.4356 0.0142217C25.4974 0.162871 26.4992 0.414428 26.4992 0.414428C27.5061 0.662754 28.4325 1.16309 29.1905 1.86796C29.9486 2.57282 30.5131 3.45883 30.8306 4.44192C31.1611 5.80263 31.1535 7.22305 30.8089 8.57995C29.6578 13.6734 23.9928 22.0346 22.7345 23.8463H22.7332ZM25.4974 27.6527C25.5179 27.5689 25.6455 27.5536 25.6455 27.5536L25.648 27.5473L38.7698 28.0047C35.8281 33.0359 32.4399 31.8873 32.4399 31.8873C30.6022 31.388 26.7991 28.7263 25.5485 27.8306C25.5013 27.7849 25.4821 27.7163 25.4974 27.6527ZM25.3583 26.2857C31.1203 22.4157 42.2614 16.4647 42.2614 16.4647V16.4634C42.8435 18.2883 42.7392 20.2616 41.9679 22.0155C41.146 23.8552 39.6312 25.2985 37.7488 26.0328C37.0266 26.3159 36.2662 26.4906 35.4925 26.5512L25.4285 26.5766V26.5741C25.3481 26.5741 25.2932 26.4763 25.2932 26.4763C25.2835 26.4417 25.2845 26.4049 25.2961 26.3709C25.3077 26.3369 25.3294 26.3072 25.3583 26.2857ZM24.4841 24.9885C24.4267 25.019 24.3565 25.0139 24.3055 24.9758L24.3195 24.9745C24.2634 24.9186 24.2493 24.836 24.2838 24.7662H24.28C27.4701 17.9619 31.4445 11.5502 36.1229 5.66034C36.1229 5.66034 39.8047 9.03987 39.5686 12.6926C39.4416 14.3434 38.6657 15.8778 37.4093 16.9627C34.1742 20.1009 26.3601 24.0559 24.4841 24.9885ZM48.719 22.7658H51.8457V17.0473H58.8034V22.7645H61.9301V9.10407H58.8034V14.6397H51.8457V9.10407H48.719V22.7658ZM70.9514 20.7076C68.3659 20.7076 67.6002 19.7013 67.6002 17.2848L67.5861 9.1028H64.4812V17.3611C64.4812 19.0915 64.6496 20.2947 65.3336 21.029C66.5537 22.3656 68.3544 22.9157 70.9387 22.9157C73.5229 22.9157 75.3006 22.3656 76.5258 21.029C77.2468 19.9491 77.5544 18.6481 77.3936 17.3611V9.1028H74.2695V17.2848C74.2695 19.6912 73.537 20.7076 70.9514 20.7076ZM93.9444 22.7645L87.6146 9.1028H84.299L78.0138 22.7645H81.3357L82.6591 19.5095H89.1166L90.4821 22.7645H93.9444ZM88.0906 17.0765H83.6622L85.8356 11.8268L88.0906 17.0765ZM110.518 22.7645L115.113 9.10407L111.93 9.11805L108.723 19.62L105.394 9.11805H101.71L98.8131 19.62L95.3674 9.11805H92.011L96.9588 22.7785H100.768L103.538 12.5802L106.69 22.7645H110.518ZM127.979 14.6587H119.33L119.319 14.6485C119.446 12.4989 120.584 11.4736 122.835 11.4748H127.965V9.09391H122.775C117.995 9.09391 115.781 11.3427 115.781 16.1706C115.689 17.1848 115.848 18.2061 116.245 19.1448C116.641 20.0836 117.263 20.9111 118.055 21.555C119.411 22.4825 121.052 22.9055 122.69 22.7531H127.966V20.3734H122.836C120.373 20.3734 119.318 19.4815 119.301 17.0269H127.979V14.6587ZM134 9.10407H130.733V22.7658H134V9.10407Z" fill="white"/>
</svg>
