<svg width="128" height="26" viewBox="0 0 128 26" fill="none" xmlns="http://www.w3.org/2000/svg">
<path fill-rule="evenodd" clip-rule="evenodd" d="M5.58757 20.6832H18.1167V25.6644H0V0.000244141H5.58757V20.6832ZM25.1335 11.8606C26.0724 10.6202 27.5676 9.89191 29.3736 9.89191C31.36 9.89191 32.8672 11.0083 33.6464 12.6563L24.0153 16.5884C23.7524 14.5705 24.2772 12.9921 25.1335 11.8606ZM35.724 19.5901C33.404 21.2798 32.0783 21.6829 29.9626 21.6829C28.0588 21.6829 26.5679 21.1012 25.5171 20.081L39.6099 14.3277C39.3024 12.1836 38.4754 10.2683 37.203 8.81183C35.3513 6.69552 32.6108 5.57588 29.2737 5.57588C23.2123 5.57588 18.6418 9.97639 18.6418 15.7885C18.6418 21.7514 23.2232 26 29.8811 26C33.6116 26 37.4257 24.2601 39.21 22.2272L35.724 19.5901ZM47.1022 8.74269C48.7083 6.63173 51.3369 5.57731 53.6482 5.57731C58.4979 5.57731 61.8014 8.87422 61.8014 13.418V25.6646H56.2888V14.4233C56.2888 11.8108 53.9286 10.2495 51.6477 10.2495C48.6963 10.2495 47.1022 12.4 47.1022 14.4233V25.6646H41.5907V5.90882H47.1033L47.1022 8.73948L47.1033 8.73841L47.1022 8.74269ZM95.9966 19.3666L100.98 5.90952H107.276L99.0164 25.6589H92.9757L84.7161 5.90952H91.0132L95.9966 19.3666ZM117.175 10.2245C114.096 10.2245 111.861 12.5205 111.861 15.7864C111.861 18.9047 114.229 21.3482 117.249 21.3482C120.328 21.3482 122.562 18.9892 122.562 15.7864C122.562 12.668 120.196 10.2245 117.175 10.2245ZM117.175 25.9968C111.146 25.9968 106.422 21.5771 106.422 15.7864C106.422 10.0609 111.179 5.57588 117.249 5.57588C123.277 5.57588 128 9.99564 128 15.7864C128 21.5108 123.245 25.9968 117.175 25.9968ZM69.4208 15.7864C69.4208 12.5205 71.6549 10.2245 74.7334 10.2245C77.7543 10.2245 80.121 12.668 80.121 15.7864C80.121 18.9892 77.8869 21.3482 74.8084 21.3482C71.7875 21.3482 69.4208 18.9047 69.4208 15.7864ZM63.9821 15.7864C63.9821 21.5771 68.7047 25.9968 74.7334 25.9968C80.8034 25.9968 85.5597 21.5108 85.5597 15.7864C85.5597 9.99564 80.836 5.57588 74.8084 5.57588C68.7373 5.57588 63.9821 10.0609 63.9821 15.7864Z" fill="white"/>
</svg>
