<svg width="116" height="52" viewBox="0 0 116 52" fill="none" xmlns="http://www.w3.org/2000/svg">
<path fill-rule="evenodd" clip-rule="evenodd" d="M25.5516 52.0002C39.6641 52.0002 51.1033 40.3548 51.1033 26.0018C51.1033 11.6395 39.6641 0.000244141 25.5516 0.000244141C11.4392 0.000244141 0 11.6395 0 26.0018C0 40.3548 11.4392 52.0002 25.5516 52.0002ZM24.5372 14.5862V37.3808H31.6537V35.3439H26.5662V14.5862H24.5372ZM20.4612 17.6954C20.4612 19.4107 19.0855 20.8104 17.3937 20.8104C15.7079 20.8104 14.3322 19.4107 14.3322 17.6954C14.3322 15.9771 15.7079 14.5804 17.3937 14.5804C19.0855 14.5804 20.4612 15.9771 20.4612 17.6954ZM26.5661 4.24555C26.3102 4.2333 25.8015 4.23024 25.5516 4.23024C13.7662 4.23024 4.17228 13.9919 4.17228 25.9926C4.17228 31.8031 6.38487 37.2674 10.4217 41.3749C14.4736 45.4915 19.847 47.755 25.5516 47.755C31.2592 47.755 36.6326 45.4915 40.6785 41.3749C44.7154 37.2674 46.934 31.8031 46.934 25.9926V25.0033H46.079H31.6686V27.0279H44.905V27.3189C44.2247 37.5798 35.8018 45.7181 25.5516 45.7181C20.3769 45.7181 15.5122 43.669 11.8456 39.9444C8.18203 36.2168 6.16512 31.2609 6.16512 25.9926C6.16512 20.7274 8.18203 15.7684 11.8456 12.0408C15.5122 8.31011 20.3769 6.26098 25.5516 6.26098C25.7864 6.26098 26.3343 6.26711 26.5661 6.27324V4.24555ZM102.755 29.9959H108.971V35.8707C107.824 36.3179 105.59 36.7589 103.462 36.7589C96.5955 36.7589 94.3046 33.209 94.3046 26.0018C94.3046 19.1254 96.4841 15.0762 103.351 15.0762C107.171 15.0762 109.35 16.2953 111.147 18.6231L115.892 14.1879C113.002 9.97329 107.932 8.6991 103.191 8.6991C92.5044 8.6991 86.8902 14.629 86.8902 25.9436C86.8902 37.2061 91.9595 43.3076 103.134 43.3076C108.257 43.3076 113.276 41.9752 116 40.0332V23.7291H102.755V29.9959ZM71.9589 42.8085H85.9629V36.2599H70.1527V9.19859H62.5275V42.8085H71.9589Z" fill="white"/>
</svg>
