<svg width="68" height="68" viewBox="0 0 68 68" fill="none" xmlns="http://www.w3.org/2000/svg">
<path fill-rule="evenodd" clip-rule="evenodd" d="M2.58146 68.0002H65.4185C66.8442 68.0002 67.9999 66.8445 67.9999 65.4188V2.58107C67.9999 1.15529 66.8442 0.000244141 65.4185 0.000244141H2.58146C1.15569 0.000244141 0 1.15529 0 2.58107V65.4188C0 66.8445 1.15569 68.0002 2.58146 68.0002ZM47.9716 21.3889H53.3213C53.5484 21.3889 53.7364 21.5712 53.7364 21.7957V46.2044C53.7364 46.4269 53.5484 46.6091 53.3213 46.6091H47.9716C47.7425 46.6091 47.5571 46.4269 47.5571 46.2044V21.7957C47.5571 21.5712 47.7425 21.3889 47.9716 21.3889ZM35.0549 21.3848H14.6771C14.4481 21.3848 14.2639 21.567 14.2639 21.7915V46.2002C14.2639 46.4228 14.4481 46.605 14.6771 46.605H20.0282C20.2559 46.605 20.4446 46.4228 20.4446 46.2002V27.043C20.4446 26.8217 20.6288 26.6382 20.8578 26.6382H32.3843C35.6256 26.6382 36.5458 29.1208 36.5458 30.7223V46.2002C36.5458 46.4228 36.7319 46.605 36.9609 46.605H42.3087C42.5365 46.605 42.7232 46.4228 42.7232 46.2002V28.8846C42.7232 27.4562 42.5514 25.4025 40.7085 23.5947C38.7804 21.7076 37.0215 21.3848 35.0549 21.3848ZM25.6898 31.1097H31.3076C31.5347 31.1097 31.7208 31.2919 31.7208 31.5151V46.205C31.7208 46.4269 31.5347 46.6091 31.3076 46.6091H25.6898C25.4608 46.6091 25.2727 46.4269 25.2727 46.205V31.5151C25.2727 31.2919 25.4608 31.1097 25.6898 31.1097Z" fill="white"/>
</svg>
