<svg width="128" height="25" viewBox="0 0 128 25" fill="none" xmlns="http://www.w3.org/2000/svg">
<path d="M43.4222 1.0479H36.5454V10.2046H29.3868V1.0479H22.5099V24.0854H29.3868V15.0236H36.5454V24.0854H43.4222V1.0479ZM67.344 19.4563V1.0479H60.4671V24.0854H72.9018L73.9359 19.4563H67.344ZM55.3831 1.0479H48.5062V24.0854H55.3831V1.0479ZM83.262 1.0479H76.3883V24.0854H83.262V1.0479ZM117.166 6.92758C117.166 5.67373 118.392 5.09428 120.368 5.09428C122.535 5.09428 124.891 5.57879 126.492 6.25646L125.929 1.24105C124.136 0.854742 122.535 0.56665 119.618 0.56665C114.061 0.56665 110.292 2.80919 110.292 7.50705C110.292 15.6031 121.034 13.9662 121.034 17.7245C121.034 19.1682 119.993 19.9375 117.451 19.9375C115.194 19.9375 111.704 19.1682 109.633 18.1075L110.388 23.411C112.46 24.1836 115.284 24.5667 117.547 24.5667C123.291 24.5667 128 22.6384 128 16.8537C128 9.1472 117.166 10.5909 117.166 6.92758ZM97.768 18.592C104.168 18.592 108.221 15.2168 108.221 9.33708C108.221 2.88121 103.889 0.56665 96.8236 0.56665C94.0927 0.56665 90.7951 0.759804 88.442 1.0479V24.0854H95.3189V18.592H97.768ZM101.44 9.43529C101.44 12.421 100.028 14.4474 96.4458 14.4474H95.3189V4.92731C95.7191 4.9044 96.0936 4.90439 96.4458 4.90439C99.8362 4.90439 101.44 6.54128 101.44 9.43529ZM9.32603 18.592C15.7291 18.592 19.779 15.2168 19.779 9.33708C19.779 2.88121 15.4473 0.56665 8.38478 0.56665C5.65068 0.56665 2.35632 0.759804 0 1.0479V24.0854H6.87687V18.592H9.32603ZM13.0014 9.43529C13.0014 12.421 11.5863 14.4474 8.00701 14.4474H6.87687V4.92731C7.27706 4.9044 7.65484 4.90439 8.00701 4.90439C11.3974 4.90439 13.0014 6.54128 13.0014 9.43529Z" fill="white"/>
</svg>
