<svg width="134" height="21" viewBox="0 0 134 21" fill="none" xmlns="http://www.w3.org/2000/svg">
<path d="M110.919 16.0233H110.815L106.41 0.627609H99.3026V20.0368H104.01L103.745 4.10915H103.849L108.58 20.0368H115.399V0.626654H110.659L110.919 16.0233ZM20.5015 0.626654L16.9561 20.2411H22.1298L24.7513 2.43713H24.8606L27.4127 20.2421H32.5559L29.0267 0.626654H20.5015ZM49.4408 0.628564L47.0759 15.6252H46.9685L44.615 0.628564H36.8047L36.3808 20.2411H41.1694L41.2892 2.60328H41.3975L44.596 20.2411H49.4531L52.6525 2.60901L52.759 2.60328L52.8835 20.2411H57.6741L57.2511 0.628564H49.4408ZM5.09188 5.67231C5.00158 5.27125 5.02344 4.8702 5.07192 4.64866C5.20974 4.01843 5.62417 3.32805 6.82276 3.32805C7.94626 3.32805 8.60021 4.0404 8.60021 5.10415V6.3159H13.3822V4.94659C13.3822 0.667714 9.63532 0.000244141 6.92256 0.000244141C3.51879 0.000244141 0.739497 1.15853 0.227172 4.35837C0.0874469 5.21778 0.0703377 6.00556 0.273747 6.99865C1.10544 11.0073 7.90824 12.1684 8.89582 14.7037C9.08117 15.1764 9.02129 15.7894 8.93004 16.1599C8.77511 16.8016 8.34452 17.4691 7.06609 17.4691C5.87035 17.4691 5.14036 16.7672 5.14036 15.6968L5.13751 13.7937H0.00285153L0 15.31C0 19.6854 3.361 21.0002 6.96058 21.0002C10.4299 21.0002 13.2739 19.799 13.7339 16.5247C13.9677 14.8269 13.7957 13.7135 13.713 13.2981C12.9022 9.18918 5.63842 7.97455 5.09188 5.67231ZM67.3978 5.71814C67.3037 5.32664 67.3303 4.9294 67.375 4.71264C67.509 4.08623 67.9196 3.40348 69.1078 3.40348C70.2179 3.40348 70.87 4.10533 70.87 5.15476V6.35792H75.6007V5.00102C75.6007 0.774662 71.888 0.109102 69.2104 0.109102C65.8361 0.109102 63.0806 1.2416 62.5797 4.4214C62.4399 5.27698 62.4181 6.05904 62.6234 7.0378C63.4475 11.0044 70.1828 12.157 71.1628 14.6645C71.3414 15.1372 71.2873 15.7397 71.1998 16.1074C71.0439 16.7538 70.6134 17.4013 69.353 17.4013C68.1629 17.4013 67.4463 16.7099 67.4463 15.6509L67.4425 13.7622H62.3534V15.2652C62.3534 19.5956 65.685 20.8952 69.2494 20.8952C72.676 20.8952 75.4961 19.7045 75.9476 16.4645C76.1795 14.7887 76.0085 13.6848 75.9277 13.2713C75.1245 9.20636 67.9301 7.99843 67.3978 5.71814ZM89.116 15.1324C89.1198 15.3817 89.1122 15.67 89.0713 15.8801C88.9763 16.3681 88.5666 17.2914 87.2349 17.2914C85.908 17.2914 85.4936 16.3681 85.3985 15.8801C85.3577 15.67 85.3482 15.3817 85.3501 15.1324V0.624744H80.5101V14.6827C80.5025 15.0465 80.5376 15.7827 80.5547 15.9785C80.8836 19.6347 83.7123 20.816 87.234 20.816C90.7518 20.816 93.5796 19.6347 93.9189 15.9785C93.936 15.7827 93.9731 15.0455 93.9674 14.6827V0.624744H89.115V15.1324H89.116ZM127.222 9.214V12.0863H129.183V14.9309C129.189 15.1783 129.179 15.4514 129.138 15.6758C129.053 16.2038 128.564 17.0947 127.183 17.0947C125.798 17.0947 125.311 16.2029 125.222 15.6758C125.185 15.4514 125.174 15.1783 125.179 14.9309V5.95686C125.179 5.63793 125.199 5.28939 125.257 5.03635C125.359 4.55317 125.771 3.6126 127.164 3.6126C128.629 3.6126 128.991 4.60569 129.078 5.03635C129.134 5.30849 129.138 5.77735 129.138 5.77544V6.88025H133.965V6.22519C133.963 6.22519 133.982 5.55485 133.926 4.94277C133.571 1.25402 130.595 0.0928687 127.204 0.0928687C123.811 0.0928687 120.905 1.26357 120.484 4.94277C120.443 5.25979 120.4 5.87665 120.4 6.22519L120.398 14.4774C120.4 14.8469 120.412 15.12 120.465 15.7732C120.78 19.3445 123.811 20.624 127.2 20.624C130.591 20.624 133.622 19.3445 133.939 15.7732C133.991 15.1191 133.999 14.846 134 14.4774V9.214H127.222Z" fill="white"/>
</svg>
