<svg width="116" height="21" viewBox="0 0 116 21" fill="none" xmlns="http://www.w3.org/2000/svg">
<path d="M41.3258 21C37.1237 21 33.2231 19.7042 30.6193 17.3012C28.6522 15.4857 27.707 13.0197 27.707 10.4816C27.707 7.97434 28.693 5.49131 30.6191 3.68539C33.0372 1.41936 37.3063 0.000244141 41.3258 0.000244141C45.7739 0.000244141 49.334 1.1523 52.0556 3.69161C53.9919 5.4985 54.9281 7.97051 54.9281 10.4818C54.9281 12.916 53.9346 15.5082 52.0556 17.3012C49.5213 19.7198 45.5386 21 41.3258 21V18.2303C43.5561 18.2303 45.625 17.4384 47.0699 15.9602C48.5048 14.492 49.1733 12.6872 49.1733 10.4816C49.1733 8.36858 48.4521 6.39308 47.0699 4.99193C45.6444 3.54815 43.5261 2.73572 41.3258 2.73572C39.1188 2.73572 36.9991 3.53976 35.5724 4.99193C34.1976 6.3926 33.4746 8.37385 33.4746 10.4816C33.4746 12.5828 34.206 14.5629 35.5724 15.9604C37.0003 17.421 39.1125 18.2305 41.3258 18.2305V21.0002V21ZM10.6128 0.0103037C8.36505 0.0103037 5.81141 0.442624 3.64166 1.439C1.63914 2.35777 4.74592e-07 3.84371 4.74592e-07 6.30709C-0.000931252 8.5257 1.37034 9.82506 1.33307 9.78913C1.91633 10.3412 2.85528 11.2813 5.31015 11.8334C6.40725 12.0801 8.75288 12.459 11.0887 12.71C13.4073 12.9615 15.6891 13.2005 16.6185 13.4424C17.3569 13.6357 18.5973 13.8989 18.5973 15.3298C18.5973 16.7549 17.2905 17.1898 17.0634 17.2842C16.8365 17.3764 15.2689 18.116 12.4509 18.116C10.3704 18.116 7.86913 17.4727 6.95744 17.1374C5.90645 16.7527 4.80398 16.244 3.77559 14.9523C3.51983 14.6321 3.11639 13.7514 3.11639 12.8793H0.566025V20.2276H3.4008V19.2348C3.4008 19.1217 3.53823 18.6569 4.01411 18.8779C4.60623 19.1546 6.34436 19.8661 8.1617 20.2563C9.65176 20.5768 10.6126 20.8065 12.4651 20.8065C15.4876 20.8065 17.1114 20.3001 18.2339 19.9706C19.2914 19.6592 20.5982 19.1002 21.6596 18.2298C22.2345 17.7592 23.4951 16.5527 23.4951 14.3629C23.4951 12.2609 22.398 10.9563 22.012 10.5594C21.4863 10.0186 20.8441 9.59944 20.1749 9.27633C19.5919 8.99419 18.6718 8.65528 17.919 8.46582C16.4578 8.09697 13.1539 7.6419 11.5739 7.47184C9.91707 7.29389 7.04292 7.0491 5.89504 6.68385C5.54704 6.57295 4.83753 6.22542 4.83753 5.3785C4.83753 4.77613 5.162 4.26549 5.80326 3.85281C6.82117 3.19702 8.87726 2.78937 11.0205 2.78937C13.5543 2.77979 15.7001 3.37546 17.065 4.00298C17.5293 4.21615 18.0725 4.52224 18.5039 4.88439C18.9907 5.29252 19.6741 6.14063 19.9213 7.32359H22.211V0.927158H19.6543V1.67061C19.6543 1.9106 19.4132 2.22244 18.9574 1.96473C17.8132 1.3475 14.5783 0.0158125 10.6124 0.0103037H10.6128ZM66.6408 1.17266L79.1125 12.7459L78.9844 4.95385C78.9718 3.93209 78.7887 3.50551 77.7139 3.50551H75.369V1.17458H86.0326V3.50551H83.7452C82.6491 3.50551 82.5799 3.86598 82.5666 4.95385L82.7599 19.8427H79.108L64.7431 6.6599L64.7462 16.0157C64.7588 17.0327 64.8051 17.5117 65.8242 17.5117H68.3853V19.8417H57.9127V17.512H60.3608C61.2753 17.512 61.2389 16.6155 61.2389 15.9628V5.04247C61.2389 4.33758 61.1427 3.50719 59.7069 3.50719H57.7205V1.17266H66.6408ZM98.218 17.5074C98.3182 17.5074 98.7631 17.4943 98.8492 17.4672C99.0954 17.3882 99.2625 17.2076 99.3398 17.0193C99.3724 16.9403 99.3887 16.5906 99.3887 16.5146L99.3906 12.8309C99.3906 12.7423 99.3843 12.704 99.238 12.5066C99.0773 12.2911 92.7054 4.86619 92.4138 4.53925C92.0516 4.13328 91.4157 3.50575 90.4495 3.50575H88.2336V1.17386H100.739V3.50288H99.2315C98.8828 3.50288 98.651 3.84299 98.9489 4.22094C98.9489 4.22094 103.156 9.39609 103.196 9.45022C103.235 9.50531 103.269 9.51848 103.322 9.46818C103.375 9.41669 107.635 4.26836 107.669 4.22764C107.872 3.97807 107.734 3.50551 107.297 3.50551H105.751V1.17386H116V3.50551H113.71C112.88 3.50551 112.542 3.66359 111.917 4.39003C111.631 4.72248 105.191 12.2808 105.016 12.4856C104.924 12.5926 104.932 12.7418 104.932 12.8305V16.5137C104.932 16.5884 104.948 16.9386 104.981 17.0171C105.059 17.2064 105.226 17.387 105.472 17.465C105.559 17.4923 105.997 17.5058 106.097 17.5058H108.44V19.8372H95.9986V17.5055L98.2185 17.5074H98.218Z" fill="white"/>
</svg>
