<svg width="134" height="20" viewBox="0 0 134 20" fill="none" xmlns="http://www.w3.org/2000/svg">
<path d="M28.9021 0.00434445C22.9475 0.00434445 20.0916 1.02999 19.6771 6.28537C19.5891 7.52435 19.5472 8.76332 19.5682 10.0023C19.5682 11.2002 19.5891 12.4597 19.6771 13.7192C20.0916 18.9746 22.9475 20.0002 28.8812 20.0002C34.8358 20.0002 37.7126 18.9746 38.1063 13.7192C38.2151 12.4597 38.2361 11.1961 38.2361 10.0023C38.2361 8.80845 38.2151 7.54486 38.1063 6.28537C37.7126 1.02999 34.8358 0.00434445 28.9021 0.00434445ZM50.0574 0.00434445C47.7668 0.00434445 45.4763 0.217679 44.5592 0.664858C42.7502 1.51819 41.5065 2.73665 41.5065 6.24024C41.5065 8.29153 42.0718 9.82999 43.1438 10.5972C44.7141 11.75 46.2426 11.8567 50.451 12.07C52.1721 12.1561 53.0891 12.4967 53.0891 13.9285C53.0891 15.7459 51.4518 15.7459 49.9276 15.7459C48.3782 15.7459 47.9008 15.6187 47.3774 15.2126C46.8958 14.872 46.7869 14.2526 46.7869 13.309H41.4646C41.4646 15.9797 41.5316 18.1582 44.1028 19.2495C46.3933 20.2341 53.4158 20.2341 55.5304 19.3151C57.3646 18.5233 58.6711 17.4772 58.6711 13.8874C58.6711 11.4095 58.1686 9.87101 56.2046 8.73871C54.8311 7.9264 50.9284 7.81973 48.9644 7.69255C47.5239 7.6064 46.9796 7.09358 46.9796 5.83409C46.9796 4.20948 48.5708 4.16845 49.9443 4.16845C51.0582 4.16845 51.8413 4.2546 52.3856 4.7223C52.6034 4.93563 52.8672 5.27614 52.8881 6.40845H58.1644C58.1644 4.18486 58.0764 1.77255 55.6351 0.660754C54.6553 0.234087 52.3438 0.000244141 50.0532 0.000244141L50.0574 0.00434445ZM62.3812 0.344858V19.6597H67.9212V12.2013H74.3784V19.6597H79.9394V0.344858H74.3784V7.39717H67.9212V0.344858H62.3812ZM84.822 0.344858V19.6597H90.4291V0.344858H84.822ZM95.3996 0.344858V19.6597H105.935C110.776 19.6597 112.413 17.6084 112.413 14.4454C112.413 12.2669 111.89 10.3223 108.816 9.57153C111.304 8.93153 112.024 7.47922 112.024 5.38281C112.024 1.15306 109.319 0.340758 105.437 0.340758L95.3996 0.344858ZM119.804 0.344858L113.85 19.6597H119.628L120.675 16.07H127.153L128.221 19.6597H134L128.024 0.344858H119.804ZM0.0041875 0.344858V5.17358H5.89181V19.6597H11.7794V5.17358H17.6671V0.365371H0L0.0041875 0.344858ZM28.9021 4.50896C31.2346 4.50896 32.4364 4.87409 32.5871 7.84435C32.6081 8.31614 32.629 8.93563 32.629 10.0023C32.629 11.069 32.6081 11.6884 32.5871 12.1602C32.4364 15.1305 31.2346 15.4956 28.9021 15.4956C26.5697 15.4956 25.3469 15.1305 25.2171 12.1602C25.1697 11.4419 25.1557 10.7219 25.1753 10.0023C25.1753 8.93563 25.1752 8.31614 25.2171 7.84435C25.3469 4.87409 26.5697 4.50896 28.9021 4.50896ZM100.94 4.76742H104.801C105.806 4.76742 106.438 5.23922 106.438 6.37152C106.438 7.33152 105.806 7.90999 104.801 7.90999H100.94V4.76742ZM123.908 5.10794H123.929L125.914 11.7951H121.944L123.908 5.10794ZM100.961 11.7131H104.801C106.371 11.7131 106.677 12.3982 106.677 13.4854C106.677 14.5726 106.065 15.2372 104.801 15.2372H100.94V11.7131H100.961Z" fill="white"/>
</svg>
