<svg width="116" height="27" viewBox="0 0 116 27" fill="none" xmlns="http://www.w3.org/2000/svg">
<path fill-rule="evenodd" clip-rule="evenodd" d="M78.4354 0.000244141C76.2969 2.16148 75 4.04173 75 9.51579V26.3923H79.6842V9.28242C79.6842 6.5954 79.8774 5.30285 81.2271 3.89695L78.4354 0.000244141ZM59.6302 20.9214C62.2278 24.8581 65.4983 26.3136 69.0826 26.3136V22.0158C66.5605 22.0158 64.814 20.6166 62.9874 17.762C62.3016 16.6958 61.5617 15.52 60.7588 14.2441C59.4091 12.0992 57.8813 9.67134 56.1326 7.00529C53.356 2.75044 49.9781 0.83114 46.0082 0.83114C42.0299 0.83114 38.6558 2.75044 35.8848 7.00529C34.0908 9.74614 32.5262 12.2353 31.1505 14.424C30.392 15.6307 29.6909 16.7461 29.0404 17.762C27.2016 20.6166 25.4476 21.9749 22.9292 21.9749C20.4127 21.9749 18.6606 20.6166 16.8321 17.762C15.7629 16.105 14.6177 14.3683 13.3014 12.3721C12.347 10.9247 11.3025 9.34084 10.1319 7.55203C7.35434 3.29909 3.97642 1.37693 0 1.37693V5.7537C2.75588 5.7537 4.35719 7.13007 6.07443 9.69803C7.07159 11.1988 8.48714 13.3502 10.0009 15.6508C11.1484 17.3947 12.3522 19.2244 13.4731 20.9214C16.0744 24.8581 19.3383 26.3136 22.9292 26.3136C26.5305 26.3136 29.7887 24.8581 32.3891 20.9214C33.7174 18.9059 35.2046 16.5596 36.5767 14.3949L36.5768 14.3948C37.884 12.3326 39.0867 10.4351 39.948 9.14557C41.652 6.57571 43.2599 5.25268 46.0082 5.25268C48.7613 5.25268 50.3617 6.57571 52.0676 9.14557C52.9155 10.4165 54.096 12.2779 55.3819 14.3057L55.3824 14.3063L55.3826 14.3067C56.7708 16.4957 58.2819 18.8785 59.6302 20.9214ZM49.7362 18.0925C49.7362 20.0547 48.166 21.6492 46.2179 21.6492C44.2716 21.6492 42.6967 20.0547 42.6967 18.0925C42.6967 16.1294 44.2716 14.534 46.2179 14.534C48.166 14.534 49.7362 16.1294 49.7362 18.0925ZM111.333 13.5711C111.333 18.5241 107.471 22.5409 102.711 22.5409C97.9445 22.5409 94.0868 18.5241 94.0868 13.5711C94.0868 8.6133 97.9445 4.59753 102.711 4.59753C107.471 4.59753 111.333 8.6133 111.333 13.5711ZM102.711 0.139795C95.3705 0.139795 89.4233 6.15202 89.4233 13.5711C89.4233 20.9835 95.3705 27.0005 102.711 27.0005C110.05 27.0005 116 20.9835 116 13.5711C116 6.15202 110.05 0.139795 102.711 0.139795Z" fill="white"/>
</svg>
