<svg width="116" height="24" viewBox="0 0 116 24" fill="none" xmlns="http://www.w3.org/2000/svg">
<path d="M115.536 6.13099V0.000244141H93.032C88.334 0.000244141 86.217 2.90581 85.869 5.72422V5.81138V0.000244141H79.257V6.13099H85.84H115.536ZM85.84 8.33923L79.228 7.9615V15.022C79.228 17.2303 78.126 17.8986 74.298 17.8986H69.02C65.859 17.8986 64.525 16.9978 64.525 15.022V7.29322L57.826 6.79927V15.5741H57.681C57.304 13.0172 56.347 10.0535 49.967 9.61768L29 8.22301C29 11.4482 31.291 13.3659 34.887 13.7436L49.503 15.2254C50.663 15.3126 51.504 15.6613 51.504 16.6201C51.504 17.6661 50.634 17.7823 49.3 17.7823H28.739V8.22301L22.04 7.78717V24.0002H49.329C55.419 24.0002 57.362 20.8332 57.652 18.1891H57.797C58.551 22.3731 62.205 24.0002 68.382 24.0002H75.197C82.418 24.0002 85.84 21.792 85.84 16.6201V8.33923ZM107.097 9.58862L86.13 8.33923C86.13 11.5644 88.247 13.7145 91.843 14.0051L106.778 15.1673C107.938 15.2545 108.634 15.545 108.634 16.5039C108.634 17.4046 107.822 17.7533 106.14 17.7533H85.782V24.0002H106.575C113.129 24.0002 116 21.7048 116 16.4748C116 11.7678 113.419 9.9954 107.097 9.58862ZM57.826 0.000244141H64.525V6.13099H57.826V0.000244141ZM18.357 7.49661L11.078 6.77022L0 24.0002H8.149L18.357 7.49661ZM56.608 0.000244141H36.163C31.407 0.000244141 29.319 2.96392 28.826 5.81138V0.000244141H17.487C15.892 0.000244141 15.138 0.494191 14.384 1.59831L11.252 6.13099H56.608V0.000244141Z" fill="white"/>
</svg>
