<svg width="344" height="95" viewBox="0 0 344 95" fill="none" xmlns="http://www.w3.org/2000/svg">
<line x1="8" y1="94.5" x2="92" y2="94.5" stroke="#0B1427"/>
<path d="M130.694 29L213.31 28.9813C215.9 28.9804 218 26.9387 218 24.4206L217.998 15.558C217.998 13.0399 215.898 10.9991 213.306 11L130.69 11.0187C128.1 11.0196 126 13.0614 126 15.5794L126.002 24.4411C126.003 26.9592 128.103 29 130.694 29ZM208.059 17.4516C209.502 17.4516 210.672 18.5889 210.672 19.992C210.672 21.395 209.502 22.5323 208.059 22.5323C206.616 22.5323 205.445 21.395 205.445 19.992C205.445 18.5889 206.616 17.4516 208.059 17.4516ZM198.071 17.4534C199.515 17.4534 200.685 18.5907 200.685 19.9938C200.685 21.3968 199.515 22.5341 198.071 22.5341C196.628 22.5341 195.458 21.3968 195.458 19.9938C195.458 18.5907 196.628 17.4534 198.071 17.4534ZM188.083 17.4561C189.527 17.4561 190.697 18.5934 190.697 19.9964C190.697 21.3995 189.527 22.5368 188.083 22.5368C186.64 22.5368 185.47 21.3995 185.47 19.9964C185.47 18.5934 186.64 17.4561 188.083 17.4561ZM133.33 19.7083C133.33 18.4765 134.366 17.4686 135.634 17.4686L173.964 17.4597C175.232 17.4597 176.268 18.4667 176.268 19.6985V20.3006C176.268 21.5315 175.232 22.5394 173.965 22.5403L135.635 22.5493C134.367 22.5493 133.33 21.5422 133.33 20.3104V19.7083Z" fill="#E7742E"/>
<path d="M213.306 33L130.69 33.0187C128.1 33.0196 126 35.0612 126 37.5792L126.002 46.4414C126.003 48.9593 128.103 51 130.694 51L213.31 50.9813C215.9 50.9804 218 48.9388 218 46.4208L217.998 37.5595C217.998 35.0398 215.898 32.9991 213.306 33ZM176.268 42.2992C176.268 43.531 175.232 44.5389 173.965 44.5389L135.635 44.5478C134.367 44.5478 133.33 43.5408 133.33 42.3091V41.707C133.33 40.4753 134.366 39.4674 135.634 39.4674L173.964 39.4585C175.232 39.4585 176.268 40.4654 176.268 41.6972V42.2992ZM188.083 44.5362C186.64 44.5362 185.47 43.399 185.47 41.996C185.47 40.593 186.64 39.4558 188.083 39.4558C189.527 39.4558 190.697 40.593 190.697 41.996C190.697 43.399 189.527 44.5362 188.083 44.5362ZM198.071 44.5335C196.628 44.5335 195.458 43.3963 195.458 41.9933C195.458 40.5903 196.628 39.4531 198.071 39.4531C199.515 39.4531 200.685 40.5903 200.685 41.9933C200.685 43.3963 199.515 44.5335 198.071 44.5335ZM208.059 44.5309C206.616 44.5309 205.445 43.3936 205.445 41.9906C205.445 40.5876 206.616 39.4504 208.059 39.4504C209.502 39.4504 210.672 40.5876 210.672 41.9906C210.672 43.3936 209.502 44.5309 208.059 44.5309Z" fill="#E7742E"/>
<path d="M213.306 55L130.69 55.0187C128.1 55.0196 126 57.0613 126 59.5794L126.002 68.4411C126.003 70.9592 128.103 73 130.694 73L213.31 72.9813C215.9 72.9804 218 70.9387 218 68.4206L217.998 59.5589C217.998 57.0408 215.898 55 213.306 55ZM176.268 64.3006C176.268 65.5315 175.232 66.5394 173.965 66.5403L135.635 66.5493C134.367 66.5493 133.33 65.5422 133.33 64.3104V63.7083C133.33 62.4765 134.366 61.4686 135.634 61.4686L173.964 61.4597C175.232 61.4597 176.268 62.4667 176.268 63.6985V64.3006ZM188.083 66.5368C186.64 66.5368 185.47 65.3995 185.47 63.9964C185.47 62.5934 186.64 61.4561 188.083 61.4561C189.527 61.4561 190.697 62.5934 190.697 63.9964C190.697 65.3995 189.527 66.5368 188.083 66.5368ZM198.071 66.535C196.628 66.535 195.458 65.3977 195.458 63.9946C195.458 62.5916 196.628 61.4543 198.071 61.4543C199.515 61.4543 200.685 62.5916 200.685 63.9946C200.685 65.3977 199.515 66.535 198.071 66.535ZM208.059 66.5323C206.616 66.5323 205.445 65.395 205.445 63.992C205.445 62.5889 206.616 61.4516 208.059 61.4516C209.502 61.4516 210.672 62.5889 210.672 63.992C210.672 65.395 209.502 66.5323 208.059 66.5323Z" fill="#E7742E"/>
<path d="M213.306 77L130.69 77.0187C128.1 77.0196 126 79.0613 126 81.5794L126.002 90.4411C126.003 92.9592 128.103 95 130.694 95L213.31 94.9813C215.9 94.9804 218 92.9387 218 90.4206L217.998 81.558C217.998 79.0399 215.898 76.9991 213.306 77ZM176.268 86.3006C176.268 87.5315 175.232 88.5394 173.965 88.5403L135.635 88.5493C134.367 88.5493 133.33 87.5422 133.33 86.3104V85.7083C133.33 84.4765 134.366 83.4686 135.634 83.4686L173.964 83.4597C175.232 83.4597 176.268 84.4667 176.268 85.6985V86.3006ZM188.083 88.5368C186.64 88.5368 185.47 87.3995 185.47 85.9964C185.47 84.5934 186.64 83.4561 188.083 83.4561C189.527 83.4561 190.697 84.5934 190.697 85.9964C190.697 87.3995 189.527 88.5368 188.083 88.5368ZM198.071 88.5341C196.628 88.5341 195.458 87.3968 195.458 85.9938C195.458 84.5907 196.628 83.4534 198.071 83.4534C199.515 83.4534 200.685 84.5907 200.685 85.9938C200.685 87.3968 199.515 88.5341 198.071 88.5341ZM208.059 88.5323C206.616 88.5323 205.445 87.395 205.445 85.992C205.445 84.5889 206.616 83.4516 208.059 83.4516C209.502 83.4516 210.672 84.5889 210.672 85.992C210.672 87.395 209.502 88.5323 208.059 88.5323Z" fill="#E7742E"/>
<line x1="252" y1="94.5" x2="336" y2="94.5" stroke="#0B1427"/>
</svg>
