<svg width="72" height="62" viewBox="0 0 72 62" fill="none" xmlns="http://www.w3.org/2000/svg">
<path d="M68.2957 26.8351H60.4353V21.2428C60.4353 18.2401 57.9772 15.7883 54.9358 15.7883H10.3981C9.82875 15.7883 9.35657 16.2566 9.35657 16.8213C9.35657 17.3861 9.82875 17.8544 10.3981 17.8544H54.9219C56.7967 17.8544 58.3383 19.3696 58.3383 21.2428V26.8351H53.8109C48.9363 26.8351 44.9784 30.7607 44.9784 35.5954C44.9784 40.4302 48.9363 44.3558 53.8109 44.3558H65.0182V49.9481C65.0182 55.4715 60.4908 59.9618 54.9219 59.9618H4.8292C3.56542 59.9618 2.53774 58.9426 2.53774 57.6891V55.4164H54.9358C57.9633 55.4164 60.4353 52.9784 60.4353 49.9618V47.758C60.4353 47.1932 59.9631 46.7249 59.3937 46.7249C58.8243 46.7249 58.3522 47.1932 58.3522 47.758V49.9618C58.3522 51.8213 56.8245 53.3503 54.9358 53.3503H2.53774V17.8544H5.95409C6.52349 17.8544 6.99567 17.3861 6.99567 16.8213C6.99567 16.2566 6.52349 15.7883 5.95409 15.7883H2.53774V13.5156C2.53774 12.2621 3.56542 11.2428 4.8292 11.2428H54.9219C60.4908 11.2428 65.0182 15.7332 65.0182 21.2566V23.4605C65.0182 24.0252 65.4904 24.4935 66.0598 24.4935C66.6292 24.4935 67.1014 24.0252 67.1014 23.4605V21.2566C67.1014 17.51 65.3654 14.1492 62.6434 11.9315V1.3668C62.6434 0.80206 62.1713 0.33374 61.6019 0.33374H5.95409C5.3847 0.33374 4.91252 0.80206 4.91252 1.3668V9.16294H4.84308C2.42663 9.16294 0.45459 11.1051 0.45459 13.5018V57.6616C0.45459 60.0583 2.42663 62.0004 4.8292 62.0004H54.9219C61.6296 62.0004 67.1014 56.5872 67.1014 49.9205V44.3282H68.2818C70.0872 44.3282 71.5454 42.8682 71.5454 41.0913V30.072C71.5593 28.2814 70.0872 26.8351 68.2957 26.8351ZM60.5742 2.39986V10.5404C59.8242 10.1547 59.0326 9.83787 58.1994 9.60371V5.77451C58.1994 5.20977 57.7272 4.74145 57.1578 4.74145H6.99567V2.39986H60.5742ZM6.99567 6.80757H56.1162V9.21804C55.7274 9.17672 55.3246 9.16294 54.9358 9.16294H6.99567V6.80757ZM69.4761 41.1051C69.4761 41.7525 68.9484 42.2759 68.2957 42.2759H53.8248C50.1029 42.2759 47.0754 39.2731 47.0754 35.5817C47.0754 31.8902 50.1029 28.8875 53.8248 28.8875H68.2957C68.9484 28.8875 69.4761 29.4109 69.4761 30.0583V41.1051Z" fill="#E7742E"/>
<path d="M53.8248 31.2429C51.4084 31.2429 49.4502 33.1988 49.4502 35.5818C49.4502 37.9647 51.4222 39.9206 53.8248 39.9206C56.2274 39.9206 58.1994 37.9647 58.1994 35.5818C58.1994 33.1988 56.2413 31.2429 53.8248 31.2429ZM53.8248 37.8683C52.561 37.8683 51.5333 36.849 51.5333 35.5955C51.5333 34.3421 52.561 33.3228 53.8248 33.3228C55.0886 33.3228 56.1163 34.3421 56.1163 35.5955C56.1163 36.849 55.0886 37.8683 53.8248 37.8683Z" fill="#E7742E"/>
</svg>
