<svg width="214" height="30" viewBox="0 0 214 30" fill="none" xmlns="http://www.w3.org/2000/svg">
<path d="M28.5999 25.1974H23.2534L26.5975 4.8689H31.9437L28.5999 25.1974Z" fill="#00579F"/>
<path d="M47.9817 5.36596C46.9272 4.95464 45.2546 4.50049 43.1864 4.50049C37.9065 4.50049 34.1885 7.26849 34.1657 11.2259C34.1218 14.1457 36.8277 15.7674 38.8514 16.7409C40.9199 17.7357 41.6231 18.385 41.6231 19.2718C41.602 20.6336 39.9516 21.2614 38.4123 21.2614C36.2778 21.2614 35.134 20.9377 33.3959 20.1801L32.6919 19.8553L31.9437 24.4186C33.1977 24.9802 35.508 25.4786 37.9065 25.5005C43.5164 25.5005 47.1687 22.7753 47.2119 18.5581C47.2333 16.2439 45.8045 14.4707 42.7241 13.0218C40.8542 12.0916 39.709 11.4645 39.709 10.5128C39.7309 9.64759 40.6776 8.76142 42.7884 8.76142C44.5266 8.71802 45.8036 9.12877 46.7711 9.5398L47.2546 9.75566L47.9817 5.36596Z" fill="#00579F"/>
<path d="M55.0873 17.9958C55.5276 16.8279 57.2219 12.308 57.2219 12.308C57.1997 12.3514 57.6613 11.1186 57.9253 10.3618L58.299 12.1134C58.299 12.1134 59.3114 16.9794 59.5313 17.9958C58.6957 17.9958 56.1433 17.9958 55.0873 17.9958ZM61.6869 4.8689H57.5514C56.2761 4.8689 55.3072 5.23624 54.7569 6.55556L46.8154 25.1972H52.4253C52.4253 25.1972 53.3489 22.6881 53.5474 22.1478C54.1629 22.1478 59.6201 22.1478 60.4119 22.1478C60.5654 22.8615 61.0498 25.1972 61.0498 25.1972H66.0001L61.6869 4.8689Z" fill="#00579F"/>
<path d="M18.7879 4.8689L13.5519 18.731L12.9798 15.9196C12.0117 12.6756 8.97582 9.1511 5.58789 7.39861L10.3839 25.1759H16.0376L24.4414 4.8689H18.7879Z" fill="#00579F"/>
<path d="M8.68998 4.8689H0.0880016L0 5.27964C6.71008 6.9666 11.154 11.0329 12.9799 15.9205L11.1099 6.5777C10.802 5.27935 9.85593 4.91172 8.68998 4.8689Z" fill="#FAA61A"/>
<path fill-rule="evenodd" clip-rule="evenodd" d="M98.1456 26.4003H110.855V3.60083H98.1456V26.4003Z" fill="#FF5F00"/>
<path fill-rule="evenodd" clip-rule="evenodd" d="M98.9524 15.0004C98.9524 10.3749 101.122 6.25533 104.5 3.60064C102.029 1.65887 98.912 0.500488 95.5237 0.500488C87.5024 0.500488 81.0001 6.99241 81.0001 15.0004C81.0001 23.0083 87.5024 29.5002 95.5237 29.5002C98.912 29.5002 102.029 28.3419 104.5 26.4001C101.122 23.745 98.9524 19.6258 98.9524 15.0004Z" fill="#EB001B"/>
<path fill-rule="evenodd" clip-rule="evenodd" d="M127.547 23.9857V23.423H127.399L127.23 23.8101L127.061 23.423H126.913V23.9857H127.017V23.5612L127.176 23.9273H127.284L127.443 23.5604V23.9857H127.547ZM126.614 23.9857V23.5189H126.803V23.4238H126.323V23.5189H126.511V23.9857H126.614ZM128 15.0006C128 23.0086 121.497 29.5005 113.476 29.5005C110.088 29.5005 106.971 28.3421 104.5 26.4003C107.878 23.7457 110.048 19.6261 110.048 15.0006C110.048 10.3756 107.878 6.25598 104.5 3.60089C106.971 1.65911 110.088 0.500732 113.476 0.500732C121.497 0.500732 128 6.99265 128 15.0006Z" fill="#F79E1B"/>
<g clip-path="url(#clip0_796_11438)">
<path d="M162.133 4.50659V4.51576C162.124 4.51576 159.359 4.50659 158.621 7.26645C157.945 9.79709 156.04 16.7808 155.987 16.9733H155.461C155.461 16.9733 153.512 9.83376 152.827 7.25728C152.089 4.49742 149.315 4.50659 149.315 4.50659H143V25.4974H149.318V13.0306H149.845L153.532 25.4973H157.919L161.606 13.0398H162.133V25.4973H168.451V4.50659H162.133ZM185.213 4.50659C185.213 4.50659 183.361 4.6808 182.492 6.70724L178.017 16.9733H177.49V4.50659H171.172V25.4974H177.139C177.139 25.4974 179.079 25.314 179.949 23.2969L184.335 13.0307H184.862V25.4974H191.18V4.50659H185.213ZM193.989 14.0393V25.4974H200.307V18.8071H207.152C210.137 18.8071 212.663 16.8175 213.602 14.0423H193.989V14.0393Z" fill="#4DB45E"/>
<path d="M207.155 4.50513H193.103C193.805 8.5028 196.676 11.7089 200.386 12.7541C201.248 12.9978 202.136 13.1212 203.029 13.121H213.859C213.956 12.6442 214 12.1583 214 11.654C214 7.7051 210.936 4.50513 207.155 4.50513Z" fill="url(#paint0_linear_796_11438)"/>
</g>
<defs>
<linearGradient id="paint0_linear_796_11438" x1="193.102" y1="8.81305" x2="214" y2="8.81305" gradientUnits="userSpaceOnUse">
<stop offset="0.3" stop-color="#00B4E6"/>
<stop offset="1" stop-color="#088CCB"/>
</linearGradient>
<clipPath id="clip0_796_11438">
<rect width="71" height="21" fill="white" transform="translate(143 4.50049)"/>
</clipPath>
</defs>
</svg>
