<svg width="1064" height="414" viewBox="0 0 1064 414" fill="none" xmlns="http://www.w3.org/2000/svg">
<path d="M187.971 337.341H181.497V339.214H187.971V337.341Z" fill="#E7742E"/>
<path d="M187.971 332.686H181.497V334.558H187.971V332.686Z" fill="#E7742E"/>
<path d="M213.157 305.008C214.371 305.008 215.383 303.996 215.383 302.781C215.383 301.567 214.371 300.555 213.157 300.555C211.944 300.555 210.932 301.567 210.932 302.781C210.932 304.046 211.944 305.008 213.157 305.008Z" fill="#E7742E"/>
<path d="M227.572 305.008C228.785 305.008 229.797 303.996 229.797 302.781C229.797 301.567 228.785 300.555 227.572 300.555C226.358 300.555 225.346 301.567 225.346 302.781C225.296 304.046 226.307 305.008 227.572 305.008Z" fill="#E7742E"/>
<path d="M187.971 341.996H181.497V343.312H187.971V341.996Z" fill="#E7742E"/>
<path d="M187.971 328.031H181.497V329.903H187.971V328.031Z" fill="#E7742E"/>
<path d="M241.935 300.555C240.721 300.555 239.71 301.567 239.71 302.781C239.71 303.996 240.721 305.008 241.935 305.008C243.149 305.008 244.161 303.996 244.161 302.781C244.161 301.567 243.149 300.555 241.935 300.555Z" fill="#E7742E"/>
<path d="M187.971 323.275H181.497V325.248H187.971V323.275Z" fill="#E7742E"/>
<path d="M421.429 325.906H389.567V328.689H421.429V325.906Z" fill="#E7742E"/>
<path d="M823.205 360.668L777.029 329.852H590.657V327.069H777.889L824.722 358.34L823.205 360.668Z" fill="#E7742E"/>
<path d="M1030.62 275.812H1027.84V198.799H922.688V275.812H919.907V196.016H1030.62V275.812Z" fill="#E7742E"/>
<path d="M1015.04 293.623V290.84C1023.23 290.84 1026.52 281.985 1027.58 278.291H902.458V279.708C902.458 285.881 906.302 290.891 911.005 290.891H1010.89V293.674H911.005C904.734 293.674 899.676 287.399 899.676 279.708V275.508H1031.02L1030.72 277.127C1030.67 277.279 1027.73 293.623 1015.04 293.623Z" fill="#E7742E"/>
<path d="M966.083 283.958H942.818C939.075 283.958 935.99 280.922 935.99 277.127V276.318H938.771V277.127C938.771 279.354 940.592 281.175 942.818 281.175H966.083C968.308 281.175 970.129 279.354 970.129 277.127V276.318H972.91V277.127C972.91 280.922 969.825 283.958 966.083 283.958Z" fill="#E7742E"/>
<path d="M991.017 244.844H960.823V218.178H991.017V244.844ZM963.604 242.061H988.235V220.961H963.604V242.061Z" fill="#E7742E"/>
<path d="M972.91 237.963C972.556 237.963 972.253 237.862 971.949 237.71C971.393 237.356 971.039 236.748 971.039 236.091V227.742C971.039 227.084 971.393 226.477 971.949 226.122C972.506 225.768 973.214 225.768 973.821 226.072L981.66 230.272C982.267 230.575 982.672 231.233 982.672 231.941C982.672 232.65 982.267 233.257 981.66 233.611L973.821 237.811C973.517 237.912 973.214 237.963 972.91 237.963ZM973.821 229.26V234.623L978.828 231.941L973.821 229.26Z" fill="#E7742E"/>
<path d="M1007.61 258.456H1003.15V255.673H1007.61V258.456ZM998.704 258.456H994.253V255.673H998.704V258.456ZM989.853 258.456H985.402V255.673H989.853V258.456ZM981.002 258.456H976.552V255.673H981.002V258.456ZM972.152 258.456H967.701V255.673H972.152V258.456ZM963.301 258.456H958.85V255.673H963.301V258.456ZM954.45 258.456H949.999V255.673H954.45V258.456ZM945.599 258.456H941.148V255.673H945.599V258.456Z" fill="#E7742E"/>
<path d="M932.905 271.308H930.123V206.237H1021.51V270.954H932.905V271.308ZM932.905 268.171H1018.73V209.02H932.905V268.171Z" fill="#E7742E"/>
<path d="M1000.47 183.315H953.894V186.098H1000.47V183.315Z" fill="#E7742E"/>
<path d="M1014.08 183.315H1007.25V186.098H1014.08V183.315Z" fill="#E7742E"/>
<path d="M358.563 356.822H330.494V351.256C330.494 342.755 324.475 334.305 319.114 326.816C318.71 326.26 318.356 325.754 317.951 325.197C313.905 319.479 312.034 312.8 312.59 305.969C313.197 298.43 316.333 291.447 321.39 286.286C326.701 280.922 333.781 277.785 341.873 277.33C351.281 276.773 359.878 279.758 366.15 285.679C372.27 291.498 375.658 299.492 375.658 308.297C375.658 314.318 373.787 320.137 370.196 325.147C365.543 331.674 358.513 341.592 358.513 350.953V356.822H358.563ZM333.225 354.039H355.731V351.003C355.731 340.731 363.065 330.409 367.92 323.578C371.157 319.024 372.876 313.762 372.876 308.297C372.876 300.251 369.791 292.965 364.228 287.703C358.513 282.288 350.623 279.607 342.025 280.113C327.257 280.973 316.535 291.447 315.321 306.172C314.815 312.395 316.484 318.417 320.176 323.578C320.53 324.135 320.935 324.641 321.34 325.197C326.903 332.99 333.225 341.845 333.225 351.256V354.039Z" fill="#E7742E"/>
<path d="M353.759 290.941C352.292 290.334 350.775 289.929 349.207 289.625L349.662 286.893C351.432 287.197 353.152 287.703 354.77 288.36L353.759 290.941Z" fill="#E7742E"/>
<path d="M322.705 310.27L319.923 310.068C320.884 297.468 331.05 287.399 343.644 286.64C344.2 286.589 344.756 286.589 345.313 286.589V289.372C344.807 289.372 344.301 289.372 343.795 289.423C332.618 290.081 323.514 299.037 322.705 310.27Z" fill="#E7742E"/>
<path d="M361.851 313.053H326.347V315.836H361.851V313.053Z" fill="#E7742E"/>
<path d="M351.894 322.231L345.994 355.152L348.732 355.644L354.632 322.722L351.894 322.231Z" fill="#E7742E"/>
<path d="M337.491 322.209L334.755 322.714L340.823 355.605L343.558 355.1L337.491 322.209Z" fill="#E7742E"/>
<path d="M344.099 333.799C338.03 333.799 332.112 332.231 326.903 329.195L328.319 326.766C333.124 329.549 338.586 331.016 344.149 331.016C349.611 331.016 354.973 329.599 359.727 326.918L361.092 329.346C355.883 332.281 350.016 333.799 344.099 333.799Z" fill="#E7742E"/>
<path d="M345.161 397.555L330.443 376.506V356.519H333.225V375.595L345.009 392.495L355.58 375.645V356.519H358.361V376.455L345.161 397.555Z" fill="#E7742E"/>
<path d="M358.311 375.595H355.529C355.529 372.913 353.354 370.737 350.674 370.737C347.993 370.737 345.818 372.913 345.818 375.595H343.037C343.037 372.913 340.862 370.737 338.181 370.737C335.501 370.737 333.326 372.913 333.326 375.595H330.544C330.544 371.395 333.983 367.954 338.181 367.954C340.761 367.954 343.037 369.219 344.402 371.193C345.768 369.219 348.044 367.954 350.623 367.954C354.871 367.954 358.311 371.395 358.311 375.595Z" fill="#E7742E"/>
<path d="M351.786 382.224H337.928V385.007H351.786V382.224Z" fill="#E7742E"/>
<path d="M356.692 361.376H331.404V364.159H356.692V361.376Z" fill="#E7742E"/>
<path d="M375.911 354.09L363.115 347.562L364.38 345.083L375.405 350.7L384.256 342.3L378.946 330.308L379.3 329.701C380.817 327.12 382.031 324.337 382.941 321.503L383.143 320.846L395.585 316.798L395.889 304.603L383.649 299.897L383.447 299.189C382.688 296.254 381.626 293.471 380.261 290.789L379.907 290.131L385.824 278.443L377.428 269.588L365.442 274.901L364.835 274.547C362.256 273.029 359.474 271.814 356.642 270.903L355.984 270.701L351.938 258.253L339.749 257.899L335.046 270.144L334.338 270.347C331.404 271.106 328.622 272.168 325.942 273.535L325.284 273.838L313.601 267.918L304.751 276.318L310.061 288.31L309.707 288.917C308.19 291.498 306.976 294.23 306.066 297.114L305.863 297.772L293.422 301.82L293.068 314.015L305.256 318.72L305.459 319.429C306.217 322.313 307.279 325.147 308.645 327.828L308.948 328.486L303.031 340.175L311.427 349.03L322.756 344.02L323.868 346.55L310.769 352.369L299.642 340.63L305.813 328.486C304.599 326.057 303.638 323.477 302.879 320.846L290.185 315.937L290.64 299.796L303.587 295.596C304.447 293.016 305.56 290.486 306.925 288.158L301.413 275.71L313.146 264.629L325.284 270.802C327.712 269.588 330.291 268.626 332.921 267.867L337.827 255.116L353.961 255.572L358.159 268.525C360.738 269.385 363.216 270.499 365.594 271.865L378.035 266.349L389.162 278.089L382.992 290.233C384.205 292.661 385.166 295.242 385.925 297.873L398.62 302.781L398.164 318.923L385.217 323.123C384.357 325.703 383.245 328.233 381.879 330.561L387.392 343.059L375.911 354.09Z" fill="#E7742E"/>
<path d="M908.021 367.347C904.582 367.347 901.75 364.564 901.75 361.073C901.75 357.632 904.531 354.798 908.021 354.798C911.511 354.798 914.293 357.581 914.293 361.073C914.293 364.564 911.46 367.347 908.021 367.347ZM908.021 357.632C906.099 357.632 904.531 359.201 904.531 361.123C904.531 363.046 906.099 364.615 908.021 364.615C909.943 364.615 911.511 363.046 911.511 361.123C911.511 359.201 909.943 357.632 908.021 357.632Z" fill="#E7742E"/>
<path d="M860.227 400.895H844.498V394.621H847.28V398.112H857.445V394.621H860.227V400.895Z" fill="#E7742E"/>
<path d="M925.065 400.895L909.286 400.844V394.57H912.067V398.112H922.284L922.334 394.621H925.116L925.065 400.895Z" fill="#E7742E"/>
<path d="M922.941 317.86H920.159V315.735C920.159 315.027 919.553 314.419 918.844 314.419H916.72C916.366 314.419 916.012 314.571 915.759 314.824C915.506 315.077 915.355 315.431 915.355 315.786V317.961H912.573V315.786C912.573 314.672 913.028 313.66 913.787 312.901C914.545 312.142 915.608 311.687 916.67 311.687H918.794C921.07 311.687 922.891 313.559 922.891 315.836L922.941 317.86Z" fill="#E7742E"/>
<path d="M856.99 317.86H854.208V315.735C854.208 315.027 853.602 314.419 852.893 314.419H850.769C850.415 314.419 850.061 314.571 849.808 314.824C849.555 315.077 849.404 315.431 849.404 315.786V317.961H846.622V315.786C846.622 314.672 847.077 313.66 847.836 312.901C848.594 312.142 849.657 311.687 850.719 311.687H852.843C855.119 311.687 856.94 313.559 856.94 315.836L856.99 317.86Z" fill="#E7742E"/>
<path d="M935.484 392.242H835.192C832.005 392.242 829.375 389.611 829.375 386.423V326.058C829.375 322.87 832.005 320.239 835.192 320.239H935.484C938.67 320.239 941.3 322.87 941.3 326.058V386.423C941.3 389.611 938.67 392.242 935.484 392.242ZM835.141 323.022C833.472 323.022 832.107 324.388 832.107 326.058V386.423C832.107 388.093 833.472 389.459 835.141 389.459H935.433C937.102 389.459 938.468 388.093 938.468 386.423V326.058C938.468 324.388 937.102 323.022 935.433 323.022H835.141Z" fill="#E7742E"/>
<path d="M930.882 383.59H838.682C837.721 383.59 836.911 382.78 836.911 381.819V330.662C836.911 329.701 837.721 328.891 838.682 328.891H930.882C931.843 328.891 932.652 329.701 932.652 330.662V381.819C932.652 382.78 931.843 383.59 930.882 383.59ZM839.693 380.807H929.87V331.674H839.693V380.807Z" fill="#E7742E"/>
<path d="M908.021 376C899.828 376 893.101 369.321 893.101 361.073C893.101 352.876 899.777 346.146 908.021 346.146C916.265 346.146 922.941 352.825 922.941 361.073C922.941 369.321 916.215 376 908.021 376ZM908.021 348.979C901.345 348.979 895.883 354.394 895.883 361.123C895.883 367.853 901.295 373.267 908.021 373.267C914.748 373.267 920.159 367.853 920.159 361.123C920.159 354.394 914.697 348.979 908.021 348.979Z" fill="#E7742E"/>
<path d="M870.19 349.435H852.893V352.218H870.19V349.435Z" fill="#E7742E"/>
<path d="M876.664 355.911H846.42V358.694H876.664V355.911Z" fill="#E7742E"/>
<path d="M876.664 363.501H846.42V366.284H876.664V363.501Z" fill="#E7742E"/>
<path d="M870.19 369.978H852.893V372.761H870.19V369.978Z" fill="#E7742E"/>
<path d="M922.739 339.214H918.288V336.431H922.739V339.214ZM913.888 339.214H909.437V336.431H913.888V339.214ZM905.037 339.214H900.587V336.431H905.037V339.214ZM896.187 339.214H891.736V336.431H896.187V339.214ZM887.336 339.214H882.885V336.431H887.336V339.214ZM878.485 339.214H874.034V336.431H878.485V339.214ZM869.634 339.214H865.183V336.431H869.634V339.214ZM860.783 339.214H856.333V336.431H860.783V339.214ZM851.932 339.214H847.482V336.431H851.932V339.214Z" fill="#E7742E"/>
<path d="M878.924 283.969L850.887 312.02L852.854 313.987L880.891 285.936L878.924 283.969Z" fill="#E7742E"/>
<path d="M881.014 287.349C878.738 287.349 876.917 285.527 876.917 283.25C876.917 280.973 878.738 279.151 881.014 279.151C883.29 279.151 885.11 280.973 885.11 283.25C885.11 285.476 883.239 287.349 881.014 287.349ZM881.014 281.934C880.306 281.934 879.699 282.542 879.699 283.25C879.699 283.958 880.306 284.566 881.014 284.566C881.722 284.566 882.329 283.958 882.329 283.25C882.329 282.542 881.722 281.934 881.014 281.934Z" fill="#E7742E"/>
<path d="M881.519 293.724V290.941C885.869 290.941 889.46 287.399 889.46 282.997H892.242C892.191 288.917 887.386 293.724 881.519 293.724Z" fill="#E7742E"/>
<path d="M872.466 282.997H869.685C869.685 277.077 874.489 272.27 880.407 272.27V275.053C876.057 275.103 872.466 278.645 872.466 282.997Z" fill="#E7742E"/>
<path d="M247.802 222.682C237.535 222.682 229.19 214.333 229.19 204.061C229.19 193.789 237.535 185.44 247.802 185.44C258.069 185.44 266.414 193.789 266.414 204.061C266.414 214.333 258.069 222.682 247.802 222.682ZM247.802 188.274C239.103 188.274 231.972 195.358 231.972 204.111C231.972 212.815 239.052 219.949 247.802 219.949C256.501 219.949 263.632 212.865 263.632 204.111C263.632 195.358 256.552 188.274 247.802 188.274Z" fill="#E7742E"/>
<path d="M248.004 216.458C241.177 216.458 235.664 210.892 235.664 204.111C235.664 197.28 241.227 191.765 248.004 191.765C254.832 191.765 260.345 197.331 260.345 204.111C260.345 210.892 254.782 216.458 248.004 216.458ZM248.004 194.497C242.744 194.497 238.445 198.798 238.445 204.061C238.445 209.323 242.744 213.624 248.004 213.624C253.264 213.624 257.563 209.323 257.563 204.061C257.563 198.798 253.264 194.497 248.004 194.497Z" fill="#E7742E"/>
<path d="M280.373 193.637H268.134V183.011H280.373V185.794H270.915V190.854H280.373V193.637Z" fill="#E7742E"/>
<path d="M222.312 183.973H219.53V181.848C219.53 181.089 219.176 180.633 219.075 180.583H214.928C214.826 180.633 214.472 181.089 214.472 181.848V183.973H211.691V181.848C211.691 179.571 213.107 177.8 214.928 177.8H219.075C220.896 177.8 222.312 179.571 222.312 181.848V183.973Z" fill="#E7742E"/>
<path d="M273.292 229.26H213.056C208.656 229.26 205.015 225.667 205.015 221.214V191.209C205.015 187.059 208.403 183.669 212.55 183.669H222.615C223.374 183.669 224.031 183.163 224.183 182.404C225.144 178.811 227.875 176.383 231.011 176.383H232.427L233.691 174.106C235.714 170.412 239.609 168.135 243.857 168.135H250.735C255.287 168.135 259.434 170.817 261.306 174.915L261.963 176.383H272.129C277.237 176.383 281.384 180.532 281.384 185.643V221.214C281.334 225.667 277.692 229.26 273.292 229.26ZM212.601 186.452C209.971 186.452 207.847 188.577 207.847 191.209V221.214C207.847 224.099 210.173 226.477 213.107 226.477H273.343C276.226 226.477 278.603 224.149 278.603 221.214V185.643C278.603 182.05 275.72 179.166 272.129 179.166H231.112C229.291 179.166 227.572 180.785 226.965 183.113C226.459 185.086 224.689 186.402 222.666 186.402H212.601V186.452ZM235.613 176.383H258.878L258.726 176.079C257.31 172.942 254.175 170.918 250.685 170.918H243.806C240.62 170.918 237.636 172.638 236.119 175.472L235.613 176.383Z" fill="#E7742E"/>
<path d="M219.732 196.876H212.702C209.314 196.876 206.38 194.649 205.369 191.31L208.049 190.5C208.656 192.625 210.527 194.093 212.702 194.093H219.732V196.876Z" fill="#E7742E"/>
<path d="M219.732 207.906H212.702C208.504 207.906 205.065 204.364 205.065 200.013H207.847C207.847 202.796 210.022 205.123 212.702 205.123H219.732V207.906Z" fill="#E7742E"/>
<path d="M219.732 218.988H212.702C208.504 218.988 205.065 215.446 205.065 211.094H207.847C207.847 213.877 210.022 216.205 212.702 216.205H219.732V218.988Z" fill="#E7742E"/>
<path d="M246.386 204.061C246.386 204.87 247.043 205.478 247.802 205.478C248.611 205.478 249.218 204.82 249.218 204.061C249.218 203.251 248.561 202.644 247.802 202.644C247.043 202.644 246.386 203.302 246.386 204.061Z" fill="#E7742E"/>
<path d="M246.942 211.499C246.082 211.499 245.223 211.297 244.464 210.892C241.733 209.526 240.671 206.186 242.036 203.454L244.515 204.719C243.806 206.085 244.363 207.755 245.728 208.413C246.386 208.767 247.145 208.817 247.802 208.564C248.51 208.311 249.066 207.856 249.42 207.198L251.899 208.463C251.241 209.779 250.078 210.74 248.662 211.196C248.105 211.398 247.549 211.499 246.942 211.499Z" fill="#E7742E"/>
<path d="M225.245 194.093H222.565V196.876H225.245V194.093Z" fill="#E7742E"/>
<path d="M116.507 289.828H8.22339L13.2304 265.186H35.6356L44.4864 274.041H79.9402L89.9036 265.186H111.5L116.507 289.828ZM11.612 287.045H113.118L109.274 267.969H91.0163L81.0023 276.824H43.3231L34.4723 267.969H15.5063L11.612 287.045Z" fill="#E7742E"/>
<path d="M82.9747 267.311H80.1931V260.176H44.9416V267.311H42.1599V257.393H82.9747V267.311Z" fill="#E7742E"/>
<path d="M84.8461 250.765H43.475V253.548H84.8461V250.765Z" fill="#E7742E"/>
<path d="M44.2335 349.637H16.5178L8.27393 301.871H116.507L113.219 318.619L110.488 318.113L113.118 304.654H11.5614L18.8443 346.854H42.8679L48.0267 340.175H74.5791V342.958H49.3922L44.2335 349.637Z" fill="#E7742E"/>
<path d="M117.012 294.787H7.71765V297.57H117.012V294.787Z" fill="#E7742E"/>
<path d="M100.171 364.21L96.782 358.796C95.7705 358.695 94.7084 358.543 93.7475 358.29L88.7405 362.237L81.6092 357.733L83.0254 351.509C82.3679 350.7 81.761 349.84 81.2552 348.979L74.9332 348.22L73.0619 339.973L78.4735 336.582C78.5747 335.57 78.7264 334.508 79.0299 333.546L75.0849 328.537L79.5862 321.402L85.807 322.819C86.6163 322.161 87.4761 321.554 88.3358 321.048L89.0945 314.723L97.3384 312.851L100.727 318.265C101.738 318.366 102.801 318.518 103.762 318.771L108.769 314.824L115.9 319.328L114.484 325.552C115.141 326.361 115.748 327.221 116.254 328.082L122.576 328.841L124.447 337.088L119.035 340.479C118.934 341.491 118.783 342.553 118.479 343.565L122.424 348.575L117.923 355.709L111.702 354.292C110.893 354.95 110.033 355.557 109.173 356.063L108.415 362.388L100.171 364.21ZM93.09 355.203L93.7981 355.406C95.0625 355.76 96.3269 356.013 97.6418 356.063L98.3499 356.114L101.435 361.022L105.835 360.01L106.543 354.242L107.15 353.888C108.313 353.28 109.375 352.521 110.336 351.611L110.893 351.155L116.557 352.42L118.985 348.625L115.394 344.021L115.596 343.312C115.95 342.047 116.203 340.732 116.254 339.467L116.304 338.758L121.21 335.621L120.199 331.219L114.433 330.51L114.079 329.903C113.422 328.739 112.663 327.677 111.803 326.715L111.348 326.159L112.612 320.492L108.819 318.063L104.217 321.655L103.509 321.453C102.244 321.099 100.929 320.846 99.6649 320.795L98.9568 320.745L95.8211 315.836L91.421 316.848L90.7129 322.617L90.106 322.971C88.9428 323.578 87.8807 324.337 86.9197 325.248L86.3634 325.703L80.6989 324.438L78.2712 328.233L81.8621 332.838L81.6598 333.546C81.3058 334.811 81.0529 336.127 81.0023 337.443L80.9517 338.151L76.0459 341.238L77.0574 345.64L82.8231 346.348L83.1771 346.955C83.8346 348.119 84.5932 349.182 85.453 350.143L85.9082 350.7L84.6438 356.367L88.437 358.796L93.09 355.203ZM98.6534 348.676C96.7315 348.676 94.8602 348.119 93.2417 347.107C90.9658 345.64 89.3474 343.363 88.7405 340.732C87.5266 335.267 90.9658 329.751 96.428 328.537C99.1085 327.93 101.789 328.385 104.116 329.853C106.442 331.32 108.01 333.597 108.617 336.228C109.224 338.91 108.769 341.642 107.302 343.919C105.835 346.247 103.559 347.816 100.929 348.423C100.171 348.575 99.412 348.676 98.6534 348.676ZM98.7039 331.067C98.1476 331.067 97.5913 331.118 97.0349 331.269C93.0394 332.18 90.5106 336.127 91.421 340.124C91.8762 342.047 93.0394 343.717 94.7084 344.78C96.3774 345.842 98.3499 346.196 100.322 345.741C102.244 345.286 103.913 344.122 104.975 342.452C106.037 340.782 106.391 338.809 105.936 336.835C105.481 334.913 104.318 333.243 102.649 332.18C101.435 331.472 100.12 331.067 98.7039 331.067Z" fill="#E7742E"/>
<path d="M3.31757 414H0.535889V363.552H122.778V412.533H119.996V366.335H3.31757V414Z" fill="#E7742E"/>
<path d="M804.947 309.359H726.959V312.142H804.947V309.359Z" fill="#E7742E"/>
<path d="M1063.8 380.098H951.972V377.315H1061.01V340.58H951.972V337.797H1063.8V380.098Z" fill="#E7742E"/>
<path d="M1063.8 328.689H1061.01V302.731H919.249V299.948H1063.8V328.689Z" fill="#E7742E"/>
<path d="M1041.39 368.106C1035.52 368.106 1030.72 363.653 1030.72 358.239C1030.72 352.825 1035.47 348.372 1041.39 348.372C1047.31 348.372 1052.06 352.825 1052.06 358.239C1052.06 363.653 1047.26 368.106 1041.39 368.106ZM1041.39 351.104C1037.04 351.104 1033.5 354.292 1033.5 358.188C1033.5 362.085 1037.04 365.272 1041.39 365.272C1045.74 365.272 1049.28 362.085 1049.28 358.188C1049.23 354.292 1045.74 351.104 1041.39 351.104Z" fill="#E7742E"/>
<path d="M1041.39 329.751C1035.52 329.751 1030.72 325.298 1030.72 319.884C1030.72 314.42 1035.47 310.017 1041.39 310.017C1047.31 310.017 1052.06 314.47 1052.06 319.884C1052.01 325.349 1047.26 329.751 1041.39 329.751ZM1041.39 312.8C1037.04 312.8 1033.5 315.988 1033.5 319.884C1033.5 323.78 1037.04 326.968 1041.39 326.968C1045.74 326.968 1049.28 323.78 1049.28 319.884C1049.23 315.988 1045.74 312.8 1041.39 312.8Z" fill="#E7742E"/>
<path d="M283.357 353.027H135.119V250.461H283.408V353.027H283.357ZM137.9 350.244H280.626V253.244H137.9V350.244Z" fill="#E7742E"/>
<path d="M198.932 356.462L192.009 375.857L194.629 376.793L201.552 357.398L198.932 356.462Z" fill="#E7742E"/>
<path d="M220.217 356.435L217.598 357.371L224.52 376.765L227.14 375.829L220.217 356.435Z" fill="#E7742E"/>
<path d="M173.658 381.869H170.876V374.229H202.435V377.012H173.658V381.869Z" fill="#E7742E"/>
<path d="M249.42 381.869H246.639V377.012H218.316V374.229H249.42V381.869Z" fill="#E7742E"/>
<path d="M280.828 385.108H142.705V387.891H280.828V385.108Z" fill="#E7742E"/>
<path d="M245.728 396.189H238.799V398.972H245.728V396.189Z" fill="#E7742E"/>
<path d="M231.415 396.189H172.747V398.972H231.415V396.189Z" fill="#E7742E"/>
<path d="M248.611 353.129H169.864V299.138C169.864 290.536 176.844 283.554 185.442 283.554H233.084C241.682 283.554 248.662 290.536 248.662 299.138V353.129H248.611ZM172.646 350.346H245.83V299.138C245.83 292.105 240.114 286.387 233.084 286.387H185.442C178.412 286.387 172.697 292.105 172.697 299.138V350.346H172.646Z" fill="#E7742E"/>
<path d="M209.212 305.919C206.431 305.919 204.205 303.692 204.205 300.909C204.205 298.126 206.431 295.9 209.212 295.9C211.994 295.9 214.22 298.126 214.22 300.909C214.27 303.692 211.994 305.919 209.212 305.919ZM209.212 298.683C207.999 298.683 206.987 299.695 206.987 300.909C206.987 302.124 207.999 303.136 209.212 303.136C210.426 303.136 211.438 302.124 211.438 300.909C211.488 299.695 210.477 298.683 209.212 298.683Z" fill="#E7742E"/>
<path d="M223.627 305.919C220.845 305.919 218.62 303.692 218.62 300.909C218.62 298.126 220.845 295.9 223.627 295.9C226.408 295.9 228.634 298.126 228.634 300.909C228.634 303.692 226.408 305.919 223.627 305.919ZM223.627 298.683C222.413 298.683 221.401 299.695 221.401 300.909C221.401 302.124 222.413 303.136 223.627 303.136C224.84 303.136 225.852 302.124 225.852 300.909C225.852 299.695 224.84 298.683 223.627 298.683Z" fill="#E7742E"/>
<path d="M237.99 305.919C235.209 305.919 232.983 303.692 232.983 300.909C232.983 298.126 235.209 295.9 237.99 295.9C240.772 295.9 242.997 298.126 242.997 300.909C242.997 303.692 240.772 305.919 237.99 305.919ZM237.99 298.683C236.776 298.683 235.765 299.695 235.765 300.909C235.765 302.124 236.776 303.136 237.99 303.136C239.204 303.136 240.216 302.124 240.216 300.909C240.216 299.695 239.255 298.683 237.99 298.683Z" fill="#E7742E"/>
<path d="M210.629 324.843H185.492V322.06H207.847V308.6H210.629V324.843Z" fill="#E7742E"/>
<path d="M224.992 332.635H185.492V329.852H222.211V308.6H224.992V332.635Z" fill="#E7742E"/>
<path d="M239.406 339.719H185.492V336.936H236.625V308.6H239.406V339.719Z" fill="#E7742E"/>
<path d="M186.858 344.273H174.821V318.619H186.858V344.273ZM177.602 341.49H184.076V321.402H177.602V341.49Z" fill="#E7742E"/>
<path d="M185.442 323.376H176.186V326.159H185.442V323.376Z" fill="#E7742E"/>
<path d="M185.442 328.031H176.186V330.814H185.442V328.031Z" fill="#E7742E"/>
<path d="M185.442 332.686H176.186V335.469H185.442V332.686Z" fill="#E7742E"/>
<path d="M185.442 337.341H176.186V340.124H185.442V337.341Z" fill="#E7742E"/>
<path d="M615.844 88.5916L614.68 86.0617C616.046 85.4039 617.361 84.6955 618.676 83.8859L620.143 86.264C618.726 87.1242 617.31 87.8832 615.844 88.5916Z" fill="#E7742E"/>
<path d="M625.554 82.1655L623.683 80.0908C630.46 73.9682 634.759 65.6192 635.72 56.5112C636.276 50.9958 635.669 45.6323 633.849 40.4205L636.479 39.5096C638.451 45.0756 639.109 50.8946 638.502 56.8148C637.44 66.5806 632.837 75.5875 625.554 82.1655Z" fill="#E7742E"/>
<path d="M595.512 15.8794L595.259 13.0964C596.878 12.9446 598.496 12.894 600.115 12.9446L600.013 15.7276C598.547 15.677 597.029 15.7276 595.512 15.8794Z" fill="#E7742E"/>
<path d="M562.385 47.8586L559.603 47.5044C560.362 41.6348 562.385 36.17 565.571 31.1606C570.882 22.8622 579.024 16.8914 588.533 14.3108L589.241 16.9926C580.44 19.3708 572.854 24.9368 567.898 32.628C564.964 37.2832 563.093 42.3938 562.385 47.8586Z" fill="#E7742E"/>
<path d="M598.951 83.7846C593.185 83.7846 587.369 82.1654 582.16 78.8258C567.746 69.5154 563.548 50.2368 572.854 35.7652C582.16 21.3442 601.429 17.1444 615.894 26.4548C630.359 35.7652 634.506 55.0438 625.2 69.5154C619.232 78.7246 609.167 83.7846 598.951 83.7846ZM599.052 24.279C589.746 24.279 580.592 28.8836 575.18 37.2832C566.734 50.4392 570.527 67.9974 583.677 76.4982C596.827 84.9484 614.377 81.1534 622.874 67.9974C631.32 54.8414 627.527 37.2832 614.377 28.7824C609.572 25.7464 604.262 24.279 599.052 24.279Z" fill="#E7742E"/>
<path d="M589.291 71.337C588.887 71.337 588.431 71.2864 588.077 71.2358L587.673 71.1346L585.245 68.7058L588.735 65.2144C589.494 64.4554 589.494 64.1518 589.494 64.1518C589.443 64 589.089 63.6458 588.937 63.494L588.077 62.6338C587.926 62.482 587.572 62.1278 587.42 62.0772C587.42 62.0772 587.066 62.0772 586.358 62.8362L582.868 66.3276L580.44 63.8988L580.339 63.494C579.834 60.964 581.047 57.422 583.121 55.4486C585.599 53.0704 588.583 52.9186 590.556 53.121L599.508 44.1648C599.255 42.242 599.457 39.206 601.834 36.7266C603.807 34.7026 607.347 33.4882 609.876 33.9436L610.28 34.0448L612.708 36.4736L609.218 39.965C608.46 40.724 608.46 41.0276 608.46 41.0276C608.46 41.1794 608.864 41.5336 609.016 41.6854L609.876 42.5456C610.027 42.6974 610.381 43.0516 610.533 43.1022C610.533 43.1022 610.887 43.1022 611.595 42.3432L615.085 38.8518L617.513 41.2806L617.614 41.6854C618.12 44.2154 616.906 47.7574 614.832 49.7308C612.354 52.109 609.37 52.2608 607.397 52.0584L598.445 61.0146C598.698 62.9374 598.547 65.9734 596.119 68.4528C594.399 70.1732 591.618 71.337 589.291 71.337ZM587.471 59.3448C587.572 59.3448 587.723 59.3448 587.825 59.3954C588.887 59.5472 589.544 60.205 590.05 60.711L590.91 61.5712C591.415 62.0772 592.073 62.735 592.225 63.7976C592.376 64.9108 591.871 66.024 590.657 67.2384L589.342 68.554C590.91 68.554 592.983 67.6938 594.096 66.53C595.967 64.6072 595.816 62.1278 595.563 60.8122L595.411 60.1038L606.386 49.1236L607.094 49.2754C608.409 49.5284 610.887 49.6802 612.809 47.808C613.972 46.6948 614.832 44.6202 614.832 43.0516L613.517 44.3672C610.584 47.302 608.662 45.4298 607.853 44.6202L606.993 43.76C606.538 43.3046 605.83 42.5962 605.678 41.5336C605.526 40.4204 606.032 39.3072 607.246 38.0928L608.561 36.7772C606.993 36.7772 604.919 37.6374 603.807 38.8012C601.986 40.724 602.087 43.2034 602.34 44.519L602.492 45.2274L591.517 56.2076L590.809 56.0558C589.494 55.8028 587.015 55.651 585.093 57.5232C583.93 58.6364 583.07 60.711 583.07 62.2796L584.385 60.964C585.447 59.9014 586.459 59.3448 587.471 59.3448Z" fill="#E7742E"/>
<path d="M600.469 155.08H597.687V151.791H600.469V155.08ZM600.469 147.338H597.687V142.886H600.469V147.338ZM600.469 138.483H597.687V134.031H600.469V138.483ZM600.469 129.628H597.687V125.175H600.469V129.628ZM600.469 120.773H597.687V116.32H600.469V120.773ZM600.469 111.918H597.687V107.465H600.469V111.918ZM600.469 103.063H597.687V98.6105H600.469V103.063ZM600.469 94.2083H597.687V89.7555H600.469V94.2083Z" fill="#E7742E"/>
<path d="M411.415 112.627C410.657 112.627 409.848 112.526 409.089 112.273C404.841 111.008 402.463 106.504 403.728 102.254C404.992 98.0033 409.494 95.6251 413.742 96.8901C417.99 98.1551 420.367 102.659 419.103 106.909C418.041 110.4 414.855 112.627 411.415 112.627ZM406.408 103.063C406.004 104.43 406.156 105.846 406.813 107.061C407.47 108.275 408.583 109.186 409.898 109.591C412.68 110.451 415.613 108.882 416.422 106.099C417.282 103.316 415.714 100.382 412.933 99.5719C410.151 98.7623 407.218 100.28 406.408 103.063Z" fill="#E7742E"/>
<path d="M411.415 126.137C410.05 126.137 408.684 125.985 407.369 125.732L406.509 125.58L405.093 119.964C403.728 119.407 402.463 118.699 401.3 117.788L395.737 119.407L395.13 118.749C393.36 116.675 391.994 114.296 391.084 111.716L390.78 110.856L394.978 106.808C394.776 105.34 394.776 103.873 394.978 102.456L390.78 98.408L391.084 97.5478C391.994 94.9672 393.36 92.589 395.13 90.5144L395.686 89.8566L401.25 91.4758C402.413 90.565 403.677 89.8566 405.043 89.3L406.459 83.6834L407.319 83.5316C409.999 83.0256 412.781 83.0256 415.411 83.5316L416.271 83.6834L417.687 89.3C419.052 89.8566 420.317 90.565 421.48 91.4758L427.043 89.8566L427.65 90.5144C429.42 92.589 430.786 94.9672 431.696 97.5478L432 98.408L427.802 102.456C428.004 103.923 428.004 105.391 427.802 106.808L432 110.856L431.696 111.716C430.786 114.296 429.42 116.675 427.65 118.749L427.043 119.407L421.48 117.788C420.317 118.699 419.052 119.407 417.687 119.964L416.321 125.58L415.461 125.732C414.146 125.985 412.781 126.137 411.415 126.137ZM408.735 123.151C410.505 123.404 412.275 123.404 414.045 123.151L415.36 117.838L416.068 117.585C417.636 117.029 419.052 116.219 420.266 115.157L420.822 114.701L426.082 116.219C427.195 114.802 428.105 113.284 428.763 111.615L424.818 107.82L424.97 107.111C425.273 105.492 425.273 103.873 424.97 102.254L424.818 101.545L428.763 97.7502C428.105 96.0804 427.195 94.5624 426.082 93.1456L420.822 94.6636L420.266 94.2082C419.002 93.1456 417.586 92.336 416.068 91.7794L415.36 91.5264L414.045 86.2134C412.275 85.9604 410.505 85.9604 408.735 86.2134L407.42 91.5264L406.712 91.7794C405.144 92.336 403.728 93.1456 402.463 94.2082L401.907 94.6636L396.647 93.1456C395.534 94.5624 394.624 96.0804 393.967 97.7502L397.911 101.545L397.76 102.254C397.456 103.873 397.456 105.492 397.76 107.111L397.911 107.82L393.967 111.615C394.624 113.284 395.534 114.802 396.647 116.219L401.907 114.701L402.463 115.157C403.728 116.219 405.144 117.029 406.661 117.585L407.369 117.838L408.735 123.151Z" fill="#E7742E"/>
<path d="M436.147 141.418L434.579 139.09C438.979 136.156 442.722 132.411 445.706 128.009C450.157 121.431 452.685 113.79 452.938 105.897L455.72 105.998C455.467 114.448 452.787 122.595 448.032 129.628C444.846 134.283 440.851 138.281 436.147 141.418Z" fill="#E7742E"/>
<path d="M397.558 146.731C389.567 144.1 382.486 139.242 377.074 132.664C373.483 128.262 370.803 123.303 369.083 117.94L371.713 117.079C373.281 122.139 375.81 126.795 379.198 130.893C384.205 137.066 390.881 141.62 398.367 144.049L397.558 146.731Z" fill="#E7742E"/>
<path d="M445.301 80.192C444.29 78.8258 443.228 77.4597 442.064 76.2453L444.087 74.373C445.301 75.6886 446.465 77.1055 447.527 78.5729L445.301 80.192Z" fill="#E7742E"/>
<path d="M436.754 71.3877C428.561 65.1133 418.344 62.1279 408.027 62.9375C401.806 63.4435 395.939 65.2651 390.578 68.3517L389.162 65.9229C394.877 62.6339 401.148 60.6605 407.774 60.1039C418.8 59.1931 429.673 62.3809 438.423 69.1107L436.754 71.3877Z" fill="#E7742E"/>
<path d="M411.415 139.495C396.748 139.495 383.042 130.134 378.238 115.46C376.215 109.287 375.962 102.658 377.479 96.3335L380.159 96.9913C378.743 102.81 378.996 108.882 380.868 114.549C386.38 131.399 404.537 140.608 421.379 135.093C438.221 129.578 447.426 111.412 441.913 94.5625C436.4 77.7127 418.243 68.5035 401.401 74.0189C394.27 76.3465 388.15 81.1535 384.206 87.4785L381.828 86.0111C386.127 79.1295 392.803 73.9177 400.542 71.3877C418.85 65.4169 438.575 75.3851 444.543 93.7023C450.511 111.969 440.547 131.753 422.239 137.724C418.698 138.939 415.006 139.495 411.415 139.495Z" fill="#E7742E"/>
<path d="M413.084 186.857H410.303V182.404H413.084V186.857ZM413.084 178.002H410.303V173.549H413.084V178.002ZM413.084 169.147H410.303V164.694H413.084V169.147ZM413.084 160.292H410.303V155.839H413.084V160.292ZM413.084 151.437H410.303V146.984H413.084V151.437Z" fill="#E7742E"/>
<path d="M803.531 195.813H795.186V198.596H803.531V195.813Z" fill="#E7742E"/>
<path d="M821.03 213.219H820.727C815.214 213.219 810.207 209.728 808.336 204.567L807.274 201.683L809.904 200.721L810.966 203.605C812.483 207.704 816.377 210.436 820.727 210.436H821.03C823.964 210.436 826.796 209.171 828.718 206.996C830.69 204.82 831.651 201.885 831.398 199.001L829.628 180.886C829.021 174.713 823.913 170.007 817.692 170.007C814.658 170.007 811.826 171.12 809.6 173.144L807.678 174.865H791.545L789.37 172.942C787.195 171.019 784.363 169.956 781.48 169.956C775.259 169.956 770.151 174.612 769.544 180.835L767.774 198.95C767.47 201.885 768.482 204.769 770.454 206.945C772.427 209.121 775.259 210.386 778.142 210.386C782.441 210.386 786.335 207.704 787.853 203.656L789.016 200.62L791.595 201.632L790.432 204.668C788.51 209.779 783.554 213.169 778.091 213.169C774.399 213.169 770.808 211.6 768.33 208.817C765.852 206.085 764.588 202.391 764.942 198.647L766.712 180.532C767.47 172.891 773.792 167.173 781.429 167.173C785.02 167.173 788.459 168.489 791.191 170.817L792.556 172.031H806.566L807.678 171.019C810.41 168.54 813.95 167.173 817.642 167.173C825.329 167.173 831.651 172.942 832.359 180.532L834.13 198.647C834.484 202.34 833.27 206.034 830.741 208.817C828.313 211.651 824.773 213.219 821.03 213.219Z" fill="#E7742E"/>
<path d="M804.947 174.915H794.529V170.918C794.529 169.4 795.793 168.135 797.31 168.135H802.166C803.683 168.135 804.947 169.4 804.947 170.918V174.915ZM797.31 172.132H802.166V170.867H797.31V172.132Z" fill="#E7742E"/>
<path d="M786.74 182.05H783.958V190.551H786.74V182.05Z" fill="#E7742E"/>
<path d="M789.623 184.884H781.227V187.667H789.623V184.884Z" fill="#E7742E"/>
<path d="M782.239 196.37C777.788 195.004 774.753 190.956 774.753 186.25C774.753 180.431 779.508 175.674 785.324 175.674C791.14 175.674 795.894 180.431 795.894 186.25C795.894 187.414 795.692 188.577 795.338 189.691L792.708 188.78C793.011 187.97 793.112 187.11 793.112 186.25C793.112 181.949 789.623 178.457 785.324 178.457C781.025 178.457 777.535 181.949 777.535 186.25C777.535 189.691 779.76 192.676 783.048 193.688L782.239 196.37Z" fill="#E7742E"/>
<path d="M815.973 196.775L815.67 193.992C819.615 193.536 822.599 190.247 822.599 186.25C822.599 181.949 819.109 178.457 814.81 178.457C810.511 178.457 807.021 181.949 807.021 186.25C807.021 186.756 807.072 187.312 807.173 187.818C807.223 188.071 807.274 188.324 807.375 188.577L804.745 189.387C804.644 189.033 804.543 188.729 804.492 188.375C804.341 187.667 804.29 186.958 804.29 186.25C804.29 180.431 809.044 175.674 814.86 175.674C820.677 175.674 825.431 180.431 825.431 186.25C825.33 191.664 821.334 196.218 815.973 196.775Z" fill="#E7742E"/>
<path d="M808.437 202.34C804.998 202.34 802.166 199.507 802.166 196.066C802.166 192.625 804.998 189.792 808.437 189.792C811.876 189.792 814.708 192.625 814.708 196.066C814.708 199.507 811.876 202.34 808.437 202.34ZM808.437 192.575C806.515 192.575 804.947 194.143 804.947 196.066C804.947 197.989 806.515 199.557 808.437 199.557C810.359 199.557 811.927 197.989 811.927 196.066C811.927 194.143 810.359 192.575 808.437 192.575Z" fill="#E7742E"/>
<path d="M790.331 202.34C786.892 202.34 784.059 199.507 784.059 196.066C784.059 192.625 786.892 189.792 790.331 189.792C793.77 189.792 796.602 192.625 796.602 196.066C796.602 199.507 793.77 202.34 790.331 202.34ZM790.331 192.575C788.409 192.575 786.841 194.143 786.841 196.066C786.841 197.989 788.409 199.557 790.331 199.557C792.253 199.557 793.821 197.989 793.821 196.066C793.821 194.143 792.253 192.575 790.331 192.575Z" fill="#E7742E"/>
<path d="M816.125 182.05H813.343V184.58H816.125V182.05Z" fill="#E7742E"/>
<path d="M819.109 184.681H816.58V187.464H819.109V184.681Z" fill="#E7742E"/>
<path d="M816.125 188.021H813.343V190.551H816.125V188.021Z" fill="#E7742E"/>
<path d="M813.04 184.681H810.511V187.464H813.04V184.681Z" fill="#E7742E"/>
<path d="M845.661 283.047H770.96C764.284 283.047 758.822 277.583 758.822 270.903V247.374C758.822 240.695 764.284 235.23 770.96 235.23H845.661C852.337 235.23 857.799 240.695 857.799 247.374V270.903C857.799 277.583 852.388 283.047 845.661 283.047ZM770.96 238.013C765.802 238.013 761.604 242.213 761.604 247.374V270.903C761.604 276.065 765.802 280.264 770.96 280.264H845.661C850.82 280.264 855.018 276.065 855.018 270.903V247.374C855.018 242.213 850.82 238.013 845.661 238.013H770.96Z" fill="#E7742E"/>
<path d="M829.426 274.597H785.88V244.49H829.426V274.597ZM788.662 271.814H826.644V247.223H788.662V271.814Z" fill="#E7742E"/>
<path d="M774.349 265.135C768.684 265.135 764.082 260.53 764.082 254.863C764.082 249.196 768.684 244.591 774.349 244.591C780.014 244.591 784.616 249.196 784.616 254.863C784.616 260.53 779.963 265.135 774.349 265.135ZM774.349 247.425C770.252 247.425 766.864 250.765 766.864 254.914C766.864 259.012 770.202 262.403 774.349 262.403C778.446 262.403 781.834 259.063 781.834 254.914C781.784 250.765 778.446 247.425 774.349 247.425Z" fill="#E7742E"/>
<path d="M775.714 249.398H772.933V260.328H775.714V249.398Z" fill="#E7742E"/>
<path d="M779.76 253.497H768.836V256.28H779.76V253.497Z" fill="#E7742E"/>
<path d="M841.463 265.135C835.799 265.135 831.196 260.53 831.196 254.863C831.196 249.196 835.799 244.591 841.463 244.591C847.128 244.591 851.73 249.196 851.73 254.863C851.73 260.53 847.128 265.135 841.463 265.135ZM841.463 247.425C837.367 247.425 833.978 250.765 833.978 254.914C833.978 259.012 837.316 262.403 841.463 262.403C845.61 262.403 848.948 259.063 848.948 254.914C848.898 250.765 845.56 247.425 841.463 247.425Z" fill="#E7742E"/>
<path d="M842.829 250.663H840.047V253.295H842.829V250.663Z" fill="#E7742E"/>
<path d="M845.964 253.497H843.335V256.28H845.964V253.497Z" fill="#E7742E"/>
<path d="M842.829 256.938H840.047V259.569H842.829V256.938Z" fill="#E7742E"/>
<path d="M839.643 253.497H837.013V256.28H839.643V253.497Z" fill="#E7742E"/>
<path d="M779.558 275.711C777.232 275.711 775.36 273.838 775.36 271.511C775.36 269.183 777.232 267.311 779.558 267.311C781.885 267.311 783.756 269.183 783.756 271.511C783.756 273.838 781.834 275.711 779.558 275.711ZM779.558 270.094C778.799 270.094 778.142 270.752 778.142 271.511C778.142 272.27 778.799 272.928 779.558 272.928C780.317 272.928 780.974 272.27 780.974 271.511C780.974 270.752 780.317 270.094 779.558 270.094Z" fill="#E7742E"/>
<path d="M836.305 275.711C833.978 275.711 832.107 273.838 832.107 271.511C832.107 269.183 833.978 267.311 836.305 267.311C838.631 267.311 840.502 269.183 840.502 271.511C840.502 273.838 838.631 275.711 836.305 275.711ZM836.305 270.094C835.546 270.094 834.888 270.752 834.888 271.511C834.888 272.27 835.546 272.928 836.305 272.928C837.063 272.928 837.721 272.27 837.721 271.511C837.721 270.752 837.063 270.094 836.305 270.094Z" fill="#E7742E"/>
<path d="M827.266 245.594L810.763 256.31L812.278 258.644L828.78 247.928L827.266 245.594Z" fill="#E7742E"/>
<path d="M807.521 258.405L793.583 267.589L795.113 269.913L809.051 260.729L807.521 258.405Z" fill="#E7742E"/>
<path d="M739.654 301.516H736.872V144.049H895.428V271.308H892.646V146.832H739.654V301.516Z" fill="#E7742E"/>
<path d="M856.434 292.155H746.583V155.687H885.312V254.863H882.531V158.47H749.364V289.372H856.434V292.155Z" fill="#E7742E"/>
<path d="M872.214 218.178H747.948V220.961H872.214V218.178Z" fill="#E7742E"/>
<path d="M852.944 216.053C850.719 216.053 848.898 214.231 848.898 212.005V171.272C848.898 170.564 848.342 170.007 847.634 170.007H847.28C846.571 170.007 846.015 170.564 846.015 171.272V212.005C846.015 214.231 844.194 216.053 841.969 216.053H841.716C839.491 216.053 837.67 214.231 837.67 212.005V178.052C837.67 170.817 831.803 164.947 824.571 164.947H804.796C802.773 164.947 801.104 166.617 801.104 168.641H798.322C798.322 165.048 801.205 162.164 804.796 162.164H824.571C833.321 162.164 840.452 169.299 840.452 178.052V212.005C840.452 212.713 841.008 213.27 841.716 213.27H841.969C842.677 213.27 843.233 212.713 843.233 212.005V171.272C843.233 169.046 845.054 167.224 847.28 167.224H847.634C849.859 167.224 851.68 169.046 851.68 171.272V212.005C851.68 212.713 852.236 213.27 852.944 213.27C853.652 213.27 854.208 212.713 854.208 212.005V196.572C854.208 187.768 861.39 180.582 870.19 180.582V183.365C862.907 183.365 856.99 189.286 856.99 196.572V212.005C856.99 214.282 855.169 216.053 852.944 216.053Z" fill="#E7742E"/>
<path d="M881.267 185.946H873.073C870.696 185.946 868.774 184.023 868.774 181.645C868.774 179.267 870.696 177.344 873.073 177.344H881.267V185.946ZM873.073 180.127C872.264 180.127 871.556 180.785 871.556 181.645C871.556 182.455 872.213 183.163 873.073 183.163H878.485V180.178H873.073V180.127Z" fill="#E7742E"/>
<path d="M1062.38 392.242H1057.93V389.459H1062.38V392.242ZM1053.53 392.242H1049.08V389.459H1053.53V392.242ZM1044.68 392.242H1040.23V389.459H1044.68V392.242ZM1035.83 392.242H1031.38V389.459H1035.83V392.242ZM1026.98 392.242H1022.53V389.459H1026.98V392.242ZM1018.13 392.242H1013.67V389.459H1018.13V392.242ZM1009.27 392.242H1004.82V389.459H1009.27V392.242ZM1000.42 392.242H995.973V389.459H1000.42V392.242ZM991.573 392.242H987.122V389.459H991.573V392.242ZM982.722 392.242H978.271V389.459H982.722V392.242ZM973.871 392.242H969.42V389.459H973.871V392.242ZM965.02 392.242H960.57V389.459H965.02V392.242ZM956.17 392.242H951.972V389.459H956.17V392.242Z" fill="#E7742E"/>
<path d="M187.667 239.481H184.885V148.603H341.317V231.081H338.535V151.386H187.667V239.481Z" fill="#E7742E"/>
<path d="M331.202 254.914H328.42V162.215H197.327V239.38H194.545V159.432H331.202V254.914Z" fill="#E7742E"/>
<path d="M310.617 233.257H195.911V236.04H310.617V233.257Z" fill="#E7742E"/>
<path d="M766.56 365.07H749.213C744.307 365.07 740.362 361.073 740.362 356.215C740.362 351.307 744.357 347.36 749.213 347.36H766.56V365.07ZM749.213 350.143C745.875 350.143 743.144 352.875 743.144 356.215C743.144 359.555 745.875 362.287 749.213 362.287H763.779V350.143H749.213Z" fill="#E7742E"/>
<path d="M739.047 351.459H708.802V354.242H739.047V351.459Z" fill="#E7742E"/>
<path d="M739.047 358.239H708.802V361.022H739.047V358.239Z" fill="#E7742E"/>
<path d="M710.724 366.841H702.076V345.64H710.724V366.841ZM704.857 364.058H707.942V348.423H704.857V364.058Z" fill="#E7742E"/>
<path d="M695.855 366.841H673.753C669.606 366.841 666.217 363.451 666.217 359.302V353.179C666.217 349.03 669.606 345.64 673.753 345.64H697.271V347.057C697.271 348.322 698.283 349.334 699.547 349.334H699.8C701.064 349.334 702.076 348.322 702.076 347.057H704.857C704.857 349.84 702.581 352.117 699.8 352.117H699.547C697.22 352.117 695.248 350.548 694.641 348.423H673.753C671.123 348.423 668.999 350.548 668.999 353.179V359.302C668.999 361.933 671.123 364.058 673.753 364.058H694.641C695.248 361.882 697.22 360.314 699.547 360.314H699.8C702.581 360.314 704.857 362.591 704.857 365.374L702.076 365.424C702.076 364.109 701.064 363.097 699.8 363.097H699.547C698.283 363.097 697.271 364.109 697.271 365.374V366.79L695.855 366.841Z" fill="#E7742E"/>
<path d="M693.073 361.376H677.647C674.815 361.376 672.489 359.049 672.489 356.215C672.489 353.381 674.815 351.054 677.647 351.054H693.073V353.837H677.647C676.332 353.837 675.27 354.899 675.27 356.215C675.27 357.531 676.332 358.593 677.647 358.593H693.073V361.376Z" fill="#E7742E"/>
<path d="M699.952 400.743C695.198 400.035 691.607 395.683 691.607 390.674C691.607 385.563 695.248 381.212 700.053 380.554L700.407 383.337C696.968 383.792 694.338 386.98 694.338 390.674C694.338 394.368 696.917 397.505 700.306 398.011L699.952 400.743Z" fill="#E7742E"/>
<path d="M634.81 401.452L634.456 398.669C637.895 398.213 640.525 395.025 640.525 391.332C640.525 387.638 637.945 384.501 634.557 383.995L634.961 381.262C639.715 381.97 643.306 386.322 643.306 391.332C643.256 396.493 639.614 400.794 634.81 401.452Z" fill="#E7742E"/>
<path d="M633.899 406.309C627.881 406.309 622.621 403.526 620.244 399.073L620.092 398.77V394.873H630.612C632.129 393.608 633.646 391.787 633.646 390.977C633.646 390.117 632.129 388.346 630.612 387.081H620.092V383.286L620.244 382.982C622.671 378.58 628.032 375.696 633.849 375.696C642.042 375.696 648.667 382.578 648.667 390.977C648.667 395.076 647.15 398.871 644.318 401.806C641.587 404.74 637.844 406.309 633.899 406.309ZM622.874 398.061C624.846 401.451 629.044 403.526 633.899 403.526C637.086 403.526 640.12 402.21 642.396 399.883C644.672 397.505 645.936 394.367 645.936 391.028C645.936 384.146 640.525 378.53 633.899 378.53C629.297 378.53 624.897 380.756 622.874 384.045V384.298H631.573L631.927 384.602C632.685 385.209 636.428 388.245 636.428 390.977C636.428 393.71 632.685 396.796 631.927 397.353L631.573 397.656H622.874V398.061Z" fill="#E7742E"/>
<path d="M686.448 386.17H650.943V388.953H686.448V386.17Z" fill="#E7742E"/>
<path d="M701.317 405.955C695.248 405.955 690.039 402.413 687.763 396.695L690.342 395.633C692.213 400.237 696.411 403.121 701.317 403.121C705.92 403.121 710.32 400.895 712.343 397.606V397.353H703.644L703.29 397.049C702.531 396.442 698.788 393.406 698.788 390.674C698.788 387.941 702.531 384.855 703.29 384.298L703.644 383.995H712.343V383.59C710.37 380.2 706.172 378.125 701.317 378.125C696.614 378.125 692.315 381.06 690.291 385.563L687.763 384.45C690.241 378.935 695.551 375.342 701.317 375.342C707.336 375.342 712.596 378.125 714.973 382.578L715.124 382.881V386.778H704.605C703.087 388.043 701.57 389.864 701.57 390.674C701.57 391.534 703.087 393.305 704.605 394.57H715.124V398.365L714.973 398.669C712.494 403.121 707.133 405.955 701.317 405.955Z" fill="#E7742E"/>
<path d="M686.954 392.748H651.449V395.531H686.954V392.748Z" fill="#E7742E"/>
<path d="M106.037 407.473H52.7303V404.69H103.256V373.166H20.0076V407.119H17.226V370.383H106.037V407.473Z" fill="#E7742E"/>
<path d="M61.6317 397.909C56.9787 397.909 53.2361 394.114 53.2361 389.51C53.2361 384.855 57.0293 381.11 61.6317 381.11C66.2847 381.11 70.0273 384.905 70.0273 389.51C70.0779 394.114 66.2847 397.909 61.6317 397.909ZM61.6317 383.843C58.5466 383.843 56.0178 386.373 56.0178 389.459C56.0178 392.546 58.5466 395.076 61.6317 395.076C64.7168 395.076 67.2456 392.546 67.2456 389.459C67.2962 386.373 64.7674 383.843 61.6317 383.843Z" fill="#E7742E"/>
<path d="M681.491 219.646L670.972 211.094C667.836 208.564 665.358 205.124 663.739 201.227C661.969 197.027 661.362 192.322 661.918 187.565L662.677 181.19L664.194 181.544C664.194 181.544 667.229 182.202 669.252 180.582C670.618 179.52 671.275 177.547 671.275 174.865V173.448H688.167V176.231H674.006C673.753 179.166 672.742 181.341 670.972 182.758C668.999 184.327 666.622 184.529 665.105 184.428L664.7 187.869C664.194 192.17 664.751 196.37 666.319 200.114C667.785 203.605 670.011 206.641 672.742 208.868L681.491 216.003L690.19 208.868C692.922 206.591 695.147 203.605 696.614 200.114C698.181 196.37 698.738 192.17 698.232 187.869L697.827 184.276C696.26 184.276 693.781 184.023 691.758 182.353C689.786 180.684 688.774 178.154 688.774 174.713H691.556C691.556 177.243 692.213 179.065 693.528 180.178C695.602 181.949 698.788 181.392 698.839 181.392L700.306 181.139L701.064 187.515C701.621 192.271 701.014 196.977 699.244 201.126C697.625 205.022 695.147 208.413 692.011 210.943L681.491 219.646Z" fill="#E7742E"/>
<path d="M681.441 206.793L671.174 195.56V184.023L682.301 196.268L692.062 188.021V196.876H689.28V194.042L682.048 200.165L673.956 191.208V194.447L681.643 202.948L687.459 197.989L689.229 200.114L681.441 206.793Z" fill="#E7742E"/>
<path d="M681.188 227.084C663.082 227.084 648.364 212.359 648.364 194.244C648.364 176.13 663.082 161.405 681.188 161.405C699.294 161.405 714.012 176.13 714.012 194.244C714.012 212.359 699.294 227.084 681.188 227.084ZM681.188 164.239C664.65 164.239 651.146 177.698 651.146 194.295C651.146 210.841 664.599 224.351 681.188 224.351C697.777 224.351 711.23 210.892 711.23 194.295C711.23 177.698 697.777 164.239 681.188 164.239Z" fill="#E7742E"/>
<path d="M675.321 154.068L674.917 151.336C676.99 151.032 679.064 150.88 681.188 150.88V153.663C679.215 153.613 677.243 153.764 675.321 154.068Z" fill="#E7742E"/>
<path d="M691.05 236.546L690.443 233.814C708.903 229.513 721.8 213.219 721.8 194.244C721.8 191.917 721.598 189.539 721.193 187.262L723.925 186.806C724.329 189.235 724.582 191.765 724.582 194.244C724.582 204.111 721.193 213.776 715.023 221.417C708.954 229.007 700.457 234.37 691.05 236.546Z" fill="#E7742E"/>
<path d="M681.188 237.71V234.927C683.059 234.927 684.93 234.775 686.751 234.522L687.105 237.255C685.183 237.558 683.211 237.71 681.188 237.71Z" fill="#E7742E"/>
<path d="M642.194 213.371C639.26 207.4 637.794 200.974 637.794 194.244C637.794 176.332 648.516 160.494 665.155 153.866L666.167 156.446C650.589 162.619 640.525 177.445 640.525 194.244C640.525 200.519 641.941 206.54 644.672 212.106L642.194 213.371Z" fill="#E7742E"/>
<path d="M474.534 58.7377H471.753V47.2009C471.753 46.8973 471.601 46.6443 471.348 46.5431C469.072 48.8201 465.987 50.1357 462.75 50.1357C456.074 50.1357 450.662 44.7215 450.662 38.0423C450.662 31.3631 456.074 25.9489 462.75 25.9489H464.166V26.0501C466.897 26.3537 469.426 27.6187 471.399 29.5415C471.651 29.3897 471.803 29.1367 471.803 28.8837V0.598267H500.025C501.997 0.598267 503.615 2.21747 503.615 4.19087V4.89927L503.11 5.30407C501.036 7.07507 499.873 9.65567 499.873 12.3881V13.2483C500.328 18.0047 504.323 21.7491 509.179 21.7491C514.338 21.7491 518.485 17.5493 518.485 12.4387C518.485 9.70626 517.322 7.17626 515.248 5.35466L514.742 4.94987V4.24146C514.742 2.26806 516.361 0.64887 518.333 0.64887H548.628V36.5243H545.846V3.43187H518.333C518.03 3.43187 517.777 3.58367 517.676 3.78607C519.951 6.06307 521.266 9.14967 521.266 12.3881C521.266 19.0673 515.855 24.4815 509.179 24.4815C502.503 24.4815 497.091 19.0673 497.091 12.3881V10.9713H497.192C497.496 8.23887 498.76 5.70887 500.682 3.73547C500.53 3.53306 500.277 3.38127 500.025 3.38127H474.585V28.8331C474.585 30.8065 472.966 32.4257 470.994 32.4257H470.286L469.881 31.9197C468.111 29.8451 465.532 28.6813 462.801 28.6813H461.941C457.187 29.1367 453.444 33.1341 453.444 37.9917C453.444 43.1529 457.642 47.3021 462.75 47.3021C465.481 47.3021 468.01 46.1383 469.831 44.0637L470.235 43.5577H470.943C472.916 43.5577 474.534 45.1769 474.534 47.1503V58.7377Z" fill="#E7742E"/>
<path d="M301.615 147.085C301.564 147.085 301.564 147.085 301.615 147.085H300.199V146.984C297.721 146.68 295.394 145.517 293.624 143.746L293.573 143.796C293.523 143.847 293.371 143.999 293.371 144.252H290.589C290.589 143.341 290.943 142.481 291.601 141.823C292.258 141.165 293.118 140.811 294.029 140.811H294.737L295.141 141.266C296.76 143.139 299.086 144.252 301.564 144.252H302.323C306.672 143.847 310.061 140.204 310.112 135.751C310.112 133.474 309.252 131.349 307.633 129.73C306.015 128.11 303.891 127.2 301.615 127.2C299.137 127.2 296.81 128.262 295.192 130.134L294.787 130.59H294.079C292.208 130.59 290.69 129.072 290.69 127.149L290.741 102.355H292.107V100.938H300.047V103.721H293.472L293.422 127.149C293.422 127.351 293.523 127.503 293.674 127.655C295.799 125.58 298.631 124.366 301.615 124.366C301.615 124.366 301.615 124.366 301.665 124.366C304.7 124.366 307.532 125.58 309.656 127.706C311.781 129.831 312.944 132.715 312.944 135.7C312.893 142.025 307.836 147.085 301.615 147.085Z" fill="#E7742E"/>
<path d="M359.878 170.614H358.058V169.198H357.097L357.147 144.404C357.147 144.201 357.046 144.049 356.894 143.898C354.77 145.972 351.938 147.187 348.954 147.187C342.733 147.187 337.676 142.076 337.676 135.852C337.676 129.628 342.784 124.568 349.005 124.568C349.005 124.568 349.005 124.568 349.055 124.568H350.421V124.67C352.899 124.973 355.225 126.137 356.996 127.908L357.046 127.857C357.097 127.807 357.249 127.655 357.249 127.402L357.299 103.974L333.882 103.924C332.972 103.924 332.112 103.569 331.455 102.912C330.797 102.254 330.443 101.394 330.443 100.483V99.7743L330.898 99.3695C333.023 97.5479 334.085 94.8661 333.832 92.0325C333.427 88.0857 330.291 84.8473 326.347 84.3919C323.868 84.0883 321.491 84.8473 319.671 86.5171C318.002 87.9845 316.99 90.0591 316.838 92.2855V92.8927C316.838 95.3721 317.9 97.7503 319.772 99.3695L320.227 99.7743V100.483C320.227 102.355 318.71 103.873 316.838 103.873H309.05V101.09H316.838C317.041 101.09 317.192 100.989 317.344 100.837C315.574 99.0659 314.461 96.7383 314.158 94.2589H314.057L314.006 92.8421C314.006 89.6543 315.372 86.5677 317.799 84.4425C320.176 82.3173 323.413 81.3053 326.65 81.6595C331.91 82.2667 336.108 86.5171 336.613 91.7795C336.917 95.1697 335.754 98.5093 333.377 100.888L333.427 100.938C333.478 100.989 333.629 101.141 333.882 101.141L360.081 101.191L360.03 127.402C360.03 128.313 359.676 129.173 359.019 129.831C358.361 130.489 357.501 130.843 356.591 130.843H355.883L355.478 130.387C353.86 128.515 351.533 127.402 349.055 127.402H348.246C346.274 127.554 344.402 128.414 342.986 129.831C341.368 131.45 340.457 133.575 340.457 135.852C340.457 140.558 344.25 144.404 348.954 144.404C351.432 144.404 353.759 143.341 355.377 141.469L355.782 141.013H356.49C358.361 141.013 359.878 142.531 359.878 144.454V170.614Z" fill="#E7742E"/>
<path d="M125.762 264.224H119.642L119.693 235.079C119.693 234.826 119.592 234.623 119.44 234.471C119.39 234.421 119.339 234.37 119.238 234.32C116.608 237.001 112.865 238.368 109.072 237.963C103.256 237.356 98.6028 232.751 97.9453 226.932C97.5407 223.39 98.7039 219.848 101.081 217.217C103.458 214.586 106.847 213.068 110.387 213.068C110.387 213.068 110.387 213.068 110.438 213.068H111.803V213.169C114.635 213.472 117.316 214.788 119.288 216.863C119.541 216.711 119.744 216.407 119.744 216.104L119.794 188.324H121.21V186.958L148.976 187.009C151 187.009 152.618 188.678 152.618 190.652V191.36L152.163 191.765C150.039 193.587 148.774 196.268 148.774 199.102V200.013C148.976 202.29 149.937 204.364 151.556 205.984C153.377 207.805 155.804 208.817 158.434 208.817C161.014 208.817 163.441 207.805 165.262 205.984C167.083 204.162 168.094 201.733 168.094 199.102C168.094 196.268 166.88 193.587 164.756 191.765L164.301 191.36V190.652C164.301 188.628 165.919 187.009 167.942 187.009L181.901 186.907V189.69L167.993 189.842C167.639 189.842 167.386 190.045 167.234 190.298C169.612 192.625 170.926 195.864 170.926 199.203C170.926 202.543 169.612 205.68 167.234 208.008C164.857 210.335 161.772 211.651 158.434 211.651C158.434 211.651 158.434 211.651 158.384 211.651C155.046 211.651 151.91 210.335 149.583 207.957C147.206 205.579 145.942 202.442 145.942 199.102V197.736H146.043C146.347 194.902 147.662 192.22 149.735 190.247C149.583 189.994 149.28 189.792 148.976 189.792L122.576 189.741L122.525 216.104C122.525 218.128 120.907 219.747 118.884 219.747H118.176L117.771 219.291C115.95 217.166 113.27 215.901 110.438 215.901H109.578C107.15 216.104 104.874 217.267 103.205 219.089C101.334 221.164 100.474 223.845 100.778 226.679C101.283 231.182 104.874 234.775 109.426 235.23C112.612 235.534 115.647 234.37 117.771 231.941L118.176 231.486H118.884C119.845 231.486 120.755 231.891 121.463 232.549C122.171 233.257 122.525 234.168 122.525 235.129L122.475 261.492H125.813V264.224H125.762Z" fill="#E7742E"/>
<path d="M732.624 146.529L713.658 146.478C712.747 146.478 711.887 146.124 711.23 145.466C710.572 144.808 710.218 143.948 710.218 143.037V142.329L710.724 141.924C712.596 140.305 713.708 137.977 713.708 135.498V134.688C713.556 132.715 712.697 130.843 711.281 129.426C709.662 127.807 707.538 126.896 705.262 126.896C700.558 126.896 696.765 130.691 696.715 135.397C696.715 137.876 697.777 140.254 699.648 141.873L700.154 142.278V142.987C700.154 144.859 698.637 146.377 696.765 146.377L670.567 146.326L670.617 120.115C670.617 119.913 670.516 119.761 670.365 119.609C667.987 121.988 664.599 123.151 661.261 122.848C656.001 122.342 651.753 118.091 651.196 112.829C650.842 109.591 651.904 106.403 654.028 104.025C656.153 101.646 659.238 100.28 662.424 100.28H663.79V100.381C666.268 100.685 668.594 101.849 670.365 103.62L670.415 103.569C670.466 103.519 670.617 103.367 670.617 103.114L670.668 78.2693H672.084V76.9031L696.917 76.9537C697.827 76.9537 698.687 77.3079 699.345 77.9657C700.002 78.6235 700.356 79.4837 700.356 80.3945V81.1029L699.85 81.5077C697.979 83.1269 696.866 85.4545 696.866 87.9339V88.7435C697.018 90.7169 697.878 92.5891 699.294 94.0059C700.912 95.6251 703.037 96.5359 705.313 96.5359C707.589 96.5359 709.713 95.6757 711.331 94.0565C712.95 92.4373 713.86 90.3121 713.86 88.0351C713.86 85.5557 712.798 83.1775 710.927 81.5583L710.471 81.1535V80.4451C710.471 79.5343 710.825 78.6741 711.483 78.0163C712.14 77.3585 713 77.0043 713.911 77.0043L738.693 77.0549V78.4211H740.109V86.3653H737.327V79.7873L713.911 79.7367C713.708 79.7367 713.556 79.8379 713.455 79.9391L713.405 79.9897C715.478 82.1149 716.692 84.9991 716.692 87.9845C716.692 91.0205 715.478 93.8541 713.354 95.9793C711.23 98.1045 708.398 99.2683 705.363 99.2683C705.363 99.2683 705.363 99.2683 705.313 99.2683C702.278 99.2683 699.446 98.0539 697.322 95.9287C695.197 93.8035 694.034 90.9193 694.034 87.9339V86.5171H694.135C694.439 84.0377 695.602 81.7101 697.372 79.9391L697.322 79.8885C697.271 79.8379 697.119 79.6861 696.866 79.6861L673.45 79.6355L673.399 103.063C673.399 103.974 673.045 104.834 672.388 105.492C671.73 106.15 670.87 106.504 669.96 106.504H669.252L668.847 105.998C667.229 104.126 664.902 103.013 662.424 103.013H661.665C659.541 103.215 657.518 104.176 656.102 105.796C654.484 107.617 653.725 109.995 653.978 112.475C654.383 116.422 657.619 119.609 661.564 120.014C664.397 120.318 667.027 119.255 668.898 117.13L669.302 116.675H670.011C670.921 116.675 671.781 117.029 672.438 117.687C673.096 118.344 673.45 119.205 673.45 120.115L673.399 143.543L696.816 143.594C697.018 143.594 697.17 143.493 697.322 143.341C695.248 141.216 694.034 138.331 694.034 135.346C694.034 132.31 695.248 129.476 697.372 127.351C699.496 125.226 702.329 124.062 705.363 124.062C711.584 124.062 716.642 129.173 716.642 135.397V136.763H716.54C716.237 139.242 715.074 141.57 713.304 143.341C713.405 143.493 713.607 143.594 713.809 143.594L732.775 143.644L732.624 146.529Z" fill="#E7742E"/>
<path d="M739.907 135.346H737.125L737.176 120.369C737.176 118.496 738.693 116.978 740.564 116.978H741.272L741.677 117.434C743.498 119.559 746.178 120.622 749.01 120.369C752.955 119.964 756.192 116.827 756.647 112.88C756.9 110.4 756.192 108.022 754.523 106.201C753.056 104.531 750.983 103.519 748.757 103.367H748.151C745.672 103.367 743.346 104.43 741.727 106.302L741.323 106.757H740.615C738.743 106.757 737.226 105.239 737.226 103.316V95.5239H740.008V103.316C740.008 103.519 740.109 103.671 740.21 103.772L740.261 103.822C742.031 102.051 744.357 100.938 746.836 100.635V100.533L748.252 100.483C751.489 100.483 754.523 101.849 756.647 104.278C758.771 106.656 759.783 109.894 759.429 113.133C758.822 118.395 754.574 122.595 749.314 123.101C745.925 123.405 742.587 122.241 740.21 119.863C740.058 119.964 739.957 120.166 739.957 120.369L739.907 135.346Z" fill="#E7742E"/>
<path d="M376.518 225.92L376.265 180.127H364.683L384.104 158.723L403.525 180.127H391.944V195.56H389.162V177.344H397.203L384.104 162.872L370.955 177.344H379.047L379.3 225.869L376.518 225.92Z" fill="#E7742E"/>
<path d="M391.944 250.613H389.162V246.16H391.944V250.613ZM391.944 241.758H389.162V237.305H391.944V241.758ZM391.944 232.903H389.162V228.45H391.944V232.903ZM391.944 224.048H389.162V219.595H391.944V224.048ZM391.944 215.193H389.162V210.74H391.944V215.193ZM391.944 206.338H389.162V201.885H391.944V206.338Z" fill="#E7742E"/>
<path d="M621.508 180.279L621.154 116.725H612.556L627.021 100.736L641.536 116.725H632.938V127.048H630.157V113.942H635.265L627.021 104.885L618.828 113.942H623.936L624.29 180.279H621.508Z" fill="#E7742E"/>
<path d="M632.939 146.377H630.157V141.924H632.939V146.377ZM632.939 137.522H630.157V133.069H632.939V137.522Z" fill="#E7742E"/>
<path d="M658.075 317.506H655.293V302.427H661.514L651.449 291.346L641.384 302.427H647.605L647.656 315.887H644.874L644.824 305.21H635.062L651.449 287.197L667.836 305.21H658.075V317.506Z" fill="#E7742E"/>
<path d="M658.075 322.87H655.293V327.323H658.075V322.87Z" fill="#E7742E"/>
<path d="M679.064 312.294H676.282V307.841H679.064V312.294ZM679.064 303.439H676.282V298.986H679.064V303.439ZM679.064 294.584H676.282V290.131H679.064V294.584ZM679.064 285.729H676.282V281.276H679.064V285.729ZM679.064 276.874H676.282V272.421H679.064V276.874ZM679.064 268.019H676.282V263.566H679.064V268.019ZM679.064 259.164H676.282V254.711H679.064V259.164ZM679.064 250.309H676.282V245.856H679.064V250.309Z" fill="#E7742E"/>
<path d="M715.125 262.099H702.177V249.146H715.125V262.099ZM704.959 259.316H712.343V251.929H704.959V259.316Z" fill="#E7742E"/>
<path d="M715.125 279.758H702.177V266.805H715.125V279.758ZM704.959 276.975H712.343V269.588H704.959V276.975Z" fill="#E7742E"/>
<path d="M715.125 297.367H702.177V284.414H715.125V297.367ZM704.959 294.584H712.343V287.197H704.959V294.584Z" fill="#E7742E"/>
<path d="M435.388 395.127H367.819V397.91H435.388V395.127Z" fill="#E7742E"/>
<path d="M444.34 383.691H439.89V380.908H444.34V383.691ZM435.49 383.691H431.039V380.908H435.49V383.691ZM426.639 383.691H422.188V380.908H426.639V383.691ZM417.788 383.691H413.337V380.908H417.788V383.691ZM408.937 383.691H404.486V380.908H408.937V383.691ZM400.086 383.691H397.456V380.908H400.086V383.691Z" fill="#E7742E"/>
<path d="M322.907 228.146H290.64V204.87H322.907V228.146ZM293.422 225.363H320.126V207.653H293.422V225.363Z" fill="#E7742E"/>
<path d="M313.197 206.642H300.654V184.681H313.197V206.642ZM303.385 203.859H310.365V187.464H303.385V203.859Z" fill="#E7742E"/>
<path d="M317.749 223.593H295.748V209.475H317.749V223.593ZM298.53 220.81H314.967V212.258H298.53V220.81Z" fill="#E7742E"/>
<path d="M519.193 325.906H486.824V328.689H519.193V325.906Z" fill="#E7742E"/>
<path d="M566.077 113.487L562.789 112.171C562.89 111.918 572.298 87.9339 564.509 73.8671C561.677 68.7059 556.72 65.4675 549.892 64.2025L550.55 60.7111C558.49 62.1785 564.256 65.9735 567.645 72.1467C576.192 87.7315 566.481 112.424 566.077 113.487Z" fill="#0B1427"/>
<path d="M559.199 135.953L559.148 132.411C559.35 132.411 564.357 132.108 565.065 123.354C565.217 121.633 564.61 119.711 563.649 118.699C563.143 118.193 562.587 117.94 561.98 117.99L561.828 114.448C563.497 114.398 565.015 115.005 566.228 116.219C567.897 117.94 568.808 120.824 568.605 123.607C567.645 135.751 559.249 135.953 559.199 135.953Z" fill="#0B1427"/>
<path d="M490.718 140.912C489.808 140.912 481.615 140.558 480.755 128.97C480.401 124.163 483.537 120.217 488.089 119.761L488.443 123.303C485.813 123.556 484.093 125.833 484.295 128.717C484.953 137.522 490.415 137.37 490.617 137.37L490.769 140.912C490.82 140.912 490.769 140.912 490.718 140.912Z" fill="#0B1427"/>
<path d="M525.413 173.347C512.668 173.347 496.181 161.506 491.224 143.746C488.898 135.296 487.633 125.024 486.925 117.99L490.465 117.636C491.174 124.518 492.387 134.638 494.663 142.784C499.417 159.786 516.209 171.171 527.538 169.653L527.993 173.144C527.133 173.296 526.273 173.347 525.413 173.347Z" fill="#0B1427"/>
<path d="M506.043 104.278L505.487 100.786C537.704 95.6757 543.773 80.1415 545.492 65.6193L549.033 66.0241C547.262 80.9511 540.789 98.8129 506.043 104.278Z" fill="#0B1427"/>
<path d="M493.551 118.446L490.617 117.585C490.112 117.434 478.429 113.79 477.619 97.1937L481.16 97.0419C481.564 105.947 485.61 110.451 488.594 112.576C485.408 97.2949 486.116 86.0111 490.87 75.2333L494.107 76.6501C489.302 87.4785 488.948 99.0659 492.843 115.46L493.551 118.446Z" fill="#0B1427"/>
<path d="M492.337 114.651L489.505 112.525C491.022 110.501 492.64 108.579 494.208 106.706C501.036 98.5093 507.459 90.8181 506.549 77.8645L510.089 77.6115C511.151 91.9819 503.919 100.634 496.939 108.983C495.371 110.805 493.804 112.728 492.337 114.651Z" fill="#0B1427"/>
<path d="M480.401 121.279C469.881 104.075 466.745 88.6423 471.196 75.4357C476.355 60.1545 489.505 53.5765 494.967 51.4513C504.172 47.8587 515.804 45.9865 525.414 46.5937C537.906 47.3527 546.2 51.9573 549.437 59.9015L546.15 61.2171C540.283 46.7961 512.921 48.2129 496.282 54.7403C485.914 58.7883 477.822 66.9349 474.585 76.5489C470.488 88.7435 473.472 103.164 483.435 119.407L480.401 121.279Z" fill="#0B1427"/>
<path d="M512.381 127.755L508.811 128.143L509.192 131.664L512.762 131.276L512.381 127.755Z" fill="#0B1427"/>
<path d="M545.643 124.215L542.274 124.582L542.657 128.103L546.026 127.736L545.643 124.215Z" fill="#0B1427"/>
<path d="M528.577 162.152L525.197 162.397L525.453 165.93L528.833 165.685L528.577 162.152Z" fill="#0B1427"/>
<path d="M527.892 157.458C527.184 157.458 526.425 157.408 525.666 157.306C523.391 157.053 521.367 156.446 519.547 155.485L521.165 152.348C522.581 153.107 524.25 153.562 526.071 153.764C527.892 153.967 529.611 153.866 531.179 153.461L532.09 156.902C530.724 157.306 529.359 157.458 527.892 157.458Z" fill="#0B1427"/>
<path d="M509.128 130.286C506.953 130.286 504.728 129.982 502.705 129.325L503.767 125.934C507.965 127.25 513.326 126.896 516.714 124.973L518.434 128.06C515.855 129.527 512.517 130.286 509.128 130.286Z" fill="#0B1427"/>
<path d="M541.446 126.795C539.575 126.795 537.754 126.542 536.136 126.036L537.248 122.646C540.94 123.86 546.251 123.202 550.145 121.077L551.865 124.164C548.729 125.884 544.987 126.795 541.446 126.795Z" fill="#0B1427"/>
<path d="M526.122 146.023L525.717 142.481C527.285 142.329 529.106 142.127 530.876 141.975C531.786 141.874 532.697 141.772 533.556 141.722C533.455 141.216 533.354 140.609 533.253 139.951C532.393 135.296 530.977 127.453 530.218 122.696L530.168 122.443L530.218 122.19C530.674 118.901 532.444 116.068 535.276 113.993C538.816 111.412 543.823 110.35 548.274 111.159L547.617 114.651C544.127 113.993 540.081 114.853 537.299 116.877C535.883 117.889 534.163 119.66 533.708 122.393C534.517 127.149 535.883 134.739 536.692 139.344C537.046 141.216 537.248 142.531 537.35 143.037L537.653 144.91L535.782 145.112C534.416 145.264 532.798 145.416 531.179 145.567C529.51 145.669 527.74 145.871 526.122 146.023Z" fill="#0B1427"/>
<path d="M500.429 120.318L498.861 117.13C505.79 113.689 514.388 113.436 519.85 116.573L518.08 119.66C513.68 117.13 506.245 117.383 500.429 120.318Z" fill="#0B1427"/>
<path d="M527.639 173.195L527.487 169.653C537.653 169.147 553.939 156.699 556.265 138.332C557.378 129.729 557.226 122.139 556.923 115.258V115.157V115.055C558.136 100.584 555.254 98.0033 551.309 94.4107C548.274 91.6783 544.531 88.2881 542.003 79.4331L545.391 78.4717C547.617 86.3147 550.702 89.0977 553.635 91.7795C557.985 95.7263 561.778 99.1165 560.412 115.258C560.716 122.291 560.817 129.982 559.704 138.838C557.125 159.229 539.271 172.638 527.639 173.195Z" fill="#0B1427"/>
<path d="M525.666 182.05C523.239 182.05 520.558 181.847 517.726 181.291L518.384 177.799C532.798 180.532 541.396 174.308 541.446 174.257L543.57 177.091C543.216 177.344 536.793 182.05 525.666 182.05Z" fill="#0B1427"/>
<path d="M438.575 182.556L435.591 180.633C441.306 171.677 448.336 165.504 448.639 165.251L448.791 165.149C458.249 158.47 487.077 152.499 488.291 152.246L488.999 155.738C488.695 155.788 459.817 161.81 450.915 168.034C450.207 168.641 443.733 174.51 438.575 182.556Z" fill="#0B1427"/>
<path d="M585.296 331.168L583.07 328.436L632.837 287.956L636.479 277.785C638.653 270.65 639.513 267.108 640.12 262.807C636.529 234.522 621.963 210.335 609.168 189.033C606.133 184.023 603.301 179.267 600.721 174.662C597.737 169.349 592.225 165.301 588.128 162.872C584.132 160.494 569.111 159.179 563.7 158.875L563.902 155.333C565.976 155.434 584.537 156.547 589.999 159.836C594.5 162.518 600.519 166.971 603.857 172.942C606.436 177.496 609.269 182.202 612.253 187.211C625.301 208.918 640.069 233.459 643.711 262.605L643.761 262.807L643.711 263.01C643.104 267.614 642.244 271.308 639.918 278.797V278.848L635.922 290.03L585.296 331.168Z" fill="#0B1427"/>
<path d="M546.201 318.771C544.228 318.265 537.704 316.595 536.439 316.039C535.428 315.583 534.72 314.824 534.366 313.812C533.759 312.142 534.366 310.22 535.023 308.955L535.529 307.892L551.309 309.005L561.677 312.345L560.564 315.735L550.601 312.497L537.754 311.586C537.603 312.041 537.603 312.446 537.704 312.598C537.704 312.648 537.754 312.699 537.906 312.8C538.564 313.104 543.065 314.318 547.01 315.33L546.201 318.771Z" fill="#0B1427"/>
<path d="M551.005 345.842L550.853 342.3L563.143 341.895L570.578 337.746L572.298 340.833L564.155 345.387L551.005 345.842Z" fill="#0B1427"/>
<path d="M528.145 343.211L526.071 340.327L532.292 335.874L545.24 334.811L545.543 338.353L533.506 339.365L528.145 343.211Z" fill="#0B1427"/>
<path d="M520.761 340.225L518.788 337.291L526.425 332.18L539.12 329.498L539.878 332.99L527.791 335.52L520.761 340.225Z" fill="#0B1427"/>
<path d="M530.067 348.979C527.69 348.979 525.211 348.473 523.795 347.259C523.542 347.056 523.34 346.803 523.188 346.601C520.811 346.348 517.423 344.982 516.512 342.553C516.259 341.845 516.057 340.731 516.715 339.466C515.703 338.96 515.046 338.303 514.742 337.392C514.236 335.823 514.894 334.153 516.816 332.332L517.018 332.129C524.706 326.968 526.476 325.754 526.83 325.501L527.032 325.298L540.384 321.706L541.294 325.147L528.701 328.537C527.892 329.093 525.667 330.611 519.092 335.014C518.434 335.621 518.181 336.026 518.08 336.228C518.333 336.38 518.991 336.633 520.154 336.734L525.11 337.189L520.963 339.972C519.901 340.681 519.648 341.187 519.699 341.288C520.053 342.199 522.885 343.261 524.048 343.059L526.122 342.755L526.071 344.628C526.678 345.083 529.055 345.69 532.039 345.285L538.159 341.895L545.695 342.047L545.593 345.589L539.019 345.437L533.202 348.625L532.899 348.676C532.14 348.878 531.129 348.979 530.067 348.979Z" fill="#0B1427"/>
<path d="M517.777 331.117L515.4 328.486C516.259 327.727 517.423 326.563 518.637 325.298C522.733 321.149 525.363 318.569 527.336 318.113C532.95 316.848 545.897 315.33 546.453 315.229L546.706 315.178L554.343 316.696L553.635 320.188L546.554 318.771C544.633 319.024 533.101 320.441 528.094 321.554C526.931 321.858 523.188 325.703 521.165 327.727C519.901 329.093 518.687 330.308 517.777 331.117Z" fill="#0B1427"/>
<path d="M579.985 335.57L557.529 311.029L585.953 281.074L604.818 252.232L607.802 254.205L588.735 283.25L588.633 283.402L562.385 311.029L582.615 333.192L579.985 335.57Z" fill="#0B1427"/>
<path d="M588.94 230.405L585.645 231.7L595.939 257.933L599.234 256.639L588.94 230.405Z" fill="#0B1427"/>
<path d="M589.139 282.289L585.599 282.086L587.218 251.878L582.868 196.673L586.358 196.42L590.758 251.827L589.139 282.289Z" fill="#0B1427"/>
<path d="M431.494 345.033L391.792 277.077L394.068 261.846L394.169 261.644C395.18 259.316 418.901 204.972 431.443 187.262L434.326 189.336C422.39 206.186 399.176 259.063 397.507 262.858L395.484 276.368L432.505 339.669L458.805 318.265L445.756 294.736L445.706 294.534L437.563 267.21L415.259 272.472L414.45 269.031L439.991 263.01L448.993 293.37L463.306 319.176L431.494 345.033Z" fill="#0B1427"/>
<path d="M471.651 359.707C470.185 359.707 468.667 359.15 467.605 358.796C467.403 358.745 467.251 358.644 467.1 358.644L466.796 358.593L461.89 355.406L441.963 345.184L437.664 341.794L439.89 339.011L443.936 342.199L463.761 352.42L468.212 355.304C468.414 355.355 468.617 355.456 468.87 355.507C470.943 356.266 471.702 356.266 472.005 356.165C472.713 355.254 472.916 353.786 472.966 353.28L476.507 353.382C476.507 353.685 476.355 356.468 474.686 358.442C473.826 359.403 472.764 359.707 471.651 359.707Z" fill="#0B1427"/>
<path d="M503.464 359.352C503.362 359.352 503.312 359.352 503.211 359.352C501.946 359.302 500.176 358.442 495.827 352.572C493.955 350.093 492.387 347.613 491.831 346.804L478.074 337.038L480.148 334.154L494.461 344.324L494.663 344.628C497.799 349.587 502.098 355.203 503.514 355.81C504.172 355.81 504.677 355.456 504.981 355.153L497.546 342.3L481.311 327.373C480.502 326.614 479.491 326.209 478.378 326.159L457.338 324.944L457.541 321.402L478.58 322.617C480.502 322.718 482.272 323.477 483.688 324.793L500.328 340.124L509.027 355.203L508.622 356.063C508.066 357.278 506.296 359.352 503.464 359.352Z" fill="#0B1427"/>
<path d="M493.197 357.227C490.466 357.227 486.47 353.887 484.751 352.319L473.219 343.767L475.343 340.934L487.128 349.637C489.404 351.712 492.236 353.634 493.146 353.685C493.601 353.331 494.259 351.459 494.461 349.839L498.001 350.194C497.85 351.712 497.041 356.772 493.652 357.176C493.45 357.227 493.348 357.227 493.197 357.227Z" fill="#0B1427"/>
<path d="M482.019 357.986C481.868 357.986 481.767 357.986 481.615 357.986C478.934 357.683 470.589 351.661 467.15 349.131L469.274 346.298C474.332 350.042 480.654 354.242 482.019 354.495C482.475 354.343 483.587 352.521 484.144 350.497L487.532 351.459C487.279 352.572 485.56 357.986 482.019 357.986Z" fill="#0B1427"/>
<path d="M492.691 337.797L468.313 303.844C467.605 302.883 466.341 302.63 465.329 303.186C464.773 303.49 464.368 304.046 464.217 304.704C464.065 305.362 464.217 305.969 464.621 306.526L477.012 323.679L474.129 325.754L461.738 308.6C460.777 307.285 460.423 305.564 460.777 303.945C461.131 302.326 462.143 300.909 463.559 300.1C466.139 298.632 469.426 299.341 471.196 301.769L495.574 335.722L492.691 337.797Z" fill="#0B1427"/>
<path d="M506.65 370.484L494.208 355.709L496.939 353.432L507.307 365.728L509.28 364.412L505.335 358.189L508.319 356.266L514.085 365.424L506.65 370.484Z" fill="#0B1427"/>
<path d="M510.741 365.582L507.797 367.551L515.104 378.488L518.048 376.52L510.741 365.582Z" fill="#0B1427"/>
<path d="M468.117 210.173L439.917 257.033L442.95 258.86L471.15 212L468.117 210.173Z" fill="#0B1427"/>
<path d="M460.626 299.138L458.046 272.877L455.518 231.739L459.058 231.537L461.587 272.624L464.166 298.784L460.626 299.138Z" fill="#0B1427"/>
<path d="M575.433 408.232H468.667C461.435 408.232 455.518 402.312 455.518 395.076V374.077C455.518 366.841 461.435 360.921 468.667 360.921H490.466V364.463H468.667C463.357 364.463 459.058 368.764 459.058 374.077V395.076C459.058 400.389 463.357 404.69 468.667 404.69H575.433C580.744 404.69 585.043 400.389 585.043 395.076V374.077C585.043 368.764 580.744 364.463 575.433 364.463H519.8V360.921H575.433C582.666 360.921 588.583 366.841 588.583 374.077V395.076C588.583 402.312 582.666 408.232 575.433 408.232Z" fill="#0B1427"/>
<path d="M561.171 390.775H474.635V394.317H561.171V390.775Z" fill="#0B1427"/>
<path d="M481.564 381.819C478.58 381.819 476.153 379.39 476.153 376.405C476.153 373.419 478.58 370.99 481.564 370.99C484.548 370.99 486.976 373.419 486.976 376.405C486.976 379.39 484.548 381.819 481.564 381.819ZM481.564 374.583C480.553 374.583 479.693 375.393 479.693 376.455C479.693 377.467 480.502 378.327 481.564 378.327C482.576 378.327 483.436 377.518 483.436 376.455C483.436 375.393 482.626 374.583 481.564 374.583Z" fill="#0B1427"/>
<path d="M494.107 381.819C491.123 381.819 488.695 379.39 488.695 376.405C488.695 373.419 491.123 370.99 494.107 370.99C497.091 370.99 499.519 373.419 499.519 376.405C499.519 379.39 497.091 381.819 494.107 381.819ZM494.107 374.583C493.096 374.583 492.236 375.393 492.236 376.455C492.236 377.467 493.045 378.327 494.107 378.327C495.119 378.327 495.978 377.518 495.978 376.455C495.978 375.393 495.119 374.583 494.107 374.583Z" fill="#0B1427"/>
<path d="M556.821 383.944C553.837 383.944 551.41 381.515 551.41 378.53C551.41 375.544 553.837 373.115 556.821 373.115C559.805 373.115 562.233 375.544 562.233 378.53C562.233 381.515 559.805 383.944 556.821 383.944ZM556.821 376.708C555.81 376.708 554.95 377.518 554.95 378.58C554.95 379.643 555.759 380.452 556.821 380.452C557.883 380.452 558.693 379.643 558.693 378.58C558.693 377.518 557.833 376.708 556.821 376.708Z" fill="#0B1427"/>
<path d="M544.279 383.944C541.295 383.944 538.867 381.515 538.867 378.53C538.867 375.544 541.295 373.115 544.279 373.115C547.263 373.115 549.69 375.544 549.69 378.53C549.69 381.515 547.263 383.944 544.279 383.944ZM544.279 376.708C543.267 376.708 542.407 377.518 542.407 378.58C542.407 379.643 543.216 380.452 544.279 380.452C545.341 380.452 546.15 379.643 546.15 378.58C546.15 377.518 545.29 376.708 544.279 376.708Z" fill="#0B1427"/>
<path d="M483.334 380.908H479.794V392.546H483.334V380.908Z" fill="#0B1427"/>
<path d="M495.877 380.908H492.337V392.546H495.877V380.908Z" fill="#0B1427"/>
<path d="M508.42 380.908H504.88V392.546H508.42V380.908Z" fill="#0B1427"/>
<path d="M520.963 384.551H517.423V392.546H520.963V384.551Z" fill="#0B1427"/>
<path d="M533.506 380.908H529.965V392.546H533.506V380.908Z" fill="#0B1427"/>
<path d="M546.049 380.908H542.508V392.546H546.049V380.908Z" fill="#0B1427"/>
<path d="M558.592 380.908H555.051V392.546H558.592V380.908Z" fill="#0B1427"/>
<path d="M462.952 302.63L464.419 301.668L462.952 302.63ZM462.952 302.63C461.233 299.998 457.743 296.153 455.77 296.406C454 296.608 452.382 297.367 451.016 298.632L448.639 296.001C450.561 294.281 452.888 293.218 455.366 292.915C460.221 292.307 465.076 299.29 465.987 300.707L462.952 302.63Z" fill="#0B1427"/>
<path d="M460.616 305.248L459.283 318.539L462.806 318.893L464.139 305.602L460.616 305.248Z" fill="#0B1427"/>
<path d="M583.02 265.489L579.479 265.186C579.479 265.084 580.137 256.786 579.479 248.639C578.822 240.341 574.321 194.902 574.27 194.447L577.81 194.093C577.861 194.548 582.362 239.987 583.02 248.386C583.677 256.837 583.02 265.135 583.02 265.489Z" fill="#0B1427"/>
<path d="M582.767 269.082H579.226V273.029H582.767V269.082Z" fill="#0B1427"/>
</svg>
