<svg width="102" height="90" viewBox="0 0 102 90" fill="none" xmlns="http://www.w3.org/2000/svg">
<path d="M47.6197 60.1031H53.8072L55.3698 29.6533H46.1197L47.6197 60.1031ZM50.7447 75.6533C53.6197 75.6533 55.6823 73.3761 55.6823 70.5784C55.6823 67.7806 53.6197 65.5685 50.7447 65.5685C47.8072 65.5685 45.6823 67.7806 45.6823 70.5784C45.6823 73.3761 47.8072 75.6533 50.7447 75.6533Z" fill="#E7742E"/>
<path fill-rule="evenodd" clip-rule="evenodd" d="M44.4808 3.75C47.3782 -1.25 54.6218 -1.25 57.5192 3.75L100.98 78.75C103.878 83.75 100.256 90 94.4611 90H7.53891C1.7441 90 -1.87766 83.75 1.01975 78.75L44.4808 3.75ZM53.1731 6.25C52.2073 4.58333 49.7928 4.58333 48.827 6.25L5.36586 81.25C4.40005 82.9167 5.60731 85 7.53891 85H94.4611C96.3927 85 97.6 82.9167 96.6341 81.25L53.1731 6.25Z" fill="#E7742E"/>
</svg>
